<svg width="64" height="64" viewBox="0 0 64 64" fill="none" xmlns="http://www.w3.org/2000/svg">
<g clip-path="url(#clip0_76_630)">
<path d="M29.1086 0.0738945C24.5836 0.536392 20.2836 1.84889 16.5461 3.92389C3.55856 11.1239 -2.77894 26.1739 1.15856 40.4489C1.78356 42.7114 2.27106 43.9739 3.35856 46.1864C7.50856 54.5364 15.1211 60.6864 24.0961 62.9489C37.3836 66.2864 51.0211 61.0114 58.6711 49.5739C59.7336 47.9864 61.3586 44.7864 62.0336 42.9364C63.0711 40.1114 63.7836 36.5739 63.9461 33.4239C64.0336 31.6239 63.9211 31.1739 63.3211 30.8739C62.8461 30.6239 62.2336 30.7364 61.8461 31.1489C61.5836 31.4364 61.5461 31.5989 61.4711 33.2739C60.9336 44.0489 54.8461 53.4489 45.2586 58.2989C41.0086 60.4489 36.8086 61.4489 31.9836 61.4489C27.1586 61.4489 22.8836 60.4239 18.5961 58.2489C11.0461 54.4114 5.53356 47.5614 3.40856 39.3864C2.65856 36.4864 2.54606 35.4989 2.54606 31.8864C2.55856 28.3614 2.65856 27.4614 3.35856 24.6989C5.44606 16.4239 11.0211 9.48639 18.6711 5.61139C24.8086 2.51139 31.7211 1.64889 38.4836 3.14889C42.3211 4.01139 46.2586 5.79889 49.4461 8.13639L50.5336 8.94889H47.8336C44.8961 8.94889 44.5961 8.99889 44.2836 9.58639C44.0211 10.1114 44.0711 10.5239 44.4711 10.9739L44.8336 11.3864H49.5461H54.2586L54.6211 10.9739L54.9836 10.5739V6.07389C54.9836 2.86139 54.9461 1.48639 54.8336 1.26139C54.5711 0.686394 53.8086 0.423893 53.1961 0.711391C52.5961 0.986393 52.5461 1.18639 52.4836 4.34889L52.4211 7.31139L51.6086 6.67389C47.3711 3.34889 42.1211 1.12389 36.4836 0.261395C34.9461 0.0238914 30.6461 -0.0886078 29.1086 0.0738945Z" fill="#FD790D"/>
<path d="M29.4836 7.46127C19.9461 8.44877 11.6961 15.0488 8.65856 24.1238C4.72106 35.9613 10.1961 48.7988 21.4836 54.1863C27.1211 56.8738 33.7086 57.2863 39.6711 55.3113C46.0711 53.1988 51.3086 48.5738 54.2211 42.4488C57.3711 35.8488 57.3586 27.9863 54.1836 21.3863C53.4336 19.8238 52.3836 18.0988 51.5461 17.0363L50.9836 16.3238H47.6586C44.4336 16.3238 44.3086 16.3113 43.3961 16.0113C41.4086 15.3363 39.9836 13.8738 39.4086 11.8863C39.2461 11.2988 39.2086 10.8613 39.2711 9.79877L39.3461 8.46127L38.6711 8.26127C35.8961 7.46127 32.4586 7.16127 29.4836 7.46127ZM40.7211 22.6488C41.0211 22.8988 41.1086 23.0738 41.1086 23.4238C41.1086 24.0613 34.9211 41.1113 34.5086 41.5863C33.8586 42.3613 32.4836 41.8488 32.4836 40.8363C32.4836 40.5863 33.7961 36.8113 35.6711 31.6488C38.1586 24.8363 38.9336 22.8238 39.1836 22.5988C39.6211 22.2238 40.2336 22.2363 40.7211 22.6488ZM18.9336 25.6238C19.8711 26.0488 20.6711 26.8363 21.1461 27.8113C21.5086 28.5363 21.5461 28.7488 21.5461 29.6988C21.5461 30.6363 21.4961 30.8613 21.1336 31.6238C20.7961 32.3488 20.4211 32.7988 18.7836 34.4488L16.8336 36.4238L18.8336 36.4738C20.7461 36.5113 20.8586 36.5238 21.1586 36.8113C21.5461 37.1863 21.6836 37.7238 21.4836 38.2113C21.1836 38.9113 20.9711 38.9488 17.0586 38.9488C14.7586 38.9488 13.3836 38.8988 13.1961 38.8113C13.0336 38.7363 12.7961 38.5113 12.6836 38.2988C12.2461 37.5613 12.3711 37.3863 15.7336 34.0113C17.4461 32.2988 18.9086 30.7238 18.9711 30.5363C19.4961 29.1363 18.5211 27.6988 17.0461 27.6988C16.0086 27.6988 15.1711 28.3988 15.0336 29.3863C14.9211 30.1738 14.7211 30.5738 14.3461 30.7613C13.6711 31.1113 13.0211 30.9113 12.6586 30.2613C12.4586 29.8863 12.4586 29.7488 12.5961 28.9988C12.8461 27.5988 13.5711 26.5238 14.7086 25.8613C15.9336 25.1363 17.6711 25.0488 18.9336 25.6238ZM29.3086 25.4238C29.8336 25.8363 29.8586 26.0363 29.8586 29.8113V33.4488H30.2961C30.9086 33.4488 31.4211 33.7363 31.6086 34.1863C31.9336 34.9738 31.3961 35.7488 30.4336 35.8863L29.8586 35.9738V36.9613C29.8586 38.0863 29.7086 38.5238 29.2211 38.7738C28.8086 38.9863 28.4711 38.9988 28.0711 38.8113C27.5586 38.5738 27.3586 38.0738 27.3586 36.9738V35.9738L25.0336 35.9238L22.7086 35.8863L22.3461 35.4738C21.6836 34.7363 21.6961 34.6988 24.8461 29.8988C26.4211 27.4988 27.8461 25.4613 28.0086 25.3738C28.4086 25.1488 28.9961 25.1613 29.3086 25.4238ZM50.8461 25.3863C51.2586 25.5988 51.5461 26.1988 51.4336 26.6238C51.3961 26.7863 51.0961 27.2238 50.7836 27.5988C49.4961 29.0863 48.7336 30.4613 48.2211 32.2238C48.0086 32.9613 47.9336 33.6113 47.8711 35.6738L47.7961 38.2238L47.3836 38.5863C46.9336 38.9863 46.5211 39.0363 45.9961 38.7613C45.3836 38.4488 45.3211 38.0738 45.3961 35.4738C45.4461 33.6988 45.5211 32.8863 45.7211 32.1113C46.0586 30.7613 46.6211 29.3113 47.1586 28.4238L47.5836 27.7238L45.0211 27.6738L42.4586 27.6363L42.0961 27.2238C41.5961 26.6738 41.5961 26.0613 42.0961 25.5613L42.4586 25.1988H46.4836C49.7461 25.1988 50.5586 25.2363 50.8461 25.3863Z" fill="#FD790D"/>
<path d="M26.396 32.0114L25.5085 33.3864L26.3835 33.4239C26.871 33.4489 27.2835 33.4364 27.321 33.4114C27.346 33.3739 27.346 32.7489 27.3335 31.9989L27.296 30.6489L26.396 32.0114Z" fill="#FD790D"/>
</g>
<defs>
<clipPath id="clip0_76_630">
<rect width="64" height="64" fill="white"/>
</clipPath>
</defs>
</svg>
