<svg width="124" height="27" viewBox="0 0 124 27" fill="none" xmlns="http://www.w3.org/2000/svg">
<path d="M123 26.0243C122.986 26.5764 122.528 27.0131 121.976 26.9997L112.978 26.781C112.426 26.7676 111.99 26.3091 112.003 25.757C112.016 25.2049 112.475 24.7682 113.027 24.7816L121.025 24.976L121.219 16.9784C121.232 16.4262 121.691 15.9895 122.243 16.003C122.795 16.0164 123.232 16.4748 123.218 17.027L123 26.0243ZM0.355193 25.2357C0.872012 24.7997 1.38848 24.3702 1.90458 23.9473L3.17227 25.4942C2.66357 25.9111 2.15441 26.3344 1.64481 26.7643L0.355193 25.2357ZM4.99648 21.4871C6.06457 20.6624 7.13085 19.8652 8.19511 19.0947L9.36791 20.7148C8.32052 21.473 7.27072 22.2579 6.21872 23.0701L4.99648 21.4871ZM11.4404 16.8234C12.5516 16.0723 13.6602 15.3499 14.7662 14.6556L15.8296 16.3495C14.7429 17.0317 13.6531 17.7417 12.5605 18.4803L11.4404 16.8234ZM18.1834 12.5938C19.3443 11.9216 20.502 11.2798 21.656 10.6676L22.5932 12.4344C21.4613 13.0349 20.3253 13.6646 19.1857 14.3246L18.1834 12.5938ZM25.1921 8.87815C26.4089 8.29192 27.6213 7.73815 28.8289 7.21586L29.6228 9.05154C28.4403 9.56296 27.2527 10.1054 26.0601 10.6799L25.1921 8.87815ZM32.5204 5.71052C33.7748 5.22979 35.0235 4.78252 36.2662 4.36756L36.8997 6.26458C35.6847 6.67029 34.4634 7.10773 33.236 7.57808L32.5204 5.71052ZM40.0647 3.19304C41.3595 2.82456 42.647 2.49061 43.9268 2.18986L44.3844 4.13682C43.1347 4.43048 41.8772 4.75665 40.6121 5.11666L40.0647 3.19304ZM47.8362 1.36843C49.1591 1.12327 50.473 0.913008 51.7772 0.736086L52.0461 2.71794C50.7737 2.89053 49.4917 3.09569 48.2006 3.33495L47.8362 1.36843ZM55.7428 0.29669C57.0814 0.18157 58.4088 0.100973 59.7245 0.0531292L59.7972 2.05181C58.5142 2.09846 57.2197 2.17706 55.9141 2.28934L55.7428 0.29669ZM63.7133 0.00707626C65.0557 0.0248909 66.3847 0.0761623 67.6996 0.158894L67.574 2.15495C66.2918 2.07427 64.9958 2.02427 63.6868 2.0069L63.7133 0.00707626ZM71.6736 0.50761C73.0073 0.657812 74.325 0.839689 75.6258 1.051L75.3052 3.02513C74.036 2.81896 72.7506 2.64155 71.4498 2.49504L71.6736 0.50761ZM79.5469 1.78576C80.8598 2.06469 82.1539 2.37283 83.4281 2.70768L82.9198 4.64201C81.6758 4.31509 80.4126 4.01432 79.1313 3.7421L79.5469 1.78576ZM87.2613 3.81192C88.543 4.21385 89.8025 4.64189 91.0387 5.09324L90.3528 6.97195C89.145 6.53097 87.9147 6.11284 86.6628 5.72029L87.2613 3.81192ZM94.7532 6.54627C95.9948 7.06476 97.2101 7.60562 98.3979 8.16566L97.545 9.97467C96.3838 9.4272 95.196 8.89854 93.9825 8.39181L94.7532 6.54627ZM101.966 9.94632C103.159 10.5755 104.321 11.2225 105.449 11.8835L104.438 13.6093C103.335 12.9631 102.2 12.3306 101.033 11.7155L101.966 9.94632ZM108.84 13.9728C109.977 14.7097 111.076 15.4585 112.133 16.2145L110.97 17.8413C109.937 17.1031 108.864 16.3716 107.752 15.6514L108.84 13.9728ZM115.331 18.6182C116.406 19.4683 117.429 20.3214 118.398 21.1715L117.079 22.6748C116.136 21.8476 115.139 21.0163 114.09 20.1873L115.331 18.6182ZM121.328 23.8921C121.812 24.3683 122.277 24.8414 122.724 25.3103L121.276 26.6897C120.844 26.2366 120.394 25.7788 119.925 25.3173L121.328 23.8921Z" fill="#B6B6B6"/>
</svg>
