<svg width="134" height="26" viewBox="0 0 134 26" fill="none" xmlns="http://www.w3.org/2000/svg">
<path d="M133.998 2.0607C134.032 1.50943 133.612 1.03537 133.061 1.00184L124.077 0.455548C123.526 0.422025 123.052 0.841738 123.018 1.393C122.985 1.94427 123.405 2.41834 123.956 2.45186L131.941 2.93746L131.456 10.9227C131.422 11.474 131.842 11.948 132.393 11.9816C132.944 12.0151 133.418 11.5954 133.452 11.0441L133.998 2.0607ZM0.420298 2.81483C0.97072 3.20642 1.52076 3.59225 2.0704 3.97236L3.20801 2.32742C2.6657 1.95237 2.12292 1.57164 1.5797 1.18517L0.420298 2.81483ZM5.36319 6.18504C6.49171 6.92139 7.61831 7.63402 8.74278 8.32344L9.78816 6.6184C8.67979 5.93884 7.56903 5.23624 6.45611 4.51006L5.36319 6.18504ZM12.1548 10.3486C13.3206 11.0178 14.4839 11.6625 15.6444 12.2831L16.5876 10.5195C15.4448 9.90836 14.2991 9.27341 13.1505 8.61406L12.1548 10.3486ZM19.1924 14.1109C20.3907 14.7048 21.5858 15.2734 22.7773 15.8175L23.608 13.9982C22.4359 13.463 21.2599 12.9034 20.0805 12.3189L19.1924 14.1109ZM26.4377 17.417C27.6789 17.9351 28.9159 18.4269 30.1483 18.8931L30.856 17.0225C29.6447 16.5643 28.4286 16.0808 27.2081 15.5713L26.4377 17.417ZM33.8944 20.2373C35.1647 20.6684 36.4297 21.0727 37.6891 21.4512L38.2647 19.5358C37.0278 19.1641 35.7852 18.7669 34.5372 18.3434L33.8944 20.2373ZM41.5403 22.5331C42.8399 22.8729 44.1329 23.1856 45.4191 23.4719L45.8538 21.5197C44.5914 21.2387 43.3221 20.9318 42.0462 20.5982L41.5403 22.5331ZM49.3238 24.2657C50.6427 24.5083 51.9538 24.7237 53.2565 24.9131L53.5441 22.9339C52.2661 22.7481 50.9798 22.5368 49.6857 22.2987L49.3238 24.2657ZM57.2254 25.413C58.5617 25.5555 59.8886 25.6709 61.2055 25.7605L61.3412 23.7651C60.0497 23.6772 58.7482 23.564 57.4374 23.4242L57.2254 25.413ZM65.1925 25.9549C66.5338 25.9945 67.8637 26.0077 69.1818 25.9958L69.1639 23.9959C67.8712 24.0075 66.5669 23.9946 65.2515 23.9558L65.1925 25.9549ZM73.1682 25.8834C74.5087 25.8197 75.8359 25.7307 77.1492 25.6177L76.9777 23.6251C75.6897 23.7359 74.3881 23.8232 73.0734 23.8856L73.1682 25.8834ZM81.1238 25.1989C82.4578 25.0325 83.776 24.8419 85.0779 24.6288L84.7548 22.6551C83.4777 22.8641 82.1846 23.0511 80.8762 23.2143L81.1238 25.1989ZM89.0062 23.909C90.3241 23.6417 91.6235 23.3518 92.9037 23.0414L92.4325 21.0978C91.1764 21.4023 89.9015 21.6867 88.6086 21.949L89.0062 23.909ZM96.7654 22.028C98.061 21.6618 99.3348 21.2753 100.586 20.8706L99.9705 18.9677C98.7427 19.3648 97.4928 19.7441 96.2215 20.1034L96.7654 22.028ZM104.361 19.571C105.628 19.108 106.869 18.6271 108.084 18.131L107.327 16.2795C106.136 16.7663 104.918 17.2381 103.674 17.6925L104.361 19.571ZM111.749 16.5516C112.982 15.9924 114.183 15.4188 115.351 14.8338L114.455 13.0456C113.31 13.6192 112.132 14.1817 110.923 14.7302L111.749 16.5516ZM118.88 12.978C120.076 12.3187 121.231 11.6495 122.343 10.9742L121.306 9.26441C120.217 9.92534 119.086 10.5807 117.914 11.2267L118.88 12.978ZM125.723 8.82102C126.869 8.05476 127.959 7.28585 128.993 6.51971L127.802 4.91292C126.795 5.65954 125.73 6.40995 124.611 7.15868L125.723 8.82102ZM132.149 4.04622C132.673 3.61064 133.178 3.17779 133.663 2.74872L132.337 1.25128C131.869 1.66601 131.38 2.08517 130.871 2.5077L132.149 4.04622Z" fill="#B6B6B6"/>
</svg>
