<svg width="80" height="80" viewBox="0 0 80 80" fill="none" xmlns="http://www.w3.org/2000/svg">
<rect width="80" height="80" rx="16" fill="#F9F9F8"/>
<path d="M34.601 10.0914C34.209 10.2413 33.7479 10.8868 33.7479 11.2673C33.7479 11.9244 35.0391 21.1008 35.1774 21.389C35.3388 21.7579 36.0074 22.1959 36.3879 22.1959C36.8259 22.1959 37.4139 21.7924 37.6329 21.3428C37.8173 20.9509 37.7943 20.7549 37.1602 16.063C36.8029 13.3769 36.434 11.0137 36.3417 10.8061C36.0535 10.1606 35.2466 9.82626 34.601 10.0914Z" fill="#FD790D"/>
<path d="M15.4643 15.4404C15.1415 15.7632 15.0724 15.913 15.0724 16.3396C15.0724 17.0428 15.3029 17.331 17.9083 19.9133C20.2024 22.1728 20.5136 22.3803 21.2399 22.1728C21.678 22.0575 22.0814 21.654 22.1967 21.216C22.4042 20.4897 22.1967 20.1784 19.9372 17.8843C17.3549 15.279 17.0667 15.0484 16.3635 15.0484C15.937 15.0484 15.7871 15.1176 15.4643 15.4404Z" fill="#FD790D"/>
<path d="M28.9522 28.9283C28.6409 29.2395 28.5602 29.4125 28.5602 29.7814C28.5602 30.0696 30.7736 36.8481 34.9007 49.1601C38.3822 59.5585 41.2873 68.1815 41.3564 68.3083C41.5409 68.6426 42.1519 69 42.5553 69C43.3393 69 43.443 68.8617 46.5325 63.1783L49.4607 57.8062L54.8328 63.1552C60.447 68.7464 60.4124 68.7233 61.2424 68.5735C61.7381 68.4812 68.5051 61.7142 68.5973 61.2185C68.7472 60.3885 68.7818 60.4231 63.1791 54.8089L57.8301 49.4368L63.0869 46.5663C65.9805 44.9985 68.4705 43.5805 68.6319 43.4306C69.1853 42.8773 69.0815 41.8282 68.4244 41.4017C67.9287 41.0789 30.2779 28.5363 29.8053 28.5363C29.4364 28.5363 29.2634 28.617 28.9522 28.9283Z" fill="#FD790D"/>
<path d="M10.7263 33.9546C10.3228 34.1967 10 34.7155 10 35.1305C10 35.5455 10.4265 36.145 10.8416 36.3179C11.3373 36.5254 20.7673 37.805 21.1246 37.7128C21.6203 37.586 22.093 37.0557 22.1737 36.5484C22.2198 36.1795 22.1852 36.0066 21.9662 35.6838C21.8163 35.4648 21.5627 35.2227 21.4128 35.1535C21.1477 35.0267 11.9598 33.7241 11.3603 33.7241C11.2105 33.7241 10.9338 33.8278 10.7263 33.9546Z" fill="#FD790D"/>
</svg>
