<svg width="80" height="80" viewBox="0 0 80 80" fill="none" xmlns="http://www.w3.org/2000/svg">
<rect width="80" height="80" rx="16" fill="#F9F9F8"/>
<path d="M35.9375 20.075C31.375 20.4125 29.475 20.6625 27.35 21.1875C24.3 21.9625 22.175 23.1625 21.1125 24.7C20.9125 25 20.2 26.325 19.55 27.625L18.375 30H16.4625C13.975 30 14.0625 29.9375 14.0625 31.6875V33.025L14.5125 33.425L14.975 33.8125L13.4125 34.6125C11.2375 35.7375 10.925 35.975 10.7 36.7625C10.5875 37.1125 10.4125 38.2 10.2875 39.1625C9.91247 42.175 10.0125 52.7 10.45 57.2125L10.525 58H11.25H11.9625L12.0375 58.7625C12.15 60.0875 11.7 60 18 60C24.3 60 23.85 60.0875 23.9625 58.7625L24.0375 58H40H55.9625L56.0375 58.7625C56.15 60.0875 55.7 60 62 60C68.3 60 67.85 60.0875 67.9625 58.7625L68.0375 58H68.7625H69.475L69.5625 57.0875C70.2375 49.1625 70.0625 39.5625 69.1875 36.55C68.9625 35.7875 68.6375 35.5375 66.425 34.475L65.0375 33.8L65.4875 33.425C65.925 33.05 65.9375 33.0125 65.975 32.0125C66.075 30.025 66.0375 30 63.55 30H61.6125L61.225 29.15C61.025 28.6875 60.4875 27.5625 60.0375 26.6375C59.3375 25.2 59.1 24.8375 58.325 24.0625C56.2625 21.9875 53.0625 20.9 47.125 20.3C45.425 20.125 37.4375 19.9625 35.9375 20.075ZM43.75 24.125C49.4125 24.525 53.1125 25.425 54.85 26.8375C55.85 27.65 57.1875 29.85 58.325 32.5625C58.5625 33.1125 58.75 33.5625 58.75 33.5625C58.75 33.5625 21.35 33.5 21.2875 33.5C21.2125 33.5 22.025 31.7 22.7 30.3625C23.575 28.6375 24.4625 27.375 25.225 26.7625C26.975 25.3875 30.7875 24.5 36.875 24.0875C38.25 23.9875 42.1 24.0125 43.75 24.125ZM16.8375 38.1375C18.4125 38.3625 20.525 38.9375 21.675 39.475C22.85 40.0375 24.1 40.85 24.3375 41.2375C24.4875 41.4625 24.45 41.4875 23.9625 41.5625C22.3625 41.7875 20.7375 41.8875 17.875 41.9625C13.85 42.05 14.0875 42.175 14.025 40.075C13.9875 39.275 14.0125 38.4875 14.05 38.3125C14.125 38.0125 14.175 38 14.9875 38C15.4625 38 16.3 38.0625 16.8375 38.1375ZM65.875 38.2375C66.0375 38.5625 66.0375 39.675 65.85 40.7625C65.6375 42.0875 65.7375 42.05 62.0875 41.9625C58.8375 41.875 56.4125 41.675 56.1625 41.475C55.6625 41.075 56.3125 40.4625 58.1875 39.55C59.9375 38.7 62.775 38.0375 64.7125 38.0125C65.6125 38 65.7625 38.0375 65.875 38.2375ZM42.875 46.125C47.1375 46.5125 51.75 47.65 53.9375 48.85C54.8125 49.325 54.9 49.7375 54.4 51L54.025 51.9375L40.0375 51.975L26.05 52L25.65 51.1875C24.7625 49.3875 25.075 49.0625 28.6875 47.9125C33.675 46.3375 38.4875 45.7375 42.875 46.125Z" fill="#FD790D"/>
</svg>
