<svg width="64" height="64" viewBox="0 0 64 64" fill="none" xmlns="http://www.w3.org/2000/svg">
<g clip-path="url(#clip0_76_627)">
<path d="M29.625 0.0749245C29.3875 0.099926 28.65 0.187428 28 0.262424C18.1125 1.38742 8.975 7.58743 3.95 16.5749C2.125 19.8499 0.799999 23.9124 0.237499 27.9999C-0.0125012 29.7874 0.0124988 34.5874 0.287499 36.3749C1.4125 43.6999 4.425 49.6874 9.5125 54.7124C10.3 55.4874 11.45 56.5249 12.0625 57.0249C20.075 63.4249 30.7375 65.5749 40.6875 62.7874C52.3 59.5374 61.2625 49.7499 63.425 37.9499C65.375 27.3874 62.1375 16.9249 54.6125 9.38742C49.625 4.41243 43.625 1.39993 36.5 0.312428C35.25 0.124928 30.6 -0.0375748 29.625 0.0749245ZM33.1 12.3374C33.825 12.8749 33.9375 13.1624 33.975 14.6249C34.025 16.1874 34.025 16.1874 35.2375 16.6249C36.85 17.2124 38.625 18.6749 39.6 20.1999C40.4 21.4749 41 23.4374 41 24.8249C41 25.5249 40.6375 26.2624 40.1 26.6499C39.55 27.0374 38.425 27.0624 37.925 26.6749C37.2875 26.1999 37.1125 25.8374 36.9875 24.7374C36.775 22.7374 35.7625 21.2874 34.025 20.4624C33.2625 20.0999 33.075 20.0624 32 20.0624C30.925 20.0624 30.7375 20.0999 29.975 20.4624C28.8125 21.0124 28.0875 21.7124 27.525 22.8499C27.0875 23.7499 27.0625 23.8624 27.0625 24.9874C27.0625 26.0749 27.1 26.2624 27.4625 27.0249C28 28.1624 28.725 28.9124 29.8 29.4499C30.6 29.8374 30.8625 29.8999 32.225 30.0124C34.9375 30.2249 36.575 30.9499 38.3125 32.6874C39.95 34.3249 40.8 36.1499 40.9625 38.3624C41.2375 42.2624 38.8125 46.0624 35.225 47.3749C34.025 47.8124 34 47.8499 34 49.1749C34 50.5124 33.75 51.1749 33.1125 51.6374C32.55 52.0374 31.4375 52.0624 30.925 51.6749C30.175 51.1249 30.0625 50.8374 30.025 49.3749C29.975 47.8124 29.975 47.8124 28.7625 47.3749C27.15 46.7874 25.375 45.3249 24.4 43.7999C23.6 42.5249 23 40.5624 23 39.1749C23 38.4749 23.3625 37.7374 23.9 37.3499C24.45 36.9624 25.575 36.9374 26.075 37.3249C26.7125 37.7999 26.8875 38.1624 27.0125 39.2624C27.2375 41.2499 28.175 42.6374 29.85 43.4749C30.75 43.9124 30.8625 43.9374 32 43.9374C33.1375 43.9374 33.25 43.9124 34.15 43.4749C35.2875 42.9124 35.9875 42.1874 36.5375 41.0249C36.9 40.2624 36.9375 40.0749 36.9375 38.9999C36.9375 37.9249 36.9 37.7374 36.5375 36.9749C36 35.8374 35.275 35.0874 34.2 34.5499C33.4 34.1624 33.1375 34.0999 31.775 33.9874C29.0625 33.7749 27.425 33.0499 25.6875 31.3124C25.1375 30.7624 24.475 29.9499 24.2125 29.4999C22.525 26.5999 22.6375 22.8999 24.4875 20.0999C25.55 18.4999 27.1125 17.2249 28.775 16.6249C29.975 16.1874 30 16.1499 30 14.8249C30.0125 13.2499 30.3875 12.4874 31.375 12.0874C31.725 11.9374 32.7625 12.0874 33.1 12.3374Z" fill="#FD790D"/>
</g>
<defs>
<clipPath id="clip0_76_627">
<rect width="64" height="64" fill="white"/>
</clipPath>
</defs>
</svg>
