<svg width="154" height="72" viewBox="0 0 154 72" fill="none" xmlns="http://www.w3.org/2000/svg">
<path d="M80.5575 5.36082C80.3517 5.39537 80.1345 5.51052 80.0659 5.62567C79.9859 5.77537 79.7687 5.86749 79.2999 5.91355C76.8304 6.20143 73.2291 7.05355 71.0683 7.87113C66.8153 9.46022 60.9846 12.2008 56.5944 14.6651L54.7994 15.6784L52.1356 15.782C39.5938 16.2772 26.8919 18.062 20.9811 20.1578C18.8089 20.9293 16.248 22.3572 15.9278 22.979C15.6535 23.4742 15.7449 25.6736 16.0879 27.3893C16.4195 28.9784 16.4652 30.222 16.2251 31.2354C15.985 32.2026 16.2594 33.0433 17.1283 34.0451L17.5513 34.5402H18.7289C20.1123 34.5402 20.4324 34.6323 20.9011 35.1736L21.2441 35.5651L24.6968 35.7493C26.5832 35.8414 28.2181 35.922 28.321 35.922C28.4811 35.922 28.5039 35.7493 28.5039 34.7936C28.5039 33.1008 28.6411 30.8093 28.7326 30.9936C28.7783 31.0742 28.8469 31.6384 28.8812 32.2372C28.9612 33.5039 29.167 34.2754 29.7272 35.4039C30.4818 36.9123 31.3621 37.9948 32.5512 38.8814L33.2143 39.3766H21.4042C14.8989 39.3766 9.38827 39.4111 9.15961 39.4457C8.58797 39.5493 8.61084 39.676 9.21678 39.7681C9.49117 39.8142 15.3219 39.8948 22.1702 39.9523C34.2661 40.056 34.6434 40.0675 35.5351 40.2978C36.6898 40.6087 38.6791 40.6317 39.9368 40.3439C40.7142 40.1711 42.6692 40.1481 60.1157 40.102C79.5629 40.0445 110.957 40.2287 112.764 40.4129C115.245 40.6663 115.896 40.6663 117.223 40.4705C118.389 40.2978 120.035 40.2633 131.822 40.1942C139.128 40.1596 145.142 40.079 145.187 40.0329C145.244 39.9869 145.222 39.8948 145.142 39.8487C144.867 39.676 140.889 39.6069 131.125 39.5954C125.774 39.5839 121.064 39.5493 120.652 39.5033L119.909 39.4342L120.321 39.1808C120.55 39.0311 121.19 38.4323 121.761 37.8451C122.619 36.9469 122.893 36.5669 123.328 35.6802C124.071 34.1372 124.231 33.3887 124.231 31.6039C124.231 29.8996 124.059 29.082 123.453 27.8499C122.173 25.236 120.149 23.5317 117.508 22.8408C116.434 22.5645 114.25 22.5529 113.221 22.8408C110.912 23.4626 108.694 25.1899 107.528 27.2857C106.293 29.5081 106.144 32.6978 107.173 35.1736C107.745 36.5784 109.06 38.2136 110.351 39.1348L110.854 39.4917L88.229 39.4802C75.7901 39.4687 60.4358 39.4226 54.1134 39.3881L42.6349 39.319L43.4009 38.7202C44.4413 37.8911 45.3445 36.7511 45.939 35.519C46.5906 34.1717 46.7964 33.2966 46.8993 31.5463C46.9679 30.2336 46.9908 30.1645 47.0708 30.7402C47.1166 31.0857 47.1852 32.5136 47.2309 33.9069L47.3109 36.4402L76.5218 36.3942C92.5849 36.3711 105.744 36.3481 105.744 36.3366C105.755 36.3366 105.824 35.0239 105.881 33.4463C105.984 31.2469 106.064 30.3372 106.247 29.5887C106.933 26.756 108.865 24.4299 111.54 23.1978C112.981 22.5414 113.667 22.4032 115.508 22.4032C117.428 22.4032 118.149 22.5529 119.589 23.2439C121.75 24.2917 123.236 25.8808 124.128 28.1378C124.677 29.5196 124.791 30.2681 124.848 33.0087L124.905 35.5766H125.477C125.797 35.5766 127.684 35.3233 129.673 35.0008C131.662 34.6899 134.349 34.2984 135.641 34.1372C139.265 33.6766 139.139 33.7226 140.465 32.3293C142.032 30.6826 141.975 30.7978 141.815 29.7269C141.712 28.9899 141.712 28.679 141.849 28.0226C142.055 27.0669 142.26 25.0978 142.26 24.1881C142.26 23.6584 142.18 23.3936 141.792 22.6911C140.751 20.7681 140.603 19.6857 140.957 16.9451L141.151 15.5287L140.728 14.9184L140.317 14.3081L138.739 14.239C137.87 14.1929 136.647 14.0893 136.018 13.9972C135.401 13.9051 133.812 13.7208 132.485 13.5826L130.084 13.3408L127.169 12.2929C123.03 10.819 119.543 9.63295 117.223 8.93052C115.336 8.36628 115.21 8.3087 115.05 7.96325C114.845 7.53719 114.559 7.45658 111.38 6.91537C107.619 6.27052 102.943 5.7984 97.4438 5.52204C95.0086 5.39537 81.1978 5.2687 80.5575 5.36082ZM98.7586 6.21294C102.611 6.45476 106.624 6.94991 111.049 7.72143C112.992 8.05537 113.793 8.23961 113.793 8.35476C113.793 8.51598 113.541 8.86143 113.438 8.86143C113.37 8.86143 112.844 8.6887 112.261 8.46991C109.46 7.42204 102.806 6.66204 93.4995 6.31658C85.3708 6.0287 80.4661 6.46628 74.9326 7.9978C74.4524 8.12446 74.2123 8.13597 73.8236 8.04385C73.5492 7.97476 73.3206 7.87113 73.3206 7.82507C73.3206 7.64082 77.2535 6.83476 79.7229 6.51234C81.1635 6.3281 84.0903 6.10931 86.0682 6.05173C88.2747 5.98264 96.8607 6.09779 98.7586 6.21294ZM98.2327 7.07658C101.045 7.30688 104.349 7.68689 104.704 7.82507C105.012 7.94022 105.081 8.14749 104.829 8.23961C104.749 8.27416 104.246 8.21658 103.732 8.12446C103.217 8.02082 102.531 7.94022 102.223 7.94022C101.914 7.94022 101.571 7.89416 101.457 7.83658C100.977 7.57173 95.1801 7.18022 89.7838 7.04204C86.6055 6.96143 86.5026 6.96143 88.0117 6.89234C90.4012 6.7887 95.8089 6.88083 98.2327 7.07658ZM108.248 8.34325C112.261 9.05719 114.433 9.65598 123.282 12.5348C128.141 14.1123 131.628 14.9875 134.543 15.3445C134.738 15.3675 133.32 15.402 131.399 15.4136C127.912 15.4366 127.066 15.4942 127.021 15.7129C126.998 15.8281 130.953 15.9432 135.778 15.9893L137.927 16.0008L138.396 16.9796C138.648 17.5208 138.831 18.0045 138.785 18.039C138.751 18.0851 138.522 17.9354 138.282 17.7051C138.053 17.4748 137.687 17.2099 137.482 17.1063C136.898 16.8069 134.863 16.5766 132.725 16.5766C131.045 16.5766 130.748 16.5996 130.439 16.7954C130.107 16.9911 129.639 17.0142 122.71 17.0833C118.652 17.1293 114.673 17.2099 113.85 17.256C113.038 17.3136 112.352 17.3481 112.341 17.3366C112.329 17.3366 112.775 16.8645 113.313 16.2887C113.861 15.7245 114.444 15.0451 114.604 14.7917C114.765 14.5384 115.108 14.0432 115.37 13.6978C115.862 13.0414 115.976 12.5463 115.736 12.0742C115.588 11.8093 115.771 11.7863 116.194 12.0281C116.571 12.2469 116.72 12.2469 116.537 12.0281C116.445 11.9245 116.445 11.8554 116.514 11.8554C116.674 11.8554 117.108 12.4772 117.108 12.7075C117.108 13.0414 116.662 13.7899 116.411 13.8705C116.274 13.9166 116.205 14.0087 116.239 14.1123C116.274 14.2045 116.228 14.2736 116.136 14.2736C115.908 14.2736 115.599 14.7802 115.691 15.0105C115.725 15.1142 115.805 15.1948 115.851 15.1948C116.011 15.1948 116.091 14.9875 115.965 14.9069C115.793 14.8032 115.828 14.619 116.011 14.619C116.365 14.619 117.223 13.2717 117.223 12.719C117.223 12.0166 116.834 11.7402 114.73 10.9342C113.004 10.2778 109.963 9.39113 107.688 8.86143C105.95 8.46991 105.675 8.36628 105.675 8.11295C105.675 7.88264 105.641 7.88264 108.248 8.34325ZM72.5203 8.34325C72.7947 8.67719 72.566 8.87295 71.0912 9.54082C70.2794 9.90931 67.2955 11.3487 64.4601 12.7536C61.6362 14.1469 58.9724 15.402 58.5608 15.5402C57.8977 15.759 57.7033 15.782 57.0745 15.6784C56.5143 15.5978 56.4457 15.5632 56.7659 15.5517C57.086 15.5402 57.1774 15.4942 57.1317 15.379C57.0517 15.1717 57.5661 14.8608 60.7445 13.2487C64.8946 11.1299 68.6788 9.42567 70.9768 8.6081C71.6742 8.36628 72.2687 8.17052 72.303 8.17052C72.3488 8.17052 72.4402 8.25113 72.5203 8.34325ZM88.5148 8.27416C88.652 8.36628 88.4462 9.02264 87.3944 11.9475L86.1025 15.5057L85.3936 15.5748C84.7305 15.6439 78.854 15.8281 73.5492 15.9432C72.2001 15.9778 70.6339 16.0239 70.0622 16.0584C69.502 16.0929 68.9761 16.0814 68.8961 16.0239C68.7817 15.9548 68.7932 15.8051 68.9189 15.379C69.159 14.5845 69.1362 14.2505 68.7932 13.7439L68.4959 13.3063L68.7589 13.076C68.9075 12.9608 69.7078 12.5348 70.5195 12.1317C74.9212 10.0129 78.271 8.93052 81.7237 8.51598C84.056 8.2281 88.2175 8.08992 88.5148 8.27416ZM90.1725 8.27416C90.2068 8.33173 90.1382 8.82689 90.0125 9.39113C89.8981 9.95537 89.5895 11.5214 89.3379 12.8802C89.075 14.262 88.812 15.3905 88.732 15.4481C88.5605 15.5517 87.5544 15.5748 87.0628 15.4711L86.7198 15.402L87.1085 14.2851C87.3258 13.6748 87.9203 12.0511 88.4347 10.6693L89.3494 8.17052H89.7267C89.9439 8.17052 90.1382 8.21658 90.1725 8.27416ZM93.8425 8.34325C100.977 8.72325 107.848 9.98992 112.752 11.8208C113.393 12.0511 113.907 12.2929 113.907 12.3505C113.907 12.4081 113.804 12.4311 113.667 12.3966C113.473 12.3505 113.461 12.362 113.576 12.5002C113.656 12.5923 113.804 12.6384 113.918 12.6039C114.273 12.4887 114.17 12.742 113.393 13.9396L112.649 15.0796H111.666C110.786 15.0796 110.683 15.0566 110.626 14.8493C110.557 14.5845 110.134 14.5269 110.134 14.7917C110.134 14.8839 109.986 14.976 109.768 15.0105C109.563 15.0451 106.304 15.1257 102.531 15.1948C98.7586 15.2639 94.3455 15.3675 92.7221 15.4251C91.11 15.4826 89.7038 15.4942 89.6009 15.4596C89.4751 15.4136 89.4408 15.2984 89.4751 15.0911C89.6352 14.1239 90.7213 8.53901 90.767 8.36628C90.8242 8.17052 90.9271 8.159 91.7045 8.21658C92.1961 8.25113 93.1565 8.3087 93.8425 8.34325ZM75.6071 8.56203C75.6071 8.58507 75.2641 8.72325 74.8411 8.87295C72.909 9.51779 68.7703 11.4293 65.3176 13.2948C61.6934 15.2408 59.7727 16.2196 59.0867 16.4384C57.5204 16.9566 57.3261 16.8529 58.8009 16.2887C59.7384 15.9432 62.0592 14.7917 66.861 12.316C70.3938 10.4851 72.6575 9.4487 74.2924 8.90749C75.4471 8.51598 75.6071 8.48143 75.6071 8.56203ZM118.972 10.1857C122.402 11.2911 123.328 11.6251 123.248 11.6942C123.179 11.7632 115.359 9.41416 114.799 9.14931L114.422 8.97658L114.993 9.02264C115.313 9.05719 117.097 9.57537 118.972 10.1857ZM115.279 12.5348C115.279 12.696 115.165 13.0184 115.039 13.2372C114.707 13.7784 113.541 15.2178 113.484 15.1487C113.45 15.1257 113.633 14.7917 113.884 14.4232C114.49 13.5251 114.822 12.8457 114.822 12.5117C114.822 12.1778 114.902 12.0857 115.119 12.1663C115.21 12.2008 115.279 12.362 115.279 12.5348ZM135.401 14.5614C136.693 14.7226 138.19 14.8493 138.728 14.8493C139.551 14.8493 139.768 14.8839 139.985 15.0796C140.225 15.2754 140.237 15.3214 140.088 15.4251C139.894 15.5517 138.991 15.5748 138.339 15.4596C138.042 15.4136 137.927 15.3445 137.962 15.2408C138.053 14.999 137.71 15.0451 137.596 15.2754C137.539 15.3905 137.516 15.5517 137.539 15.6208C137.584 15.736 136.864 15.7705 134.177 15.7475L130.77 15.736L133.972 15.6439C136.796 15.5632 137.184 15.5287 137.31 15.3445C137.39 15.2408 137.459 15.1142 137.459 15.0796C137.459 15.0336 136.91 14.9645 136.235 14.9184C134.886 14.8378 131.994 14.4463 131.456 14.2736C130.942 14.1008 132.645 14.2275 135.401 14.5614ZM68.1872 15.5517C68.3587 15.6554 67.9357 15.9663 67.4441 16.1045L66.9982 16.2196L67.3526 15.8511C67.7642 15.4251 67.7985 15.2869 67.5356 15.0336C67.3755 14.8608 67.3755 14.8263 67.627 14.6305L67.89 14.4117L67.9814 14.9414C68.0386 15.2408 68.1301 15.5057 68.1872 15.5517ZM112.124 15.9893L112.787 16.0584L112.467 16.3808C112.295 16.5651 111.998 16.7954 111.826 16.899C111.655 17.0026 111.506 17.1408 111.506 17.2099C111.506 17.2905 111.072 17.3942 110.454 17.4632C109.871 17.5323 108.774 17.7281 108.019 17.9008C105.824 18.396 101.594 19.8814 101.079 20.342C100.828 20.5723 100.908 20.722 101.251 20.6414C101.731 20.5148 103.16 19.8123 103.16 19.6972C103.16 19.6281 103.309 19.5705 103.48 19.5705C103.663 19.5705 104.612 19.3402 105.595 19.0523C107.287 18.5687 110.077 17.9584 110.592 17.9584C110.923 17.9584 110.877 18.1772 110.454 18.5917C110.249 18.799 109.906 19.1905 109.7 19.4784C109.494 19.7663 109.162 20.1232 108.957 20.2729C108.751 20.4111 108.316 20.9523 107.985 21.459C107.653 21.9772 107.002 22.8523 106.533 23.4281C106.064 23.9923 105.493 24.7523 105.264 25.0978C104.384 26.422 103.355 27.6542 103.034 27.7693C102.771 27.8614 102.669 27.9996 102.543 28.4142L102.371 28.9554V28.2875C102.36 27.7923 102.314 27.6311 102.188 27.6311C102.017 27.6311 101.925 27.8845 101.88 28.5523C101.845 28.9093 101.8 28.9554 101.502 29.0014C101.194 29.036 101.182 29.0475 101.388 29.1396C101.537 29.2087 101.445 29.2202 101.102 29.1742C100.233 29.0705 99.9819 29.0705 97.1008 29.2433C95.5574 29.3239 93.8882 29.4045 93.3852 29.416C92.8821 29.416 90.9385 29.4966 89.075 29.5887C87.2 29.6808 85.6337 29.7039 85.588 29.6578C85.4165 29.4966 85.4851 20.9754 85.6451 20.1232L85.8052 19.3517L86.9599 19.2596C87.966 19.1905 88.0575 19.1675 87.6116 19.0984C87.1886 19.0408 87.1543 19.0293 87.4401 18.9948C87.6345 18.9832 87.4058 18.9142 86.9256 18.8566C86.4569 18.799 86.0567 18.7299 86.0339 18.7069C85.9538 18.6263 86.777 17.3481 87.2343 16.8299L87.6687 16.3463L93.5452 16.2196C96.7807 16.1505 100.313 16.1275 101.4 16.1736L103.389 16.2542L103.4 16.6226C103.469 18.3154 102.771 18.4651 94.1283 18.6608C91.0757 18.7299 88.5148 18.8105 88.4233 18.8336C88.2976 18.8796 88.2861 18.9142 88.4005 19.0293C88.652 19.2826 102.131 19.1214 102.131 18.8681C102.131 18.8105 102.017 18.7529 101.88 18.7529C101.731 18.7414 101.891 18.6954 102.223 18.6378C103.08 18.4881 103.48 18.2463 103.686 17.7511C104.315 16.2657 104.532 16.1505 106.762 16.0123C108.591 15.8972 111.22 15.8857 112.124 15.9893ZM140.271 16.2542C140.225 16.4614 140.168 17.3481 140.123 18.2117C140.088 19.0869 140.02 19.7663 139.962 19.7317C139.917 19.7087 139.677 19.0754 139.448 18.3269C139.219 17.5899 138.933 16.7839 138.819 16.5536C138.705 16.3117 138.602 16.1045 138.602 16.0699C138.602 16.0008 139.162 15.9317 139.848 15.9087L140.34 15.8857L140.271 16.2542ZM52.9244 16.4614C53.0959 16.5305 53.2102 16.5996 53.1874 16.6226C53.0845 16.7148 50.3177 16.7839 50.4092 16.6917C50.7179 16.3923 52.3414 16.2426 52.9244 16.4614ZM86.7884 16.4384C86.8913 16.5075 86.7999 16.6572 86.4454 16.9911C86.1711 17.2445 85.8052 17.6705 85.6223 17.9354C85.0392 18.799 85.0849 18.7875 73.3206 19.2251C69.9593 19.3517 65.2033 19.536 62.7566 19.6281C60.3215 19.7317 58.2978 19.7893 58.2635 19.7663C58.2407 19.7317 58.4007 19.3402 58.618 18.8911C58.8466 18.442 59.0295 18.0505 59.0295 18.016C59.0295 17.9929 58.8581 18.062 58.6637 18.1657C58.4007 18.3154 58.2178 18.5572 58.0463 18.9832C57.9091 19.3172 57.7491 19.6396 57.6919 19.6972C57.5204 19.8699 55.7369 19.9966 50.6264 20.2039C45.9733 20.3881 45.1158 20.4457 45.0244 20.6069C44.8529 20.8832 47.5853 20.8487 54.8794 20.4687C56.3428 20.3996 57.5661 20.3651 57.6004 20.3881C57.6805 20.4802 57.3261 23.5202 57.2232 23.6239C57.166 23.6814 56.1256 23.762 54.9023 23.8196C53.679 23.8657 53.0502 23.9233 53.5075 23.9233C53.9534 23.9348 54.365 23.9923 54.3993 24.0614C54.445 24.1305 55.0624 24.1766 55.897 24.1766H57.3146V24.4645C57.3146 24.6717 57.246 24.7639 57.0631 24.7984C56.9145 24.8329 55.6226 24.879 54.1706 24.902C51.5982 24.9596 50.9123 25.0517 50.9123 25.3626C50.9123 25.4432 51.1752 25.7657 51.4953 26.0766C51.8154 26.399 52.1356 26.8136 52.2156 27.0093C52.3757 27.3663 53.3817 28.1378 53.5532 28.0226C53.599 27.9996 53.7019 28.0802 53.7819 28.2184C53.8848 28.4142 53.9305 28.4372 54.0105 28.3105C54.0906 28.1839 54.1134 28.1839 54.1134 28.3451C54.1134 28.4487 54.2506 28.6445 54.4107 28.7711C54.7422 29.036 54.9709 29.0936 54.8451 28.8748C54.7994 28.8057 54.9709 28.9439 55.211 29.1972C55.4625 29.439 56.137 29.8996 56.7201 30.199C57.3032 30.5099 57.7719 30.7748 57.7719 30.7978C57.7719 30.8093 57.852 31.2584 57.9549 31.7766C58.0463 32.2948 58.0921 32.7554 58.0578 32.8014C57.9549 32.8936 54.5936 33.0202 51.4725 33.0317L48.8772 33.0433L48.74 31.9148C48.4542 29.5657 47.9855 27.919 47.1051 26.1917C46.7278 25.4432 46.3963 25.0287 45.3788 23.9923C44.3498 22.9675 43.9382 22.6336 43.1951 22.2536C40.8285 21.0329 38.1304 20.676 35.5123 21.2287C33.763 21.6087 31.6708 22.5645 31.4765 23.0711C31.4193 23.2208 31.3278 23.382 31.2592 23.4281C31.1792 23.4742 31.1678 23.4281 31.2135 23.2899C31.2821 23.1172 31.2592 23.1172 30.9963 23.3245C30.5847 23.6469 29.7615 24.6257 29.7615 24.7869C29.7615 24.8675 29.6358 25.0748 29.4757 25.2705L29.1899 25.616L29.43 25.1554L29.6701 24.6948L29.2585 25.1554C28.5382 25.9614 27.7151 27.8154 27.4178 29.3008C27.1777 30.5099 26.9033 34.1372 27.1206 33.1584C27.2006 32.8245 27.2235 32.9051 27.2349 33.619C27.2463 34.0911 27.2806 34.6093 27.3264 34.7705C27.3607 34.9317 27.3492 35.0239 27.3035 34.9778C27.2463 34.9317 27.132 34.9548 27.0405 35.0239C26.8576 35.1851 24.3195 35.1736 22.6846 35.0123C21.77 34.9202 21.1298 34.6439 21.1641 34.3675C21.1755 34.2984 21.5528 34.2178 22.0101 34.1833C23.1305 34.0796 23.7708 33.8954 23.9765 33.596C24.068 33.4693 24.3538 33.216 24.6168 33.0433C25.2113 32.6517 25.8058 31.8226 26.0573 31.0511C26.2974 30.3257 26.3317 29.1972 26.1259 28.9899C25.9316 28.7942 23.4163 28.7251 22.0101 28.8863C20.4209 29.059 20.2151 29.1972 19.6321 30.4639C19.1748 31.4542 18.969 31.7651 18.8203 31.6269C18.7289 31.5233 19.2434 29.6808 19.4949 29.2202C19.815 28.656 20.2266 28.4717 21.5414 28.3105C22.7418 28.1493 23.2105 27.9996 22.5589 27.9651L22.1587 27.942L22.616 27.8614C23.0619 27.7808 23.0619 27.7808 22.4445 27.7693C21.5985 27.7463 20.1237 28.0226 19.6778 28.2875C19.2205 28.5523 18.969 29.059 18.5688 30.4754L18.2487 31.6039L17.5284 31.6384L16.8082 31.6729L16.8882 31.2354C16.9225 30.9936 16.9911 30.2681 17.0254 29.6233L17.1054 28.4602L17.5399 28.2645C18.3745 27.8729 18.4431 27.7233 18.5803 25.9039C18.6374 25.0057 18.6603 24.096 18.626 23.8887C18.5345 23.4051 18.0772 23.0251 17.597 23.0251C16.8196 23.0251 16.8882 22.8293 17.8257 22.3572C21.7357 20.3766 30.4018 18.7414 43.2523 17.5669C46.785 17.2329 53.2788 16.8069 54.4336 16.8184C56.2285 16.8299 54.4564 17.0372 50.1463 17.3251C40.4169 17.9469 34.1632 18.6263 28.6183 19.6396C24.571 20.3766 19.7464 21.9081 19.5063 22.5184C19.4148 22.7717 19.9979 23.9117 20.3523 24.142C20.5924 24.3032 20.8325 24.3032 22.7532 24.1305C25.7372 23.8772 27.0748 23.6584 27.7837 23.3129C28.5382 22.9329 30.4475 21.1136 30.9277 20.3075C31.1335 19.962 31.3393 19.6857 31.385 19.6857C31.4307 19.6857 32.5626 19.536 33.9002 19.3402C38.4505 18.7069 42.9893 18.3039 50.5121 17.8432C56.2171 17.4978 57.9434 17.3251 58.9381 16.9681C59.1782 16.8875 59.3954 16.8645 59.4297 16.922C59.5326 17.0948 59.2239 17.6129 59.0181 17.6129C58.9038 17.6129 58.778 17.6705 58.7437 17.7396C58.5837 17.9929 58.8123 17.9699 59.3954 17.6705C59.9442 17.3826 60.15 17.3481 61.8306 17.256C64.5745 17.1178 69.1247 16.9336 73.6064 16.7954C75.8129 16.7263 78.9455 16.5996 80.5804 16.519C84.1703 16.3463 86.5826 16.3117 86.7884 16.4384ZM134.909 16.9911C135.344 17.0372 135.492 17.0948 135.446 17.2099C135.401 17.302 135.527 17.4402 135.732 17.5554C135.927 17.6475 136.087 17.7511 136.087 17.7742C136.087 17.7857 135.847 17.7626 135.549 17.7166C134.795 17.5899 134.349 17.5899 134.429 17.7166C134.463 17.7742 134.383 17.8548 134.257 17.9008C133.903 18.016 133.983 18.4075 134.463 18.8451C134.692 19.0754 134.783 19.202 134.646 19.1329C134.36 18.9832 133.457 18.0045 133.457 17.8548C133.457 17.6245 132.988 17.4632 132.725 17.6014C132.451 17.7396 130.713 17.8317 130.713 17.7051C130.713 17.659 130.805 17.5669 130.919 17.5093C131.102 17.3942 131.102 17.3942 130.919 17.3826C130.69 17.3826 130.645 17.2099 130.85 17.0833C131.239 16.8414 132.988 16.7954 134.909 16.9911ZM130.37 17.9008C130.839 18.6723 132.966 20.0657 134.143 20.3766C134.429 20.4572 135.252 20.5839 135.972 20.6645L137.287 20.8142L136.315 20.8487L135.344 20.8717L136.03 20.9523L136.716 21.0329L135.915 21.056C134.395 21.1136 135.515 21.2863 137.436 21.2863L139.299 21.2978L139.517 20.7796C139.642 20.4917 139.791 20.2614 139.86 20.2614C139.928 20.2614 140.077 20.4802 140.191 20.7451C140.317 21.0214 140.648 21.7584 140.934 22.3802C141.54 23.6814 141.529 23.716 140.546 23.7045C139.985 23.6814 139.962 23.6814 140.317 23.6008C140.854 23.4972 140.591 23.4051 139.459 23.3129C137.299 23.1402 136.121 22.7142 133.652 21.2057C132.325 20.3881 131.868 20.1693 132.428 20.6069C132.588 20.7336 132.657 20.8372 132.577 20.8372C132.508 20.8372 132.291 20.6529 132.108 20.4226C131.914 20.1923 131.708 20.0426 131.639 20.0772C131.571 20.1232 131.514 20.1002 131.514 20.0196C131.514 19.8354 131.171 19.4554 130.999 19.4554C130.931 19.4554 130.862 19.536 130.862 19.6396C130.862 19.8584 131.662 20.4687 133.343 21.5396C135.995 23.2323 137.299 23.6584 140.248 23.7966L141.712 23.8657L141.643 24.856C141.597 25.3972 141.46 26.4336 141.346 27.159C141.22 27.8729 141.117 28.8748 141.117 29.3699C141.117 29.8881 141.071 30.2796 141.003 30.2796C140.82 30.2796 140.568 29.796 140.42 29.1857C140.145 28.0226 140.088 28.0111 140.123 29.1166C140.145 30.1875 140.145 30.1875 140.546 30.5214L140.934 30.8554L140.431 31.3736C139.494 32.3408 139.357 32.0529 139.517 29.5311C139.654 27.2742 140.054 27.4699 135.401 27.5505C133.354 27.5966 130.347 27.7233 128.713 27.8614C127.078 27.9881 125.729 28.0917 125.717 28.0917C125.694 28.0917 125.683 28.0226 125.683 27.942C125.683 27.6657 124.757 25.8578 124.254 25.1554C123.168 23.6123 121.476 22.3342 119.418 21.5051L118.194 21.0099H115.565C112.97 21.0099 112.924 21.0099 112.021 21.3323C110.454 21.8966 108.671 22.8984 108.819 23.1402C108.854 23.1978 108.614 23.4626 108.282 23.7275C107.802 24.142 107.722 24.1766 107.836 23.9463C108.088 23.4396 106.796 24.8905 106.236 25.7542C105.321 27.182 104.658 29.0475 104.475 30.7748C104.429 31.2008 104.338 31.5808 104.269 31.6269C104.143 31.696 101.079 31.9033 101.011 31.8457C100.919 31.742 101.651 31.0396 101.983 30.8899C102.2 30.8093 102.417 30.6136 102.463 30.4754C102.806 29.6002 103 29.2087 103.149 29.0936C103.252 29.0129 103.64 28.4833 104.006 27.919C104.761 26.7675 106.762 24.0614 107.665 22.979C107.985 22.5875 108.328 22.1269 108.419 21.9426C108.511 21.7699 108.705 21.5742 108.842 21.5166C108.991 21.459 109.105 21.3323 109.105 21.2172C109.105 21.102 109.631 20.4111 110.26 19.6857C110.9 18.9602 111.495 18.2463 111.586 18.1081C111.701 17.9239 111.918 17.8432 112.341 17.7857C113.313 17.659 119.315 17.5323 124.905 17.5208L130.119 17.4978L130.37 17.9008ZM132.714 18.1887C132.886 18.2578 133.286 18.5457 133.617 18.822C133.937 19.1099 134.406 19.4439 134.658 19.5705C135.092 19.7893 135.092 19.8008 134.795 19.8008C134.338 19.8008 133.251 19.3287 132.325 18.7184C131.879 18.4305 131.514 18.1657 131.514 18.1311C131.514 18.0275 132.405 18.0736 132.714 18.1887ZM85.0735 19.5129C85.0964 19.536 85.0506 20.3075 84.982 21.2287C84.8906 22.2766 84.8563 24.2111 84.8906 26.399L84.9363 29.8881L83.6787 29.842C82.9813 29.8075 81.8494 29.8536 81.152 29.9342C80.4546 30.0033 79.1627 30.1069 78.2938 30.1414C77.2878 30.199 76.6932 30.2681 76.6704 30.3487C76.6018 30.5675 77.0705 30.5905 79.7801 30.5329C82.2267 30.4754 82.3868 30.4639 82.604 30.2336C82.7641 30.0608 82.8555 30.0378 82.8898 30.1299C82.9241 30.2105 83.0156 30.2796 83.1071 30.2796C83.21 30.2796 83.2442 30.222 83.21 30.1645C83.1642 30.0954 83.37 30.0493 83.7473 30.0608C84.1932 30.0608 84.2961 30.0954 84.1246 30.1645C83.9417 30.2451 83.9988 30.2681 84.3761 30.2681C84.9592 30.2796 85.0735 30.4408 85.165 31.3966C85.2221 31.9033 85.1993 32.099 85.0849 32.1911C84.9363 32.3063 82.604 32.4099 73.5721 32.6978C70.5653 32.7899 69.4791 32.9166 71.5028 32.9396C72.0973 32.9511 72.909 32.9972 73.3206 33.0433C73.9265 33.1123 73.7321 33.1239 72.3488 33.1354C69.9365 33.1699 65.7749 33.0087 66.5752 32.9166C66.9182 32.882 65.2947 32.8475 62.9624 32.836L58.7094 32.8129L58.5837 32.0875C58.3664 30.8439 58.3436 30.8899 59.2353 30.982C59.6584 31.0166 61.0646 31.0972 62.3565 31.1317C64.3458 31.2008 64.7231 31.1893 64.8489 31.0396C64.9517 30.9129 64.9517 30.8554 64.8489 30.7978C64.7803 30.7517 63.3969 30.6711 61.7849 30.6251C58.7209 30.5445 58.4007 30.4869 58.2864 30.0148C58.2293 29.7499 58.0006 27.2511 58.0349 27.2166C58.0463 27.2051 58.8238 27.136 59.7612 27.0784C60.9045 26.9978 61.4876 26.9057 61.5562 26.8136C61.762 26.4681 60.8931 25.4893 60.0128 25.0863C59.727 24.9596 59.2811 24.8675 58.8809 24.8675C57.9206 24.8675 57.4747 24.5796 58.0006 24.2917C58.3093 24.1305 59.9099 24.3263 60.5615 24.6257C60.8359 24.7408 61.5333 25.282 62.1278 25.8348C63.2483 26.8711 63.6255 27.0784 63.3283 26.5026C63.1339 26.1342 62.1621 25.1784 61.3961 24.6026C60.7902 24.1305 60.3786 23.9923 59.1439 23.8196C57.7262 23.6239 57.8405 23.7736 57.932 22.2881C57.9663 21.5857 58.0463 20.8487 58.0921 20.6645L58.1835 20.319L60.1271 20.2039C61.1903 20.1348 61.9563 20.0426 61.8306 20.0081C61.7048 19.962 62.1736 19.9505 62.8595 19.9851C63.5569 20.0081 65.9235 19.962 68.1186 19.8699C71.5028 19.7202 76.7847 19.5475 81.7808 19.4093C83.027 19.3748 85.0049 19.4323 85.0735 19.5129ZM30.3332 20.3651C30.1846 20.6645 30.1388 20.6645 29.5215 20.3881L29.0413 20.1693L29.6015 20.0887C29.9102 20.0426 30.2189 19.9966 30.276 19.9851C30.4475 19.939 30.4818 20.1117 30.3332 20.3651ZM133.114 21.0675C133.274 21.1942 133.354 21.2978 133.286 21.2978C133.229 21.2978 133.046 21.1942 132.886 21.0675C132.725 20.9408 132.657 20.8372 132.714 20.8372C132.783 20.8372 132.954 20.9408 133.114 21.0675ZM29.2471 21.3208C29.4186 21.4705 29.1556 21.8045 28.7783 21.9081C28.5954 21.9657 28.3096 22.0808 28.1381 22.1614L27.818 22.3226V21.7469C27.818 21.4245 27.8637 21.1942 27.9209 21.2287C27.978 21.2748 28.1495 21.2517 28.2981 21.1942C28.5725 21.079 29.0527 21.1481 29.2471 21.3208ZM118.252 21.6317C118.789 21.7699 119.806 22.1614 120.515 22.5069C121.224 22.8523 121.773 23.0826 121.739 23.0251C121.693 22.956 121.727 22.9099 121.784 22.9099C121.853 22.9099 121.91 22.979 121.91 23.0596C121.91 23.1402 122.219 23.5087 122.607 23.8887C124.299 25.5584 125.408 27.8154 125.797 30.3372C125.969 31.4196 126.014 34.2178 125.866 34.7129C125.786 35.0239 125.763 35.0354 125.683 34.8281C125.626 34.7014 125.58 33.999 125.58 33.2736C125.557 31.6499 125.397 30.0033 125.157 29.1396C124.174 25.5699 122.127 23.3705 118.629 22.1384C117.783 21.839 117.634 21.8275 115.622 21.816C113.175 21.816 112.627 21.9311 110.992 22.7257C109.208 23.5893 107.653 24.9826 106.819 26.4796C106.601 26.8596 106.304 27.3663 106.167 27.5851C106.018 27.8039 105.904 28.1148 105.904 28.2645C105.904 28.4257 105.858 28.5523 105.813 28.5523C105.755 28.5523 105.63 29.1511 105.515 29.8766C105.31 31.339 105.184 31.7766 104.978 31.7766C104.887 31.7766 104.875 31.5348 104.932 30.9245C104.978 30.3602 104.967 30.0493 104.887 29.9917C104.818 29.9572 104.761 29.8075 104.761 29.6693C104.761 29.4851 104.795 29.462 104.864 29.5657C104.921 29.6693 104.989 29.5196 105.035 29.1281C105.081 28.8057 105.161 28.5754 105.218 28.6099C105.275 28.6445 105.298 28.5984 105.264 28.5063C105.23 28.4142 105.298 28.1839 105.424 28.0111C105.813 27.4469 106.361 26.2723 106.304 26.1111C106.27 26.019 106.43 25.7426 106.647 25.5008C106.876 25.2475 107.025 25.1323 106.979 25.236C106.944 25.3626 106.967 25.4432 107.036 25.4432C107.105 25.4432 107.162 25.3857 107.162 25.3166C107.162 25.1784 109.643 22.6796 109.711 22.7487C109.734 22.7717 110.226 22.5875 110.797 22.3342C111.758 21.9196 113.084 21.5166 113.964 21.3784C114.822 21.2402 117.291 21.3899 118.252 21.6317ZM27.4178 22.1039C27.4178 22.8063 27.3149 22.9099 26.366 23.1172L25.8858 23.2323L26.2402 22.576C26.8462 21.459 26.9033 21.4014 27.1663 21.436C27.395 21.4705 27.4178 21.5396 27.4178 22.1039ZM40.6685 21.7469C41.1601 21.8736 42.0518 22.219 42.6463 22.5069C43.2523 22.7948 43.7667 23.0251 43.801 23.0251C43.8239 23.0251 43.7896 22.9329 43.6981 22.8178C43.6181 22.7142 43.801 22.8754 44.0983 23.1978C44.3955 23.5087 44.6128 23.6814 44.5785 23.5663C44.5213 23.3705 44.5327 23.3705 44.83 23.5893C45.0129 23.716 45.2301 23.9117 45.3216 24.0154C45.4588 24.1881 45.4359 24.1881 45.1387 24.0039L44.7957 23.7851L45.1273 24.1536C45.3216 24.3608 45.5274 24.522 45.596 24.522C45.676 24.522 45.8246 24.6372 45.9504 24.7754C46.1219 24.9942 46.1333 25.0057 45.9733 24.879C45.8475 24.7869 45.7675 24.7754 45.7675 24.8445C45.7675 25.0172 46.099 25.3281 46.282 25.3281C46.3734 25.3281 46.4192 25.3972 46.3849 25.4893C46.3506 25.5814 46.5106 26.019 46.7393 26.4681C46.9565 26.9287 47.2995 27.7463 47.4824 28.299C48.0998 30.176 48.5685 32.8129 48.3056 32.9742C48.1112 33.0893 48.0541 32.9166 47.7682 31.1778C47.4481 29.2663 47.1509 28.2299 46.6021 27.1129C45.333 24.5796 43.2751 22.8523 40.7027 22.1729C39.0679 21.7469 36.1525 21.8505 34.5633 22.3917C32.1053 23.2323 30.2417 24.8329 29.1327 27.0554C28.3439 28.6445 28.0466 30.0493 27.9437 32.836C27.898 34.022 27.8294 35.0239 27.7951 35.0699C27.5664 35.3002 27.475 34.8742 27.475 33.5269C27.475 30.2911 28.0466 27.8614 29.2471 25.9729C29.6701 25.3051 31.7623 23.002 31.8538 23.1057C31.888 23.1287 32.231 22.9675 32.6312 22.7487C33.5229 22.2651 34.8148 21.816 36.0153 21.5857C37.2386 21.3554 39.468 21.436 40.6685 21.7469ZM24.8226 21.7123C24.9598 21.8045 25.0741 22.0117 25.0741 22.1729C25.0741 22.4032 25.0169 22.4493 24.7082 22.4493C24.5025 22.4493 24.2166 22.4839 24.0794 22.5184C23.8393 22.5875 23.8165 22.5529 23.8165 22.196C23.8165 21.5511 24.2738 21.3208 24.8226 21.7123ZM23.1076 22.8754C23.0733 23.382 23.0505 23.4166 22.6732 23.5202C22.033 23.6929 21.0497 23.5432 20.8097 23.2439C20.6953 23.1057 20.6267 22.9329 20.6496 22.8639C20.6725 22.7948 21.1984 22.576 21.8272 22.3802C23.1191 21.9772 23.1648 22.0002 23.1076 22.8754ZM40.1654 23.2669C42.7035 23.9463 45.0015 26.2263 45.8704 28.9093C46.4992 30.8669 46.3391 33.2736 45.4588 35.0584C44.6928 36.5784 43.2065 38.1675 41.8117 38.9505L41.0457 39.3766H37.8445H34.6434L33.8888 38.9505C32.9856 38.4554 31.3507 36.8548 30.7333 35.876C29.8416 34.4596 29.3271 32.4329 29.4643 30.8093C29.7387 27.4699 32.0024 24.522 35.1121 23.4281C36.6784 22.8754 38.4848 22.8178 40.1654 23.2669ZM116.811 23.3705C118.354 23.6008 119.818 24.3839 121.121 25.6736C122.104 26.6639 122.79 27.7463 123.248 29.0705C123.522 29.8881 123.556 30.1529 123.568 31.4887C123.568 33.596 123.133 35.0469 122.047 36.5208C121.144 37.7529 119.452 39.0772 118.4 39.3651C118.149 39.4342 116.754 39.4917 115.153 39.4917H112.341L111.552 39.0542C110.5 38.4899 108.614 36.6014 108.111 35.6342C107.367 34.1717 106.99 32.3754 107.127 30.9014C107.299 28.9554 108.282 26.9517 109.757 25.5469C111.701 23.6699 114.01 22.9675 116.811 23.3705ZM30.8934 23.739C30.8705 23.762 30.699 23.9002 30.5047 24.0614L30.1617 24.3493L30.4932 23.9808C30.6762 23.7736 30.8591 23.6239 30.882 23.6584C30.9163 23.6929 30.9163 23.7275 30.8934 23.739ZM17.2083 24.096C17.3226 24.1305 17.437 24.119 17.4713 24.0614C17.517 23.9923 17.6199 23.9463 17.6999 23.9463C17.8371 23.9463 17.8371 24.0039 17.7457 24.2572C17.5627 24.7408 17.5513 26.3529 17.7342 26.4681C17.8143 26.5142 17.8486 26.6293 17.8143 26.7329C17.78 26.8251 17.8257 26.9748 17.9172 27.0554C18.1687 27.2511 18.0429 27.4008 17.6085 27.4008L17.2426 27.4123L17.5284 27.5736C17.7914 27.7117 17.7914 27.7348 17.6085 27.8154C17.3112 27.9305 17.2312 27.8039 16.9682 26.8366C16.7967 26.2032 16.7624 25.9499 16.8653 25.8923C17.0254 25.7887 17.0368 25.2705 16.9225 24.4069C16.8653 24.0614 16.8653 23.8311 16.9225 23.9002C16.9682 23.9693 17.1054 24.0499 17.2083 24.096ZM18.2144 25.282C18.2144 26.779 18.0543 27.1475 17.9629 25.8808C17.9057 25.236 18.0543 23.8311 18.1687 23.8311C18.1915 23.8311 18.2144 24.4875 18.2144 25.282ZM44.6814 24.7523C44.7957 24.879 44.8643 24.9826 44.83 24.9826C44.7957 24.9826 44.6814 24.879 44.567 24.7523C44.4527 24.6257 44.3841 24.522 44.4184 24.522C44.4527 24.522 44.567 24.6257 44.6814 24.7523ZM54.9709 25.282C54.3421 25.3742 53.5532 25.4202 53.2331 25.3857C52.8444 25.3396 52.6272 25.3511 52.6272 25.4317C52.6272 25.5584 51.9183 25.5239 51.5639 25.3857C51.0723 25.1784 51.7583 25.0978 53.8848 25.1093L56.1142 25.1208L54.9709 25.282ZM57.3146 25.4317C57.3146 25.4893 57.3489 25.7081 57.3832 25.9154L57.4633 26.3069L57.1317 26.0075C56.9488 25.8463 56.6744 25.6275 56.5143 25.5239L56.2399 25.3281H56.7773C57.0745 25.3281 57.3146 25.3742 57.3146 25.4317ZM59.8298 25.5929C60.0471 25.7081 60.4358 25.9845 60.6873 26.2032L61.1446 26.6063L59.6812 26.5717C58.3779 26.5372 58.195 26.5142 58.0463 26.3184C57.8748 26.0766 57.8291 25.5354 57.9777 25.3972C58.1149 25.2475 59.4068 25.3857 59.8298 25.5929ZM56.1828 25.996L56.6858 26.2148L55.9084 26.3069C54.7079 26.4451 53.0959 26.3299 52.6272 26.0766C52.2613 25.8923 52.2499 25.8578 52.4557 25.7657C52.5814 25.7196 53.3589 25.6966 54.182 25.7196C55.3482 25.7542 55.7941 25.8232 56.1828 25.996ZM56.823 26.7675C56.9716 26.9287 56.823 26.9402 55.3596 26.9172C54.182 26.8942 53.7133 26.8481 53.679 26.7329C53.6104 26.5026 56.5829 26.5372 56.823 26.7675ZM57.4747 27.4354C57.509 27.5736 57.5661 28.2529 57.6119 28.9323L57.6919 30.1875L57.0174 29.842C56.6515 29.6578 55.7826 29.1281 55.0967 28.6675C54.4107 28.2184 53.6447 27.7117 53.3817 27.5505L52.913 27.2511L53.256 27.6426L53.599 28.0342L53.2331 27.7002C53.0273 27.5045 52.8558 27.3202 52.8558 27.2742C52.8558 27.1475 53.8733 27.1014 55.7941 27.1475C57.3489 27.182 57.4061 27.1936 57.4747 27.4354ZM138.705 27.9651C139.162 28.0572 139.391 28.2299 139.402 28.4833C139.402 28.5293 139.231 28.5408 139.036 28.5063C137.756 28.2529 134.44 28.3681 134.075 28.679C133.834 28.8863 133.88 29.8996 134.155 30.4754C134.726 31.6614 136.064 32.6978 137.356 32.9742C137.996 33.1008 138.042 33.1354 137.744 33.1929C137.562 33.2275 137.07 33.2966 136.658 33.3311C135.664 33.4348 132.6 33.8723 129.456 34.379C128.038 34.6093 126.792 34.7936 126.678 34.8051C126.483 34.8281 126.46 34.6899 126.426 32.9281C126.403 31.8802 126.323 30.6942 126.255 30.2796C126.197 29.8651 126.106 29.3239 126.072 29.059L126.003 28.5869L126.552 28.5178C127.455 28.4026 131.639 28.0917 133.686 27.9881C136.281 27.8614 138.11 27.8499 138.705 27.9651ZM103 28.7596C102.794 28.9439 102.794 28.9439 102.932 28.6905C103 28.5408 103.092 28.4487 103.137 28.4833C103.172 28.5293 103.114 28.6445 103 28.7596ZM25.4056 29.3929C25.2456 29.5081 25.097 29.8305 25.0055 30.1875C24.9941 30.2451 24.9826 30.3026 24.9712 30.3372C24.9712 30.3717 24.9598 30.4293 24.9483 30.4754C24.9483 30.5329 24.8912 30.6366 24.8226 30.7057C24.7425 30.8093 24.754 30.9129 24.8569 31.0511C25.0627 31.2929 25.0055 31.5923 24.6511 32.1451C24.3996 32.5251 24.2395 32.6517 24.1366 32.5596C24.1137 32.5366 23.9194 32.6402 23.6907 32.7899C23.4049 32.9626 23.0962 33.0433 22.7075 33.0433C21.7814 33.0433 21.427 32.9281 20.9354 32.4445C20.6839 32.2026 20.3066 31.9608 20.1123 31.9148L19.7578 31.8457L20.1008 31.7766C20.3866 31.7305 20.5124 31.5808 20.8554 30.9245C21.084 30.4869 21.3927 30.0378 21.5414 29.9226C21.8843 29.6578 22.6618 29.4851 24.0451 29.3699C25.6915 29.2317 25.6229 29.2317 25.4056 29.3929ZM140.546 30.2105C140.534 30.4293 140.214 29.7729 140.214 29.5311C140.214 29.3699 140.26 29.416 140.374 29.6923C140.465 29.8996 140.546 30.1299 140.546 30.2105ZM20.924 29.9572C20.7754 30.1645 20.5353 30.579 20.4095 30.8784C20.2723 31.1893 20.1123 31.4311 20.0551 31.4311C19.6778 31.4311 20.318 29.9226 20.8097 29.6693C21.2441 29.439 21.267 29.4966 20.924 29.9572ZM101.788 29.6808C101.788 29.8305 100.999 30.9475 100.554 31.4311C100.245 31.742 100.005 31.8917 99.7761 31.9033C99.5817 31.9148 99.5246 31.9378 99.6503 31.9723C99.7532 31.9954 99.8447 32.076 99.8447 32.1451C99.8447 32.2257 99.7304 32.2257 99.536 32.1681C99.113 32.0299 94.5056 32.0645 90.0696 32.2257C88.1261 32.2948 86.3768 32.3063 86.1825 32.2602C85.8166 32.1566 85.748 31.9608 85.6451 30.7633L85.588 30.1645H86.5712C87.1085 30.1645 89.0178 30.0839 90.8128 29.9917C97.7639 29.6117 101.788 29.4966 101.788 29.6808ZM19.6892 32.7439C20.1808 33.239 20.4895 33.4463 20.8097 33.5039C21.1869 33.5845 21.1298 33.596 20.3866 33.6305C19.8264 33.642 19.6892 33.6766 19.9865 33.6996C20.238 33.7342 20.501 33.8033 20.5581 33.8723C20.6382 33.9529 20.2723 33.976 19.3806 33.9414C17.8829 33.8839 17.6885 33.7802 17.094 32.8014C16.6367 32.0414 16.6938 31.9954 18.0658 32.0414L19.0033 32.0645L19.6892 32.7439ZM104.303 33.9645V35.8069L86.8456 35.8184C63.0653 35.8414 49.426 35.8069 49.0716 35.7378L48.7858 35.6802L48.8315 34.6208C48.8543 34.0336 48.8886 33.5499 48.9001 33.5384C48.9115 33.5269 50.9466 33.4808 53.4275 33.4348C57.3489 33.3657 57.9892 33.3772 58.2864 33.5269C58.4808 33.619 58.961 33.7342 59.3725 33.7802C60.733 33.9069 75.6071 33.6305 89.2693 33.216C97.5353 32.9626 99.2502 32.859 100.245 32.5826C100.702 32.456 101.708 32.3063 102.486 32.2487C103.263 32.2026 103.995 32.1451 104.109 32.1336C104.281 32.122 104.303 32.2833 104.303 33.9645ZM20.6039 32.6978L20.9011 33.1008L20.6267 32.9166C20.4667 32.8245 20.2609 32.6172 20.1694 32.4675C19.8836 32.0299 20.2494 32.2372 20.6039 32.6978ZM105.172 32.6402C105.264 33.1469 105.184 35.7608 105.081 35.876C105.024 35.922 104.955 35.922 104.909 35.876C104.795 35.7723 104.715 32.8936 104.807 32.5136C104.909 32.1105 105.081 32.1796 105.172 32.6402ZM48.3742 34.4481C48.4085 35.3578 48.2598 35.9681 48.0198 35.8875C47.9169 35.8529 47.894 35.5766 47.9169 34.8742C47.9626 33.7572 48.0198 33.4693 48.2027 33.5384C48.2827 33.5614 48.3513 33.9184 48.3742 34.4481ZM35.5923 39.722C35.5923 39.7796 35.5351 39.8372 35.4665 39.8372C35.4094 39.8372 35.3865 39.7796 35.4208 39.722C35.4551 39.6529 35.5123 39.6069 35.5466 39.6069C35.5694 39.6069 35.5923 39.6529 35.5923 39.722ZM40.3369 39.8372C40.3712 39.8948 40.3598 39.9523 40.2912 39.9523C40.234 39.9523 40.1425 39.8948 40.1082 39.8372C40.0739 39.7681 40.0854 39.722 40.154 39.722C40.2111 39.722 40.3026 39.7681 40.3369 39.8372Z" fill="white"/>
<path d="M19.0147 23.2898C19.0147 23.4971 19.6092 24.3953 19.9751 24.7407L20.2723 25.0171L24.6625 24.8328C28.927 24.6371 29.4186 24.6025 29.4186 24.4068C29.4186 24.211 28.9956 24.1765 27.8294 24.2571C26.709 24.3377 26.6633 24.3492 27.2463 24.4183C27.8065 24.4759 27.7722 24.4874 26.8805 24.4989C26.3431 24.5104 25.8744 24.4759 25.8515 24.4183C25.8287 24.3492 24.834 24.3607 23.302 24.4528C21.7586 24.545 20.9469 24.6256 21.1869 24.6716C21.4042 24.7177 21.7129 24.7753 21.8729 24.7983C22.033 24.8328 21.7357 24.8328 21.2098 24.8213C20.6839 24.7983 20.2037 24.7292 20.1351 24.6601C20.0322 24.5565 20.0322 24.5219 20.1466 24.5219C20.2266 24.5219 20.0665 24.211 19.8036 23.831C19.3577 23.1747 19.0147 22.9559 19.0147 23.2898Z" fill="white"/>
<path d="M47.5967 24.061C47.2995 24.1186 47.4938 24.1531 48.3399 24.1877L49.4832 24.2222L48.5685 24.2913L47.6539 24.3604L48.9115 24.3719C49.9748 24.3834 51.7354 24.2337 51.1066 24.1877C50.9923 24.1877 50.9351 24.1186 50.9694 24.061C51.0494 23.9228 48.2255 23.9228 47.5967 24.061Z" fill="white"/>
<path d="M23.7593 27.7461C23.5535 27.8383 23.5535 27.8498 23.7365 27.8498C23.8508 27.8613 23.9079 27.9074 23.8736 27.9764C23.7936 28.1146 25.5085 28.1146 26.6747 27.9764L27.4178 27.8958L26.3317 27.8613L25.2456 27.8267L25.9887 27.7461C26.6175 27.677 26.5146 27.6655 25.3599 27.654C24.6053 27.654 23.8851 27.6886 23.7593 27.7461Z" fill="white"/>
<path d="M139.745 29.1856C139.745 29.7499 139.768 30.1759 139.791 30.1529C139.871 30.0723 139.906 28.322 139.826 28.2414C139.78 28.2069 139.745 28.6214 139.745 29.1856Z" fill="white"/>
<path d="M71.7771 30.406C70.2108 30.4636 68.2215 30.5557 67.3755 30.6133L65.8321 30.7054L67.0325 30.74L68.233 30.786L67.3183 30.8551C66.4723 30.9242 66.5066 30.9242 67.9014 30.9472C69.8335 30.9818 72.8747 30.8436 72.8061 30.74C72.7146 30.5903 73.2405 30.5097 74.2923 30.5327C75.2298 30.5442 75.2641 30.5557 74.6925 30.6248C74.1323 30.6939 74.1894 30.7054 75.1498 30.7169C76.1902 30.74 76.6818 30.6248 76.476 30.429C76.3503 30.2909 75.0126 30.2909 71.7771 30.406Z" fill="white"/>
<path d="M28.4468 21.5278C28.321 21.7235 28.5039 21.8963 28.6869 21.7466C28.7669 21.6775 28.8126 21.5738 28.7783 21.5163C28.6983 21.3781 28.5382 21.3896 28.4468 21.5278Z" fill="white"/>
<path d="M106.419 25.9154C106.373 25.9845 106.361 26.0536 106.396 26.0881C106.419 26.1226 106.476 26.0651 106.51 25.9614C106.59 25.7657 106.521 25.7311 106.419 25.9154Z" fill="white"/>
<path d="M24.2738 22.046C24.2738 22.1611 24.3538 22.2187 24.4796 22.1957C24.7197 22.1496 24.6968 21.9423 24.4567 21.8963C24.3424 21.8733 24.2738 21.9308 24.2738 22.046Z" fill="white"/>
<path d="M36.8385 24.0611C35.9924 24.1993 34.8606 24.5793 34.2318 24.9478C33.5001 25.3739 32.1053 26.7672 31.6594 27.5042C31.4422 27.8611 31.122 28.5636 30.9506 29.0702C30.6762 29.8648 30.6304 30.1642 30.6304 31.3157C30.6304 32.8242 30.8019 33.5611 31.4422 34.7933C32.3797 36.6011 34.0031 37.9369 35.9696 38.5126C36.7584 38.743 38.4619 38.766 39.4451 38.5702C41.9832 38.0405 44.2926 35.7605 44.8986 33.1581C45.1272 32.2023 45.1272 30.429 44.91 29.4848C44.4641 27.5963 42.8978 25.6733 41.08 24.7866C39.6738 24.0957 38.199 23.8539 36.8385 24.0611ZM41.1143 25.443C41.2401 25.5581 41.0114 26.0187 40.8285 26.0187C40.6684 26.0187 39.7081 25.0514 39.7081 24.8902C39.7081 24.7751 40.92 25.2472 41.1143 25.443ZM35.7752 25.2702C35.6952 25.5005 34.8263 26.0533 34.6891 25.9611C34.6205 25.9266 34.5633 25.7884 34.5633 25.6617C34.5633 25.5005 34.7348 25.3508 35.1693 25.1551C35.7409 24.8787 35.9124 24.9133 35.7752 25.2702ZM39.468 25.109C39.2851 25.2242 39.205 25.1551 39.3079 24.9939C39.3422 24.9248 39.4337 24.9017 39.5023 24.9363C39.5709 24.9823 39.5595 25.0399 39.468 25.109ZM38.9878 25.7539C38.9535 25.869 38.9307 25.7999 38.9307 25.6157C38.9307 25.4199 38.9535 25.3393 38.9878 25.4084C39.0107 25.489 39.0107 25.6502 38.9878 25.7539ZM41.8803 26.0187C41.8803 26.0763 41.8575 26.1339 41.8346 26.1339C41.8003 26.1339 41.7431 26.0763 41.7088 26.0187C41.6745 25.9496 41.6974 25.9036 41.7546 25.9036C41.8232 25.9036 41.8803 25.9496 41.8803 26.0187ZM40.657 26.4678C40.7027 26.5139 40.4398 26.9745 40.0625 27.4811C39.3079 28.5175 39.1021 28.7133 39.1822 28.2987C39.5366 26.5945 39.6281 26.1799 39.6738 26.1108C39.7195 26.0187 40.4855 26.3066 40.657 26.4678ZM34.6662 26.7557C34.8377 26.963 34.8377 26.963 34.5976 26.8363C34.3118 26.6866 34.0717 26.3181 34.186 26.203C34.2318 26.1569 34.3118 26.2145 34.369 26.3296C34.4376 26.4448 34.5633 26.6405 34.6662 26.7557ZM36.1525 26.3872C36.2897 26.7902 36.5526 28.4369 36.484 28.506C36.3926 28.5866 35.135 26.8363 35.135 26.6405C35.135 26.4793 35.6494 26.1454 35.9124 26.1339C35.9924 26.1339 36.0953 26.249 36.1525 26.3872ZM33.763 26.7326C33.763 26.8708 33.0656 27.4005 32.7798 27.4696C32.2996 27.5963 32.3225 27.4236 32.837 26.8939C33.2714 26.4563 33.3629 26.3987 33.5458 26.5139C33.6716 26.5945 33.763 26.6866 33.763 26.7326ZM41.5373 26.3987C41.5373 26.4217 41.423 26.5369 41.2858 26.6636L41.0229 26.8823L41.2401 26.6175C41.4459 26.3757 41.5373 26.3066 41.5373 26.3987ZM42.9093 26.8939C43.1722 27.1817 43.3552 27.4466 43.3209 27.4811C43.1951 27.6078 42.6692 27.389 42.2805 27.0436C41.9032 26.7096 41.8918 26.6751 42.0747 26.5254C42.3605 26.3066 42.3719 26.3066 42.9093 26.8939ZM35.0206 28.2642C35.3865 28.8284 35.6837 29.3005 35.6609 29.3236C35.638 29.3581 33.5801 28.149 33.4315 28.0223C33.3514 27.9533 34.1403 27.1587 34.2432 27.1933C34.3004 27.2163 34.6434 27.6884 35.0206 28.2642ZM42.2233 27.9763C42.2233 28.0569 41.2058 28.7017 39.9024 29.4387C39.7653 29.5193 40.9428 27.8611 41.2972 27.4811L41.5945 27.1587L41.9032 27.5157C42.0861 27.6999 42.2233 27.9072 42.2233 27.9763ZM43.4809 27.9187C43.4809 28.0223 43.4123 28.0569 43.3094 28.0223C43.218 27.9763 43.1379 27.9072 43.1379 27.8496C43.1379 27.792 43.218 27.746 43.3094 27.746C43.4009 27.746 43.4809 27.8266 43.4809 27.9187ZM37.593 28.2066C37.5587 28.2642 37.4673 28.3217 37.4101 28.3217C37.3415 28.3217 37.3301 28.2642 37.3644 28.2066C37.3987 28.1375 37.4901 28.0914 37.5473 28.0914C37.6159 28.0914 37.6273 28.1375 37.593 28.2066ZM43.0808 28.552C43.0465 28.6096 42.9207 28.6672 42.8178 28.6672C42.6463 28.6672 42.6463 28.6442 42.7949 28.552C43.0236 28.4023 43.1722 28.4023 43.0808 28.552ZM39.9482 28.7478C40.0968 28.932 40.0854 28.9436 39.9139 28.7939C39.7995 28.7133 39.7081 28.6211 39.7081 28.5981C39.7081 28.506 39.7995 28.5636 39.9482 28.7478ZM33.4886 28.8514C33.6944 29.0126 33.6944 29.0126 33.42 28.886C33.0656 28.7248 33.0085 28.6672 33.1457 28.6672C33.2142 28.6672 33.3629 28.7478 33.4886 28.8514ZM32.5054 28.8975C32.5054 28.9551 32.4597 29.0126 32.3911 29.0126C32.3339 29.0126 32.2768 28.9551 32.2768 28.8975C32.2768 28.8284 32.3339 28.7823 32.3911 28.7823C32.4597 28.7823 32.5054 28.8284 32.5054 28.8975ZM36.6212 29.3581C36.3926 29.5078 36.2439 29.5078 36.3354 29.3581C36.3697 29.289 36.4955 29.243 36.5984 29.243C36.7699 29.243 36.7699 29.266 36.6212 29.3581ZM37.4215 29.7151C37.4215 29.7842 37.3758 29.7957 37.3072 29.7611C37.25 29.7266 37.1929 29.6345 37.1929 29.5769C37.1929 29.5078 37.25 29.4963 37.3072 29.5308C37.3758 29.5654 37.4215 29.6575 37.4215 29.7151ZM36.3811 30.3254C36.4955 30.4636 36.4726 30.4751 36.2897 30.429C36.1525 30.3945 36.0839 30.3254 36.1182 30.2678C36.1982 30.1296 36.2325 30.1411 36.3811 30.3254ZM41.3201 30.7054C41.4687 30.8896 41.4573 30.9011 41.2858 30.7514C41.0915 30.6017 41.0343 30.5096 41.1258 30.5096C41.1486 30.5096 41.2401 30.6017 41.3201 30.7054ZM32.7912 30.7399C32.997 30.832 32.997 30.8436 32.7341 30.8436C32.574 30.8436 32.3682 30.7975 32.2768 30.7399C32.1396 30.6478 32.1396 30.6248 32.3339 30.6363C32.4597 30.6363 32.6655 30.6823 32.7912 30.7399ZM34.5633 30.7399C34.5633 30.7975 34.4719 30.8551 34.369 30.8551C34.1975 30.8551 34.186 30.832 34.3347 30.7399C34.5519 30.6017 34.5633 30.6017 34.5633 30.7399ZM39.7195 30.8205C39.8681 31.0048 39.8567 31.0163 39.6852 30.8666C39.5709 30.786 39.4794 30.6939 39.4794 30.6708C39.4794 30.5787 39.5709 30.6363 39.7195 30.8205ZM43.4238 30.7399C43.3895 30.7975 43.218 30.8551 43.0465 30.8436L42.7378 30.832L43.0236 30.7399C43.4238 30.6133 43.5038 30.6133 43.4238 30.7399ZM31.6594 31.7878C31.7508 31.972 31.8194 32.2714 31.8194 32.4672C31.8194 32.732 31.7737 32.8126 31.5908 32.8126C31.2821 32.8126 31.1335 32.4787 31.1335 31.7648C31.1335 31.2351 31.1563 31.189 31.3164 31.3272C31.4079 31.4078 31.5679 31.6151 31.6594 31.7878ZM31.7623 31.3157C31.7966 31.3733 31.7851 31.4308 31.7165 31.4308C31.6594 31.4308 31.5679 31.3733 31.5336 31.3157C31.4993 31.2466 31.5108 31.2005 31.5794 31.2005C31.6365 31.2005 31.728 31.2466 31.7623 31.3157ZM44.407 32.732C44.2355 32.9048 43.9382 32.732 43.9382 32.4442C43.9382 32.2945 44.0526 31.949 44.2012 31.6611L44.4527 31.143L44.487 31.8799C44.5099 32.283 44.4756 32.663 44.407 32.732ZM43.4809 31.7417C43.4809 32.2714 43.3552 32.5823 43.1494 32.5823C43.0465 32.5823 42.4405 32.4096 41.8232 32.1908L40.6799 31.8108L41.1944 31.7302C42.1661 31.5805 43.0808 31.4539 43.2866 31.4423C43.4238 31.4308 43.4809 31.5114 43.4809 31.7417ZM34.5633 31.7533C34.7462 31.8223 34.529 31.9375 33.6258 32.2714C32.9856 32.5017 32.4482 32.6745 32.414 32.6399C32.3911 32.6169 32.3339 32.352 32.2996 32.0526L32.2425 31.5114L33.2943 31.592C33.8659 31.6381 34.4376 31.7072 34.5633 31.7533ZM34.3347 33.6763C33.8659 34.1599 33.4086 34.5284 33.3171 34.5169C33.1342 34.4708 32.654 33.6648 32.7569 33.5611C32.8255 33.4805 34.872 32.8357 35.0778 32.8242C35.135 32.8126 34.8034 33.2042 34.3347 33.6763ZM39.2279 33.043C39.1479 33.1696 39.0221 33.2733 38.9421 33.2733C38.7363 33.2733 38.7592 33.1581 38.9993 32.9739C39.2851 32.7436 39.388 32.7781 39.2279 33.043ZM41.9146 33.2042C42.5892 33.4114 42.9093 33.5611 42.9093 33.6878C42.9093 33.9526 42.5777 34.5399 42.4291 34.5399C42.2919 34.5399 41.1715 33.5151 40.7942 33.0545C40.6341 32.8587 40.6227 32.7896 40.737 32.8357C40.8285 32.8702 41.3544 33.0314 41.9146 33.2042ZM40.2912 33.1236C40.4398 33.3078 40.4284 33.3193 40.2569 33.1696C40.1425 33.089 40.0511 32.9969 40.0511 32.9739C40.0511 32.8817 40.1425 32.9393 40.2912 33.1236ZM32.2768 33.2733C32.2768 33.4114 32.0824 33.4114 31.7623 33.2733C31.5679 33.1926 31.5908 33.1696 31.9109 33.1696C32.1053 33.1581 32.2768 33.2042 32.2768 33.2733ZM43.8239 33.5266C43.8239 33.5957 43.7439 33.5842 43.6524 33.5036C43.5609 33.423 43.4809 33.3078 43.4809 33.2502C43.4809 33.1811 43.5609 33.1926 43.6524 33.2733C43.7439 33.3539 43.8239 33.469 43.8239 33.5266ZM40.4512 33.9642C40.5655 34.0908 40.6341 34.1945 40.5998 34.1945C40.5655 34.1945 40.4512 34.0908 40.3369 33.9642C40.2226 33.8375 40.154 33.7339 40.1883 33.7339C40.2226 33.7339 40.3369 33.8375 40.4512 33.9642ZM32.3911 34.3326C32.6426 34.7587 32.6998 35.392 32.4825 35.323C32.4025 35.2884 32.1967 35.0236 32.0024 34.7242C31.7394 34.2751 31.7051 34.1484 31.8309 34.0678C32.0824 33.9066 32.151 33.9411 32.3911 34.3326ZM39.8224 34.1369C39.7424 34.229 39.6281 34.2751 39.5595 34.229C39.4909 34.183 39.5252 34.1254 39.6624 34.0678C39.971 33.9411 39.9825 33.9411 39.8224 34.1369ZM41.4344 34.1599C41.5831 34.3442 41.5716 34.3557 41.4001 34.206C41.2858 34.1254 41.1944 34.0333 41.1944 34.0102C41.1944 33.9181 41.2858 33.9757 41.4344 34.1599ZM44.0526 34.0448C44.0526 34.229 43.3552 35.346 43.2523 35.346C43.0465 35.346 43.1379 34.5745 43.378 34.2636C43.5952 33.9872 44.0526 33.8375 44.0526 34.0448ZM41.423 34.5514C41.423 34.6205 41.3773 34.632 41.3087 34.5975C41.2515 34.563 41.1944 34.4708 41.1944 34.4133C41.1944 34.3442 41.2515 34.3326 41.3087 34.3672C41.3773 34.4017 41.423 34.4939 41.423 34.5514ZM34.5633 34.4593C34.5633 34.4823 34.369 34.6781 34.1403 34.8969L33.7059 35.2884L34.0946 34.8508C34.4719 34.4593 34.5633 34.3672 34.5633 34.4593ZM39.4108 36.8314C39.3537 36.889 39.0907 36.9696 38.8278 37.0157L38.3361 37.0963L38.3476 35.726V34.3672L38.9307 35.5533C39.2736 36.2557 39.468 36.7739 39.4108 36.8314ZM40.5084 34.4593C40.5084 34.4823 40.3941 34.5975 40.2569 34.7242L39.9939 34.943L40.2111 34.6781C40.4169 34.4363 40.5084 34.3672 40.5084 34.4593ZM37.4101 36.486L37.4215 37.0963L36.9985 37.0157C36.1982 36.8775 36.1868 36.7623 36.747 35.5648L37.25 34.4939L37.3186 35.1848C37.3644 35.5533 37.3987 36.1405 37.4101 36.486ZM34.792 34.7702C34.792 34.8278 34.7462 34.8854 34.6776 34.8854C34.6205 34.8854 34.5633 34.8278 34.5633 34.7702C34.5633 34.7011 34.6205 34.6551 34.6776 34.6551C34.7462 34.6551 34.792 34.7011 34.792 34.7702ZM37.7302 35.0811C37.6959 35.1963 37.673 35.1272 37.673 34.943C37.673 34.7472 37.6959 34.6666 37.7302 34.7357C37.7531 34.8163 37.7531 34.9775 37.7302 35.0811ZM42.3376 35.749C42.3262 35.8757 42.0289 35.5187 41.8689 35.1733C41.8003 35.0466 41.8803 35.0926 42.0404 35.2884C42.2004 35.4726 42.3376 35.6799 42.3376 35.749ZM32.9284 35.5993C32.8941 35.6799 32.8713 35.6223 32.8713 35.4611C32.8713 35.2999 32.8941 35.2423 32.9284 35.3114C32.9513 35.392 32.9513 35.5302 32.9284 35.5993ZM34.9635 35.5763C34.9978 35.6339 34.9749 35.6914 34.9177 35.6914C34.8491 35.6914 34.792 35.6339 34.792 35.5763C34.792 35.5072 34.8148 35.4611 34.8377 35.4611C34.872 35.4611 34.9292 35.5072 34.9635 35.5763ZM37.936 36.3017C37.9817 36.5205 37.9589 36.866 37.9017 37.0848C37.7874 37.4648 37.7874 37.4533 37.7759 36.8199C37.7645 36.463 37.7302 36.083 37.6845 35.9678C37.6387 35.8411 37.6502 35.7951 37.7416 35.8526C37.8102 35.8987 37.9017 36.0945 37.936 36.3017ZM40.0511 36.2096C40.0511 36.2672 39.9939 36.2442 39.9367 36.152C39.8796 36.0599 39.8224 35.9217 39.8224 35.8642C39.8224 35.7951 39.8796 35.8296 39.9367 35.9217C39.9939 36.0139 40.0511 36.1405 40.0511 36.2096ZM35.4779 36.6011C35.4208 36.7278 35.3065 36.866 35.2379 36.912C35.1693 36.9466 35.2036 36.8545 35.3065 36.6817C35.5351 36.3363 35.6494 36.2787 35.4779 36.6011ZM40.7485 37.1539C40.8971 37.3381 40.8857 37.3496 40.7142 37.1999C40.5998 37.1193 40.5084 37.0272 40.5084 37.0042C40.5084 36.912 40.5998 36.9696 40.7485 37.1539ZM37.2615 37.8448C37.2157 38.1902 37.1128 38.2133 36.2554 37.983C35.4894 37.7872 35.7295 37.5569 36.7013 37.5454C37.2843 37.5339 37.2958 37.5454 37.2615 37.8448ZM39.7995 37.603C40.2111 37.7181 40.0968 37.8563 39.4794 37.983C38.6563 38.1672 38.4505 38.1442 38.4505 37.9023C38.4505 37.7872 38.4848 37.649 38.5305 37.6145C38.622 37.5108 39.4451 37.5108 39.7995 37.603Z" fill="white"/>
<path d="M113.621 24.3491C112.306 24.6831 111.152 25.3279 110.26 26.2261C107.848 28.6558 107.39 32.3867 109.128 35.3116C109.963 36.7279 111.575 38.0061 113.221 38.5819C114.101 38.8928 115.976 38.9503 116.994 38.697C117.977 38.4552 119.395 37.7182 120.115 37.0734C123.979 33.5843 123.225 27.32 118.663 24.971C117.257 24.234 115.096 23.9691 113.621 24.3491ZM113.495 25.0055C113.21 25.5006 112.935 25.8116 112.615 25.9728C112.284 26.1455 112.261 26.1455 112.112 25.9497C112.032 25.8346 111.975 25.6964 111.998 25.6388C112.021 25.5582 113.381 24.8903 113.541 24.8673C113.564 24.8673 113.541 24.9364 113.495 25.0055ZM118.171 25.3049C118.812 25.6043 118.823 25.6158 118.652 25.8691C118.549 26.0188 118.423 26.134 118.366 26.134C118.217 26.134 117.463 25.4546 117.325 25.2013C117.177 24.9019 117.348 24.9249 118.171 25.3049ZM113.873 25.1667C113.838 25.2013 113.736 25.2128 113.656 25.1782C113.564 25.1437 113.598 25.1091 113.724 25.1091C113.85 25.0976 113.918 25.1322 113.873 25.1667ZM117.108 25.2013C117.108 25.2703 117.063 25.351 116.994 25.3855C116.937 25.42 116.88 25.374 116.88 25.2819C116.88 25.1782 116.937 25.0976 116.994 25.0976C117.063 25.0976 117.108 25.1437 117.108 25.2013ZM116.502 25.9267C116.468 26.0188 116.434 25.9843 116.434 25.8576C116.422 25.731 116.457 25.6619 116.491 25.7079C116.525 25.7425 116.537 25.8461 116.502 25.9267ZM114.342 26.3758C114.307 26.7558 114.296 26.7558 114.25 26.2837C114.216 26.0188 114.227 25.8346 114.284 25.8922C114.342 25.9497 114.364 26.1685 114.342 26.3758ZM118.034 26.6176C118.08 26.6982 118.046 26.8825 117.966 27.0437C117.771 27.4237 116.765 28.7019 116.708 28.6443C116.685 28.6213 116.777 28.057 116.902 27.3776L117.131 26.1455L117.543 26.3182C117.771 26.4103 118 26.5485 118.034 26.6176ZM113.77 27.0552C114.113 28.7594 114.113 28.794 113.953 28.6558C113.644 28.4025 112.649 26.9631 112.649 26.7903C112.649 26.5831 113.187 26.2376 113.45 26.2837C113.553 26.2952 113.667 26.5831 113.77 27.0552ZM111.003 27.1473C110.763 27.4006 109.906 27.7806 109.803 27.677C109.78 27.654 110.008 27.3431 110.306 26.9861L110.854 26.3413L111.06 26.6061C111.266 26.8709 111.266 26.894 111.003 27.1473ZM116.388 26.7328C116.354 26.8134 116.331 26.7558 116.331 26.5946C116.331 26.4334 116.354 26.3758 116.388 26.4449C116.411 26.5255 116.411 26.6637 116.388 26.7328ZM120.881 27.6425C120.881 27.8613 119.909 27.4352 119.589 27.0782C119.383 26.8594 119.383 26.8364 119.589 26.5946L119.795 26.3528L120.344 26.9516C120.641 27.2855 120.881 27.5964 120.881 27.6425ZM112.192 26.94C112.192 26.9976 112.146 27.0552 112.089 27.0552C112.021 27.0552 111.941 26.9976 111.906 26.94C111.872 26.8709 111.918 26.8249 112.009 26.8249C112.112 26.8249 112.192 26.8709 112.192 26.94ZM118.766 26.94C118.732 26.9976 118.652 27.0552 118.583 27.0552C118.526 27.0552 118.48 26.9976 118.48 26.94C118.48 26.8709 118.56 26.8249 118.663 26.8249C118.755 26.8249 118.8 26.8709 118.766 26.94ZM112.524 28.3909C112.924 28.9897 113.233 29.4964 113.21 29.5194C113.187 29.5309 112.638 29.2316 111.998 28.84L110.843 28.1261L111.255 27.7C111.483 27.4697 111.701 27.2855 111.735 27.2855C111.769 27.297 112.124 27.7806 112.524 28.3909ZM119.738 28.1031C119.738 28.2067 117.657 29.4849 117.588 29.4273C117.543 29.3813 118.537 27.7922 118.8 27.4813C118.972 27.2855 118.995 27.297 119.361 27.654C119.566 27.8497 119.738 28.057 119.738 28.1031ZM120.973 28.08C121.007 28.1722 120.961 28.2182 120.87 28.1837C120.79 28.1606 120.698 28.0685 120.675 27.9879C120.641 27.8958 120.687 27.8497 120.778 27.8843C120.858 27.9073 120.95 27.9994 120.973 28.08ZM110.877 28.8976C110.912 28.9552 110.9 29.0128 110.832 29.0128C110.774 29.0128 110.683 28.9552 110.649 28.8976C110.614 28.8285 110.626 28.7825 110.694 28.7825C110.752 28.7825 110.843 28.8285 110.877 28.8976ZM119.921 28.9552C119.795 29.0473 119.635 29.1279 119.578 29.1279C119.509 29.1279 119.555 29.0473 119.669 28.9552C119.795 28.8631 119.955 28.7825 120.012 28.7825C120.081 28.7825 120.035 28.8631 119.921 28.9552ZM110.077 29.0128C110.111 29.0703 110.066 29.1279 109.963 29.1279C109.86 29.1279 109.814 29.0703 109.848 29.0128C109.883 28.9437 109.94 28.8976 109.963 28.8976C109.986 28.8976 110.043 28.9437 110.077 29.0128ZM115.359 29.4964C115.325 29.577 115.302 29.5194 115.302 29.3582C115.302 29.197 115.325 29.1394 115.359 29.2085C115.382 29.2891 115.382 29.4273 115.359 29.4964ZM117.005 29.4388C117.154 29.6231 117.143 29.6346 116.971 29.4849C116.777 29.3352 116.72 29.2431 116.811 29.2431C116.834 29.2431 116.925 29.3352 117.005 29.4388ZM112.421 30.0952C112.421 30.1297 112.375 30.1873 112.306 30.2219C112.249 30.2564 112.192 30.2334 112.192 30.1758C112.192 30.1067 112.249 30.0491 112.306 30.0491C112.375 30.0491 112.421 30.0722 112.421 30.0952ZM110.191 30.8552L110.42 30.9588H110.191C110.066 30.9588 109.883 30.9128 109.791 30.8552C109.643 30.7516 109.643 30.74 109.791 30.7516C109.883 30.7516 110.066 30.7976 110.191 30.8552ZM120.881 30.8552C120.79 30.9128 120.607 30.9588 120.481 30.9588C120.298 30.9473 120.298 30.9358 120.538 30.8552C120.938 30.7285 121.087 30.7285 120.881 30.8552ZM109.208 32.0873C109.277 32.2255 109.334 32.4673 109.334 32.6285C109.334 32.8703 109.277 32.9279 109.06 32.9279C108.728 32.9279 108.648 32.7437 108.648 31.9261V31.2813L108.865 31.5576C108.98 31.7073 109.128 31.9491 109.208 32.0873ZM122.047 32.237C121.979 32.8243 121.944 32.8703 121.659 32.9049C121.293 32.9509 121.27 32.8358 121.464 32.2255C121.624 31.7534 121.921 31.3964 122.036 31.5116C122.082 31.5691 122.093 31.8916 122.047 32.237ZM120.938 32.0297C120.893 32.3061 120.812 32.5709 120.755 32.6285C120.652 32.7437 119.486 32.4558 118.766 32.1334L118.309 31.9261L119.566 31.7534C120.264 31.6613 120.87 31.5691 120.915 31.5576C120.973 31.5576 120.984 31.7649 120.938 32.0297ZM111.563 31.8225C112.478 31.9952 112.467 32.0067 110.935 32.4788C109.94 32.7782 109.791 32.7322 109.791 32.1219V31.6613L110.283 31.6728C110.546 31.6728 111.129 31.7419 111.563 31.8225ZM109.528 32.3752C109.494 32.4673 109.46 32.4328 109.46 32.3061C109.448 32.1794 109.483 32.1103 109.517 32.1564C109.551 32.1909 109.563 32.2946 109.528 32.3752ZM113.758 33.0661C113.724 33.1582 113.69 33.1237 113.69 32.997C113.678 32.8703 113.713 32.8013 113.747 32.8473C113.781 32.8819 113.793 32.9855 113.758 33.0661ZM117.108 33.0546C117.108 33.1237 117.063 33.1352 116.994 33.1006C116.937 33.0661 116.88 32.974 116.88 32.9164C116.88 32.8473 116.937 32.8358 116.994 32.8703C117.063 32.9049 117.108 32.997 117.108 33.0546ZM111.849 33.8606C111.38 34.2982 110.912 34.6437 110.82 34.6322C110.603 34.5861 110.1 33.8376 110.214 33.7225C110.351 33.5958 112.581 32.9394 112.649 33.0085C112.684 33.0431 112.318 33.4231 111.849 33.8606ZM114.261 33.1237C114.41 33.3079 114.399 33.3194 114.227 33.1697C114.033 33.02 113.976 32.9279 114.067 32.9279C114.09 32.9279 114.181 33.02 114.261 33.1237ZM120.218 33.1813C120.138 33.2619 120.081 33.2734 120.081 33.2043C120.081 33.0431 120.218 32.9049 120.298 32.9855C120.321 33.02 120.287 33.1122 120.218 33.1813ZM119.383 33.3425C119.932 33.5037 120.401 33.6764 120.447 33.7225C120.538 33.8031 120.012 34.7703 119.875 34.7703C119.829 34.7703 119.406 34.3788 118.937 33.9067C118.469 33.4346 118.16 33.0431 118.252 33.0431C118.343 33.0431 118.846 33.1813 119.383 33.3425ZM109.734 33.3885C109.768 33.4576 109.688 33.5037 109.54 33.5037C109.334 33.5037 109.311 33.4806 109.448 33.3885C109.665 33.2503 109.654 33.2503 109.734 33.3885ZM109.951 34.5516C110.134 35.0122 110.111 35.4613 109.894 35.4613C109.837 35.4613 109.665 35.1964 109.494 34.874C109.254 34.4019 109.231 34.2637 109.357 34.1831C109.643 33.9988 109.768 34.0794 109.951 34.5516ZM113.164 34.1946C113.13 34.2522 113.038 34.3097 112.981 34.3097C112.912 34.3097 112.901 34.2522 112.935 34.1946C112.97 34.1255 113.061 34.0794 113.118 34.0794C113.187 34.0794 113.198 34.1255 113.164 34.1946ZM121.567 34.1831C121.567 34.3213 120.847 35.4613 120.755 35.4613C120.595 35.4613 120.63 34.6206 120.812 34.3673C120.938 34.1831 121.567 34.0219 121.567 34.1831ZM115.359 34.6782C115.325 34.7588 115.302 34.7013 115.302 34.54C115.302 34.3788 115.325 34.3213 115.359 34.3903C115.382 34.4709 115.382 34.6091 115.359 34.6782ZM117.909 34.4594C117.909 34.4825 117.794 34.5976 117.657 34.7243L117.394 34.9431L117.611 34.6782C117.817 34.4364 117.909 34.3673 117.909 34.4594ZM111.506 34.5746C111.506 34.5976 111.392 34.7128 111.255 34.8394L110.992 35.0582L111.209 34.7934C111.415 34.5516 111.506 34.4825 111.506 34.5746ZM114.867 35.9103L114.947 37.2231L114.422 37.1655C114.124 37.1309 113.85 37.0503 113.793 37.0043C113.736 36.9467 113.941 36.3709 114.227 35.7261C114.524 35.0813 114.765 34.5631 114.776 34.5746C114.787 34.5861 114.822 35.1849 114.867 35.9103ZM116.902 36.7855C116.925 36.9467 116.845 37.0273 116.571 37.1079C115.896 37.3152 115.851 37.2231 115.862 35.7837L115.874 34.4825L116.365 35.5303C116.639 36.0946 116.88 36.6703 116.902 36.7855ZM119.452 34.7703C119.566 34.897 119.635 35.0006 119.601 35.0006C119.566 35.0006 119.452 34.897 119.338 34.7703C119.223 34.6437 119.155 34.54 119.189 34.54C119.223 34.54 119.338 34.6437 119.452 34.7703ZM113.393 35.0006C113.507 35.1273 113.576 35.2309 113.541 35.2309C113.507 35.2309 113.393 35.1273 113.278 35.0006C113.164 34.874 113.095 34.7703 113.13 34.7703C113.164 34.7703 113.278 34.874 113.393 35.0006ZM111.62 35.0352C111.62 35.0582 111.483 35.1964 111.312 35.3576C111.037 35.6109 111.037 35.5073 111.312 35.1388C111.403 35.0122 111.62 34.9431 111.62 35.0352ZM112.318 35.1964C112.467 35.3806 112.455 35.3922 112.284 35.2425C112.089 35.0928 112.032 35.0006 112.124 35.0006C112.146 35.0006 112.238 35.0928 112.318 35.1964ZM118.046 35.3691C117.966 35.4497 117.909 35.4613 117.909 35.3922C117.909 35.2309 118.046 35.0928 118.126 35.1734C118.149 35.2079 118.114 35.3 118.046 35.3691ZM119.521 35.4267C119.669 35.6109 119.658 35.6225 119.486 35.4728C119.372 35.3922 119.28 35.3 119.28 35.277C119.28 35.1849 119.372 35.2425 119.521 35.4267ZM112.318 35.8873C112.467 36.0716 112.455 36.0831 112.284 35.9334C112.089 35.7837 112.032 35.6916 112.124 35.6916C112.146 35.6916 112.238 35.7837 112.318 35.8873ZM115.439 37.0964L115.348 37.8219L115.268 37.0734C115.188 36.2903 115.233 36.06 115.416 36.2443C115.485 36.3134 115.496 36.6358 115.439 37.0964ZM112.981 36.7279C112.844 36.9813 112.695 37.1655 112.672 37.1309C112.615 37.0849 113.095 36.2673 113.175 36.2673C113.21 36.2673 113.118 36.4746 112.981 36.7279ZM117.68 36.4976C117.748 36.6243 117.771 36.7279 117.748 36.7279C117.714 36.7279 117.634 36.6243 117.566 36.4976C117.497 36.3709 117.474 36.2673 117.497 36.2673C117.531 36.2673 117.611 36.3709 117.68 36.4976ZM111.735 36.9582C111.735 37.0158 111.712 37.0734 111.689 37.0734C111.655 37.0734 111.598 37.0158 111.563 36.9582C111.529 36.8891 111.552 36.8431 111.609 36.8431C111.678 36.8431 111.735 36.8891 111.735 36.9582ZM119.166 36.9582C119.166 37.0158 119.12 37.0734 119.052 37.0734C118.995 37.0734 118.937 37.0158 118.937 36.9582C118.937 36.8891 118.995 36.8431 119.052 36.8431C119.12 36.8431 119.166 36.8891 119.166 36.9582ZM118.194 37.1885C118.229 37.2461 118.206 37.3037 118.149 37.3037C118.08 37.3037 118.023 37.2461 118.023 37.1885C118.023 37.1194 118.046 37.0734 118.069 37.0734C118.103 37.0734 118.16 37.1194 118.194 37.1885ZM114.696 37.9025C114.867 38.3746 114.81 38.3861 113.656 38.0982C112.912 37.9025 113.141 37.6837 114.113 37.6606C114.524 37.6491 114.616 37.6952 114.696 37.9025ZM117.337 37.7643C117.566 37.9025 117.44 37.9946 116.857 38.1213C116.582 38.1788 116.274 38.2594 116.171 38.294C115.908 38.3746 115.896 38.0752 116.148 37.8334C116.342 37.6376 117.063 37.5916 117.337 37.7643ZM115.45 38.1097C115.485 38.1673 115.416 38.2249 115.29 38.2249C115.153 38.2249 115.05 38.1673 115.05 38.1097C115.05 38.0406 115.119 37.9946 115.21 37.9946C115.302 37.9946 115.416 38.0406 115.45 38.1097Z" fill="white"/>
<path d="M24.5939 29.6575C24.5367 29.7035 24.5024 29.8878 24.5024 30.072C24.5024 30.2447 24.4567 30.3944 24.3881 30.3944C24.331 30.3944 24.2852 30.3369 24.3081 30.2563C24.3195 30.1872 24.2052 30.0605 24.0566 29.9799C23.8279 29.8647 23.7364 29.8647 23.5078 30.0144C23.1877 30.2217 23.0619 30.6478 23.2334 30.9357C23.3477 31.1314 23.3477 31.1199 23.3592 30.8781C23.3592 30.7399 23.4049 30.6247 23.4621 30.6247C23.5192 30.6247 23.5878 30.7399 23.6107 30.8781C23.6336 31.0508 23.7364 31.1544 23.9079 31.1775C24.2738 31.2351 24.4453 31.0508 24.6168 30.4635C24.754 29.9454 24.7425 29.4963 24.5939 29.6575ZM24.0451 30.1641C24.0451 30.2217 23.9651 30.2793 23.8622 30.2793C23.7707 30.2793 23.725 30.2217 23.7593 30.1641C23.7936 30.0951 23.8736 30.049 23.9422 30.049C23.9994 30.049 24.0451 30.0951 24.0451 30.1641Z" fill="white"/>
<path d="M53.7133 43.5911C51.4839 44.0633 50.4664 44.9499 50.4549 46.4354C50.4549 47.1148 50.6607 47.5293 51.2552 48.0475C51.8383 48.5426 52.7529 48.8305 54.9709 49.222C56.8802 49.5445 57.2917 49.6596 57.9206 50.0166C58.4465 50.3045 58.6866 50.719 58.6866 51.3408C58.6866 52.0433 57.9777 52.7342 56.9145 53.0796C55.4968 53.5402 52.913 53.379 51.2095 52.7226C50.9008 52.6075 50.6264 52.5269 50.6036 52.5499C50.5807 52.573 50.5464 52.7342 50.535 52.9069C50.5121 53.1717 50.5807 53.2408 51.038 53.4251C52.4557 53.9893 55.3139 54.2311 56.6286 53.8972C58.4465 53.4251 59.4754 52.4578 59.4868 51.2026C59.4868 50.7305 59.1782 50.0281 58.8352 49.7172C58.4236 49.3372 57.3603 48.9457 56.1485 48.7154C55.4625 48.5772 54.3649 48.3699 53.7018 48.2433C51.804 47.8748 51.2324 47.4602 51.2324 46.4584C51.2324 45.5948 51.6782 45.0305 52.6958 44.6045C53.8047 44.1323 56.2056 44.213 57.8634 44.7772L58.8237 45.0996L58.9266 44.8233C59.0867 44.3972 59.0753 44.3857 58.2635 44.1208C56.7544 43.6257 54.7079 43.3839 53.7133 43.5911Z" fill="white"/>
<path d="M24.9598 48.8186V53.8853H29.2471H33.5344V53.5398V53.1943H29.6472H25.7601V51.1792V49.164H29.2471H32.7341V48.8186V48.4731H29.2471H25.7601V46.458V44.4428H29.6472H33.5344V44.0974V43.7519H29.2471H24.9598V48.8186Z" fill="white"/>
<path d="M41.2172 44.581C40.9657 45.0416 39.9253 46.9992 38.9078 48.9337C37.8903 50.8683 36.8728 52.7683 36.6555 53.1598L36.2668 53.8853H36.7127H37.1471L37.8331 52.584L38.5076 51.2943L42.0175 51.2598L45.5274 51.2368L46.2248 52.561C46.9108 53.8507 46.9336 53.8853 47.3223 53.8853C47.5396 53.8853 47.7111 53.8622 47.7111 53.8277C47.7111 53.7931 46.522 51.5131 45.0701 48.761L42.4291 43.7519H42.0518C41.6974 43.7519 41.6402 43.8095 41.2172 44.581ZM43.5838 47.5404C44.407 49.1065 45.0815 50.4307 45.0815 50.4768C45.0815 50.5113 43.721 50.5459 42.0518 50.5459C40.2111 50.5459 39.0221 50.4998 39.0221 50.4307C39.0221 50.3156 41.9947 44.6731 42.0518 44.6731C42.0747 44.6731 42.7607 45.9628 43.5838 47.5404Z" fill="white"/>
<path d="M64.3458 46.7343L66.8039 49.7168V51.801V53.8853H67.204H67.6042V51.8356V49.7974L70.0165 46.861C71.3427 45.2489 72.4517 43.8901 72.486 43.8325C72.5088 43.7865 72.3373 43.7519 72.0973 43.7519C71.6742 43.7634 71.6171 43.8095 69.4906 46.4004C68.3016 47.8513 67.284 49.0374 67.2497 49.0489C67.2154 49.0489 66.1979 47.8513 64.986 46.4004C62.8024 43.775 62.7795 43.7519 62.3336 43.7519H61.8878L64.3458 46.7343Z" fill="white"/>
<path d="M81.5522 48.8071V53.8853H81.9523H82.3525V52.0428V50.2004L84.8334 50.2234L87.3143 50.258L88.5033 51.9277C89.155 52.8489 89.7266 53.6665 89.7724 53.7471C89.8295 53.8507 90.0239 53.8853 90.3212 53.8622L90.7899 53.8277L89.5437 52.1004C88.8692 51.1446 88.309 50.3386 88.2975 50.2925C88.2975 50.2465 88.5262 50.1428 88.812 50.0737C89.5094 49.8895 90.1611 49.3943 90.5384 48.7495C90.7899 48.3234 90.8585 48.024 90.9042 47.3101C90.9957 45.721 90.5498 44.7768 89.4294 44.155L88.812 43.8095L85.1878 43.775L81.5522 43.7404V48.8071ZM88.4576 44.5695C89.075 44.7192 89.6923 45.2259 89.9553 45.7901C90.3783 46.6768 90.1382 48.2543 89.4866 48.8301C88.812 49.4289 88.652 49.4519 85.4165 49.4865L82.3525 49.521V46.9877V44.4428H85.165C86.7998 44.4428 88.1718 44.5004 88.4576 44.5695Z" fill="white"/>
<path d="M95.0429 48.8186V53.8853H99.3302H103.618V53.5398V53.1943H99.7304H95.8432V51.1792V49.164H99.3302H102.817V48.8186V48.4731H99.3302H95.8432V46.458V44.4428H99.7304H103.618V44.0974V43.7519H99.3302H95.0429V48.8186Z" fill="white"/>
<path d="M107.505 48.8186V53.8853H107.905H108.305L108.328 49.3828L108.362 44.8804L112.364 49.3828C116.056 53.5398 116.388 53.8737 116.742 53.8853H117.108V48.8186V43.7519H116.765H116.422V48.2659V52.7798L116.114 52.4689C115.931 52.3077 114.124 50.281 112.078 47.9665C108.465 43.8786 108.351 43.7634 107.939 43.7634L107.505 43.7519V48.8186Z" fill="white"/>
<path d="M120.309 44.0974V44.4428H122.596H124.883V49.164V53.8853H125.283H125.683V49.164V44.4428H127.855H130.027V44.0974V43.7519H125.168H120.309V44.0974Z" fill="white"/>
<path d="M79.1513 64.1338C79.1513 66.5175 79.1742 66.8975 79.3228 66.8975C79.4714 66.8975 79.4943 66.5175 79.4943 64.1338C79.4943 61.7502 79.4714 61.3702 79.3228 61.3702C79.1742 61.3702 79.1513 61.7502 79.1513 64.1338Z" fill="white"/>
<path d="M97.5696 61.8769C97.4324 62.0381 97.5124 62.1763 97.7525 62.1763C97.924 62.1763 97.9583 61.8769 97.7982 61.7848C97.7411 61.7502 97.6382 61.7848 97.5696 61.8769Z" fill="white"/>
<path d="M72.1773 62.6369C72.1773 63.0514 72.1544 63.0975 71.8915 63.0975C71.7085 63.0975 71.6057 63.1666 71.6057 63.2702C71.6057 63.3623 71.6971 63.4429 71.8229 63.4429C72.0058 63.4429 72.0401 63.5811 72.0858 64.8823C72.1659 66.4944 72.2802 66.8284 72.8633 66.955C73.2977 67.0472 73.8922 66.9205 73.8922 66.7362C73.8922 66.6211 73.7436 66.5981 73.3434 66.6441C72.5431 66.7132 72.486 66.5866 72.4288 64.8708L72.3831 63.4544L73.1605 63.4199C74.1552 63.3738 74.1437 63.1666 73.1491 63.1205L72.4059 63.0859V62.6369C72.4059 62.3835 72.3602 62.1762 72.2916 62.1762C72.2345 62.1762 72.1773 62.3835 72.1773 62.6369Z" fill="white"/>
<path d="M48.8315 63.0861C47.8825 63.2818 47.3681 63.9382 47.3681 64.9746C47.3681 66.5867 48.5914 67.3582 50.3177 66.84C50.9351 66.6558 51.1752 66.3564 50.6036 66.483C48.9229 66.863 47.9511 66.5291 47.7111 65.4812C47.3909 64.0188 48.4313 63.1091 50.0434 63.443C50.8093 63.6042 50.8436 63.6042 50.8894 63.4661C50.958 63.2358 49.4946 62.9594 48.8315 63.0861Z" fill="white"/>
<path d="M52.7987 63.0632C52.1013 63.1554 51.5868 63.3396 51.6325 63.4778C51.6668 63.5584 51.7468 63.6045 51.8383 63.5814C53.0616 63.282 53.8734 63.3166 54.2735 63.662C54.4793 63.8348 54.7994 64.4681 54.7994 64.6984C54.7994 64.756 54.182 64.8135 53.4389 64.8366C51.9069 64.8826 51.461 65.0669 51.3924 65.6887C51.2895 66.5523 51.7697 66.9438 52.9702 66.9438C53.7819 66.9438 54.1592 66.8057 54.525 66.3566L54.7651 66.0687L54.8451 66.4832C54.9595 67.1051 55.2682 67.0475 55.1996 66.4026C55.1767 66.1378 55.1195 65.516 55.0852 65.0208C55.0281 64.0305 54.8337 63.5699 54.3535 63.3051C54.022 63.1093 53.3131 62.9942 52.7987 63.0632ZM54.7308 65.4814C54.5479 66.276 53.9877 66.6675 53.0388 66.6675C52.3757 66.6675 51.9984 66.5178 51.7697 66.1608C51.6211 65.942 51.6097 65.8269 51.7126 65.6311C51.9069 65.2626 52.227 65.182 53.5761 65.182L54.7994 65.1705L54.7308 65.4814Z" fill="white"/>
<path d="M64.2543 63.0975C63.3626 63.2702 62.8024 63.9957 62.8024 64.9975C62.8024 66.4945 63.9571 67.2545 65.672 66.886C66.0607 66.7939 66.4037 66.6557 66.438 66.5636C66.4837 66.4369 66.4151 66.4254 66.1636 66.483C64.7345 66.8169 63.7856 66.6327 63.374 65.9533C62.9053 65.1818 62.9281 65.1702 64.986 65.1702H66.8382L66.781 64.6636C66.6438 63.489 65.592 62.8442 64.2543 63.0975ZM65.8321 63.6272C66.1407 63.8345 66.4609 64.3412 66.4609 64.6521C66.4609 64.8018 66.2208 64.8248 64.8031 64.8248C63.2711 64.8248 63.1454 64.8133 63.1454 64.606C63.1454 64.249 63.6484 63.6272 64.06 63.466C64.563 63.2933 65.4433 63.3739 65.8321 63.6272Z" fill="white"/>
<path d="M69.0904 63.0975C68.5416 63.2011 68.2101 63.3969 67.97 63.7653L67.7756 64.0647L67.7185 63.6156C67.6842 63.3047 67.5927 63.1435 67.467 63.1205C67.2955 63.0859 67.284 63.132 67.3869 63.4659C67.4441 63.6732 67.4898 64.5369 67.4898 65.3659C67.4898 66.6556 67.5127 66.8975 67.6613 66.8975C67.7985 66.8975 67.8328 66.6902 67.8328 65.7344C67.8328 64.8823 67.89 64.4678 68.0272 64.1684C68.4388 63.2817 69.9593 63.0744 70.5081 63.8229C70.7139 64.0993 70.7482 64.3411 70.7825 65.5272C70.8168 66.6556 70.8511 66.8975 70.9997 66.8975C71.2627 66.8975 71.1712 64.1914 70.8854 63.7538C70.5195 63.1781 69.8793 62.9478 69.0904 63.0975Z" fill="white"/>
<path d="M75.8929 63.0632C75.1955 63.1554 74.6811 63.3396 74.7268 63.4778C74.7611 63.5584 74.8411 63.6045 74.9326 63.5814C76.1559 63.282 76.9676 63.3166 77.3678 63.662C77.5736 63.8348 77.8937 64.4681 77.8937 64.6984C77.8937 64.756 77.2763 64.8135 76.5332 64.8366C75.0012 64.8826 74.5553 65.0669 74.4867 65.6887C74.3838 66.5523 74.864 66.9438 76.0644 66.9438C76.8762 66.9438 77.2534 66.8057 77.6193 66.3566L77.8594 66.0687L77.9394 66.4832C78.0537 67.1051 78.3624 67.0475 78.2938 66.4026C78.271 66.1378 78.2138 65.516 78.1795 65.0208C78.1223 64.0305 77.928 63.5699 77.4478 63.3051C77.1162 63.1093 76.4074 62.9942 75.8929 63.0632ZM77.8251 65.4814C77.6422 66.276 77.0819 66.6675 76.133 66.6675C75.4699 66.6675 75.0926 66.5178 74.864 66.1608C74.7154 65.942 74.7039 65.8269 74.8068 65.6311C75.0012 65.2626 75.3213 65.182 76.6704 65.182L77.8937 65.1705L77.8251 65.4814Z" fill="white"/>
<path d="M83.0499 63.109C82.3525 63.2472 81.9866 63.6157 82.0324 64.1223C82.0781 64.6635 82.444 64.8938 83.6673 65.1587C84.4218 65.3199 84.742 65.4466 84.8906 65.6308C85.0735 65.8611 85.0849 65.9302 84.9477 66.1375C84.6619 66.5635 84.2961 66.6787 83.4386 66.6211C83.0042 66.5866 82.4897 66.529 82.3068 66.4829C82.0552 66.4254 81.9866 66.4369 82.0324 66.5635C82.0667 66.6557 82.4097 66.7938 82.8441 66.886C84.1817 67.1623 85.3593 66.7132 85.3593 65.9187C85.3593 65.3429 84.9477 65.0896 83.5529 64.8248C82.6383 64.6405 82.3296 64.4332 82.3754 64.0417C82.3982 63.8114 82.524 63.6732 82.8555 63.512C83.2443 63.3163 83.3929 63.3048 84.056 63.4084C84.4676 63.4775 84.8792 63.5466 84.9706 63.5696C85.0506 63.5926 85.1421 63.5581 85.1764 63.489C85.2221 63.3623 84.6162 63.1666 83.8959 63.0514C83.713 63.0284 83.3243 63.0514 83.0499 63.109Z" fill="white"/>
<path d="M87.2343 63.0975C86.3426 63.2702 85.7823 63.9957 85.7823 64.9975C85.7823 66.4945 86.9371 67.2545 88.652 66.886C89.0407 66.7939 89.3837 66.6557 89.418 66.5636C89.4637 66.4369 89.3951 66.4254 89.1436 66.483C87.7145 66.8169 86.7656 66.6327 86.354 65.9533C85.8852 65.1818 85.9081 65.1702 87.966 65.1702H89.8181L89.761 64.6636C89.6238 63.489 88.572 62.8442 87.2343 63.0975ZM88.812 63.6272C89.1207 63.8345 89.4408 64.3412 89.4408 64.6521C89.4408 64.8018 89.2008 64.8248 87.7831 64.8248C86.2511 64.8248 86.1253 64.8133 86.1253 64.606C86.1253 64.249 86.6284 63.6272 87.04 63.466C87.543 63.2933 88.4233 63.3739 88.812 63.6272Z" fill="white"/>
<path d="M100.05 63.0861C99.1016 63.2818 98.5871 63.9382 98.5871 64.9746C98.5871 66.5867 99.8104 67.3582 101.537 66.84C102.154 66.6558 102.394 66.3564 101.823 66.483C100.142 66.863 99.1702 66.5291 98.9301 65.4812C98.61 64.0188 99.6503 63.1091 101.262 63.443C102.028 63.6042 102.063 63.6042 102.108 63.4661C102.177 63.2358 100.714 62.9594 100.05 63.0861Z" fill="white"/>
<path d="M104.041 63.0975C103.149 63.2702 102.589 63.9957 102.589 64.9975C102.589 66.4945 103.743 67.2545 105.458 66.886C105.847 66.7939 106.19 66.6557 106.224 66.5636C106.27 66.4369 106.201 66.4254 105.95 66.483C104.521 66.8169 103.572 66.6327 103.16 65.9533C102.691 65.1818 102.714 65.1702 104.772 65.1702H106.624L106.567 64.6636C106.43 63.489 105.378 62.8442 104.041 63.0975ZM105.63 63.6272C105.927 63.8345 106.247 64.3527 106.247 64.6521C106.247 64.8018 106.007 64.8248 104.589 64.8248C103.172 64.8248 102.932 64.8018 102.932 64.6521C102.932 64.4102 103.217 63.869 103.435 63.6733C103.892 63.3048 105.092 63.2702 105.63 63.6272Z" fill="white"/>
<path d="M55.9541 63.4659C56.0113 63.6732 56.057 64.5369 56.057 65.3659C56.057 66.6556 56.0799 66.8975 56.2285 66.8975C56.3657 66.8975 56.4 66.6902 56.4 65.7344C56.4 64.0762 56.743 63.4659 57.7377 63.3969C58.3207 63.3623 58.3779 63.0975 57.8062 63.0975C57.2689 63.0975 56.6744 63.4544 56.48 63.869C56.3428 64.1799 56.3428 64.1799 56.2857 63.6732C56.24 63.3047 56.1714 63.1435 56.0342 63.1205C55.8627 63.0859 55.8512 63.132 55.9541 63.4659Z" fill="white"/>
<path d="M60.4129 63.4659C60.4701 63.6732 60.5158 64.5369 60.5158 65.3659C60.5158 66.6556 60.5387 66.8975 60.6873 66.8975C60.8245 66.8975 60.8588 66.6902 60.8588 65.7344C60.8588 64.0762 61.2018 63.4659 62.1965 63.3969C62.7795 63.3623 62.8367 63.0975 62.265 63.0975C61.7277 63.0975 61.1332 63.4544 60.9388 63.869C60.8016 64.1799 60.8016 64.1799 60.7445 63.6732C60.6988 63.3047 60.6302 63.1435 60.493 63.1205C60.3215 63.0859 60.31 63.132 60.4129 63.4659Z" fill="white"/>
<path d="M90.3669 63.4659C90.4241 63.6732 90.4698 64.5369 90.4698 65.3659C90.4698 66.6556 90.4927 66.8975 90.6413 66.8975C90.7785 66.8975 90.8128 66.6902 90.8128 65.7344C90.8128 64.0762 91.1558 63.4659 92.1504 63.3969C92.7335 63.3623 92.7907 63.0975 92.219 63.0975C91.6817 63.0975 91.0872 63.4544 90.8928 63.869C90.7556 64.1799 90.7556 64.1799 90.6985 63.6732C90.6527 63.3047 90.5841 63.1435 90.4469 63.1205C90.2755 63.0859 90.264 63.132 90.3669 63.4659Z" fill="white"/>
<path d="M92.7563 63.178C92.7563 63.4083 94.6885 66.8398 94.8257 66.8743C95.0086 66.9089 95.0086 66.8859 96.1748 64.675C96.7921 63.5004 96.9636 63.0859 96.815 63.1204C96.7007 63.1434 96.2777 63.7998 95.7517 64.8131C95.02 66.218 94.8714 66.4368 94.7571 66.2756C94.6771 66.1719 94.2655 65.4234 93.831 64.5943C93.3966 63.7768 92.9736 63.0974 92.905 63.0974C92.8249 63.0974 92.7563 63.1319 92.7563 63.178Z" fill="white"/>
<path d="M97.5581 64.9975C97.5581 66.6096 97.581 66.8975 97.7296 66.8975C97.8783 66.8975 97.9011 66.6096 97.9011 64.9975C97.9011 63.3853 97.8783 63.0975 97.7296 63.0975C97.581 63.0975 97.5581 63.3853 97.5581 64.9975Z" fill="white"/>
<path d="M44.1669 64.5367C44.1669 64.6749 44.3841 64.7095 45.4245 64.7095C46.4649 64.7095 46.6821 64.6749 46.6821 64.5367C46.6821 64.3986 46.4649 64.364 45.4245 64.364C44.3841 64.364 44.1669 64.3986 44.1669 64.5367Z" fill="white"/>
<path d="M107.162 64.5367C107.162 64.6749 107.379 64.7095 108.419 64.7095C109.46 64.7095 109.677 64.6749 109.677 64.5367C109.677 64.3986 109.46 64.364 108.419 64.364C107.379 64.364 107.162 64.3986 107.162 64.5367Z" fill="white"/>
</svg>
