<svg width="80" height="80" viewBox="0 0 80 80" fill="none" xmlns="http://www.w3.org/2000/svg">
<rect width="80" height="80" rx="16" fill="#F9F9F8"/>
<path d="M44.455 10.1066C35.182 11.0562 27.304 16.7653 24.9008 24.2798C24.7015 24.8894 24.5022 25.6046 24.4553 25.8507C24.385 26.261 24.3967 26.3079 24.596 26.2493C26.5069 25.6866 28.0543 25.3115 29.2383 25.1122C36.0378 23.9868 42.6965 24.9246 48.6167 27.8437C51.6412 29.3325 53.6576 30.751 55.9085 32.9667C60.1522 37.1284 62.45 41.9583 62.9189 47.6909L63.001 48.6639H65.838C69.0501 48.6639 69.2611 48.617 69.7418 47.773C70.0583 47.2337 70.0817 46.6827 69.8238 46.1786C69.7183 45.9676 68.6867 44.7132 67.5261 43.3651L65.4276 40.915L65.8848 40.3991C67.5847 38.4648 69.0735 35.4051 69.6831 32.5681C70.0466 30.8565 70.0466 27.7851 69.6831 26.0735C67.8309 17.457 59.7302 11.0327 49.5545 10.0949C48.054 9.95418 45.8852 9.9659 44.455 10.1066Z" fill="#FD790D"/>
<path d="M32.4974 28.2305C27.9019 28.5822 22.9899 30.2469 19.4261 32.6384C16.8939 34.3382 14.5493 36.6829 13.0135 39.0509C9.91863 43.7988 9.19179 49.2618 10.9268 54.7013C11.6185 56.8818 13.0956 59.5664 14.4906 61.1959L15.0299 61.8173L14.6548 62.251C11.2902 66.0728 10.1883 67.3623 10.1062 67.6085C9.8014 68.4057 10.1765 69.3787 10.9268 69.7655C11.384 70 11.5833 70 24.4553 70C38.4293 70 38.9099 69.9883 41.2311 69.4021C50.1641 67.1747 57.3738 60.4222 59.0385 52.7084C59.9178 48.6874 59.4137 44.8187 57.5145 40.9853C56.4829 38.8751 55.4864 37.5269 53.5404 35.5926C51.7936 33.8459 50.4806 32.8377 48.4408 31.6771C43.8219 29.0511 38.019 27.7967 32.4974 28.2305ZM25.6276 45.5456C26.8585 46.1434 27.515 47.2337 27.515 48.6639C27.515 49.6604 27.2689 50.3286 26.6475 51.0437C25.6862 52.1222 23.8691 52.4622 22.5093 51.794C20.6336 50.8679 19.9888 48.535 21.1259 46.753C22.0638 45.2759 24.0098 44.7601 25.6276 45.5456ZM36.2957 45.5456C37.5266 46.1434 38.1831 47.2337 38.1831 48.6639C38.1831 49.6604 37.9369 50.3286 37.3156 51.0437C36.3543 52.1222 34.5372 52.4622 33.1773 51.794C31.3016 50.8679 30.6568 48.535 31.794 46.753C32.7318 45.2759 34.6779 44.7601 36.2957 45.5456ZM46.9637 45.5456C48.1946 46.1434 48.8511 47.2337 48.8511 48.6639C48.8511 49.6604 48.6049 50.3286 47.9836 51.0437C47.0223 52.1222 45.2052 52.4622 43.8454 51.794C41.9697 50.8679 41.3249 48.535 42.462 46.753C43.3999 45.2759 45.3459 44.7601 46.9637 45.5456Z" fill="#FD790D"/>
</svg>
