<svg width="64" height="64" viewBox="0 0 64 64" fill="none" xmlns="http://www.w3.org/2000/svg">
<path d="M29.75 2.07499C23.0375 2.71249 17.2875 5.09999 12.425 9.29999C6.91249 14.0375 3.47499 20.325 2.28749 27.775C1.98749 29.7375 1.98749 34.2375 2.29999 36.225C3.22499 42.125 5.53749 47.2125 9.31249 51.6C14.0875 57.1625 20.7625 60.7375 28.25 61.775C29.7875 61.9875 34.225 61.975 35.75 61.7625C43.3 60.725 49.9375 57.1625 54.7125 51.575C62.25 42.7625 64.075 30.7125 59.4875 20.0375C54.7875 9.08749 43.6875 1.86249 31.75 2.02499C30.8875 2.02499 29.9875 2.06248 29.75 2.07499ZM36.125 4.29999C42.5 5.34999 47.7875 8.08749 52.125 12.575C55.5125 16.0875 57.8375 20.225 59.05 24.9C59.775 27.675 59.9375 28.9625 59.925 32.0625C59.925 35.0375 59.725 36.625 59.0625 39.175C57.075 46.825 51.5625 53.5625 44.4375 57.0625C41.675 58.4125 39.475 59.125 36.375 59.65C34.275 60.0125 30 60.0375 27.9375 59.7125C21.95 58.7375 16.875 56.2375 12.6125 52.15C7.99999 47.7375 5.33749 42.4875 4.23749 35.6875C4.01249 34.3625 4.01249 29.6375 4.23749 28.3125C5.27499 21.85 7.66249 16.95 11.875 12.575C16.3125 7.98749 22.0125 5.09999 28.3125 4.26249C28.8625 4.18748 29.5125 4.09999 29.75 4.07499C30.6875 3.96249 34.9875 4.12499 36.125 4.29999Z" fill="#FD790D"/>
<path d="M15.3125 21.3125C14.9 21.7125 14.925 22.1 15.3875 23.025C15.8625 23.95 16.9625 25.1 17.7875 25.4875C19.125 26.125 20.8125 26.1375 22.1875 25.4875C23.4 24.925 25 22.9 25 21.9375C25 21.525 24.475 21 24.0625 21C23.5375 21 23.275 21.2125 22.9375 21.9375C22.4 23.0625 21.075 24 20 24C18.925 24 17.6 23.0625 17.0625 21.9375C16.6 20.95 15.9125 20.7 15.3125 21.3125Z" fill="#FD790D"/>
<path d="M39.325 21.2625C38.8375 21.6375 38.8875 22.25 39.475 23.2375C40.0875 24.2875 41.175 25.275 42.0875 25.6375C43.1125 26.05 44.8875 26.05 45.9125 25.6375C47.375 25.0625 49.0625 23.025 48.9375 21.9875C48.875 21.5 48.3875 21 47.95 21C47.5625 21 47.05 21.425 46.95 21.825C46.7375 22.65 45.9125 23.4875 44.975 23.825C43.4375 24.3625 41.7375 23.5875 41.05 22.05C40.6 21.025 39.9875 20.7375 39.325 21.2625Z" fill="#FD790D"/>
<path d="M29.1375 41.1375C24.8125 41.6 20.525 43.55 18.55 45.9625C17.7625 46.925 17.9875 47.875 19.025 47.875C19.45 47.875 19.5875 47.7875 20.1625 47.175C21.95 45.25 24.625 43.95 28.1625 43.2875C29.7875 42.9875 34.2125 42.9875 35.8375 43.2875C37.6125 43.625 39.0625 44.075 40.4375 44.7375C41.8875 45.4375 42.9125 46.175 43.9 47.2375C44.475 47.8625 44.675 48 44.9875 48C45.5 48 46 47.5125 46 47.0125C46 46.3375 44.5375 44.8375 42.8 43.725C40.025 41.95 36.05 40.975 31.7625 41.0125C30.9 41.025 29.7125 41.0875 29.1375 41.1375Z" fill="#FD790D"/>
</svg>
