<svg width="64" height="64" viewBox="0 0 64 64" fill="none" xmlns="http://www.w3.org/2000/svg">
<g clip-path="url(#clip0_76_635)">
<path d="M28.9375 0.137505C18.9375 1.175 10.175 6.6125 4.84998 15.0875C-1.23752 24.7625 -1.60002 37.3 3.91248 47.3125C6.41248 51.8625 9.99998 55.7625 14.425 58.725C17.4 60.7125 21.925 62.6125 25.375 63.3C28.05 63.8375 29.0625 63.9375 32 63.9375C34.95 63.9375 36.1625 63.8125 38.65 63.3C49.65 61 58.8375 52.775 62.375 42.025C63.525 38.55 63.9375 35.8875 63.9375 32C63.9375 28.2375 63.5375 25.5875 62.4875 22.3125C60.9375 17.4375 58.3625 13.2125 54.7125 9.5125C49.725 4.46251 43.55 1.35 36.4375 0.300003C34.9 0.0750046 30.4625 -0.0249977 28.9375 0.137505ZM37.875 18.1375C38.25 18.325 38.7875 18.6625 39.0625 18.9125C39.6 19.375 40.3125 20.4625 40.4375 21.025C40.5125 21.325 40.475 21.3875 40.0375 21.5625C39.775 21.675 39.35 21.925 39.1 22.1375L38.625 22.5125L38.4375 22.05C38.3375 21.8 38.25 21.5625 38.25 21.525C38.25 21.2625 37.5125 20.4625 37.075 20.25C36.5625 20.0125 36.3375 20 28.3125 20C20.175 20 20.075 20 19.525 20.2625C19.225 20.4125 18.8625 20.725 18.6875 20.9875C18.4 21.425 15.875 27.925 15.875 28.225C15.875 28.3375 17.6125 28.375 23.2625 28.375C27.325 28.375 30.625 28.4125 30.6 28.4625C30.575 28.525 30.375 28.925 30.1375 29.375C29.4 30.8 29.4875 32.2625 30.4 33.5875C30.6 33.8875 30.9625 34.2625 31.2 34.4125C31.55 34.6375 31.625 34.7625 31.625 35.125C31.625 35.5 31.525 35.65 31.0125 36.0875C29.8125 37.125 29.3375 38.825 29.8375 40.25C29.975 40.625 30.125 41.0375 30.1875 41.15C30.275 41.3625 29.95 41.375 24.325 41.375H18.375V43.5C18.375 45.6 18.375 45.6375 18.0625 45.9375C17.7625 46.2375 17.7125 46.25 15.775 46.25C13 46.25 13.2 46.475 13.15 43.2375L13.1125 40.7L12.5625 40.1125C11.575 39.05 11.5625 39 11.5625 35.25V31.9375L12.0125 30.65L12.475 29.3625L11.9875 29.1125C11.7125 28.9875 11.35 28.6375 11.1625 28.35C10.8375 27.875 10.8125 27.725 10.775 26.3375C10.725 24.6125 10.8875 23.975 11.5375 23.425C12.1375 22.925 12.45 22.8375 14.0375 22.7625L15.525 22.6875L16.05 21.35C16.8125 19.425 17.6625 18.5 19.1625 17.975C19.775 17.775 20.4 17.7625 28.5 17.7875L37.1875 17.8125L37.875 18.1375ZM44.6875 24.2C45.0375 24.3375 45.25 24.95 45.25 25.8375C45.25 26.9 45.4 27.1375 46.4125 27.65C46.8375 27.8625 47.4125 28.1875 47.7 28.3875C48.5125 28.9375 48.725 28.95 49.6625 28.45C50.725 27.8875 51.2375 27.8625 51.6625 28.375C52.175 28.975 53.25 30.9375 53.25 31.2625C53.25 31.7125 52.95 32.075 52.15 32.5875C51.7625 32.8375 51.375 33.125 51.2875 33.2375C51.075 33.5375 51.0875 36.7375 51.3125 37.0875C51.4125 37.2375 51.825 37.5625 52.2375 37.8125C53.025 38.3 53.3375 38.775 53.2 39.3C53.0875 39.75 51.8875 41.775 51.5375 42.0875C51.125 42.475 50.75 42.45 49.7625 41.9375C49.3 41.7 48.8125 41.5 48.6625 41.5C48.525 41.5 48.05 41.7375 47.6125 42.025C47.175 42.3 46.575 42.6375 46.2875 42.775C45.45 43.15 45.25 43.5 45.25 44.5875C45.25 45.45 45.225 45.55 44.8875 45.8875L44.525 46.25H42.8375C41.2125 46.25 41.15 46.2375 40.85 45.9375C40.575 45.6625 40.525 45.475 40.475 44.5625C40.4375 43.9625 40.325 43.4125 40.2375 43.3C40.15 43.1875 39.7375 42.9375 39.325 42.725C38.925 42.525 38.3 42.1625 37.9625 41.925C37.625 41.6875 37.2125 41.5 37.0375 41.5C36.875 41.5 36.3625 41.7 35.9125 41.9375C35.4625 42.175 34.9625 42.375 34.8125 42.375C34.3375 42.375 33.9125 41.9125 33.1875 40.6375C32.2125 38.9 32.25 38.5875 33.55 37.7625C33.9875 37.4875 34.4 37.2 34.4375 37.1125C34.4875 37.0375 34.5375 36.1875 34.55 35.225C34.575 33.2125 34.575 33.2125 33.525 32.55C32.65 32 32.5 31.8125 32.5 31.3C32.5 30.8625 33.7125 28.6 34.15 28.2125C34.525 27.8875 35.0375 27.95 36.025 28.45C37 28.9375 37.2625 28.9375 37.9375 28.4375C38.15 28.2625 38.75 27.9125 39.2625 27.65C40.325 27.1125 40.475 26.8375 40.4875 25.525C40.5 24.8625 40.55 24.6875 40.8125 24.4375C41.1 24.1375 41.175 24.125 42.8 24.125C43.725 24.125 44.575 24.1625 44.6875 24.2Z" fill="#FD790D"/>
<path d="M13.05 25.1625C13.0125 25.2625 13 25.75 13.025 26.2625L13.0625 27.1875H13.4375C13.775 27.1875 13.825 27.125 14.2125 26.1375C14.4375 25.55 14.625 25.0625 14.625 25.0375C14.625 25.0125 14.2875 25 13.875 25C13.35 25 13.1 25.05 13.05 25.1625Z" fill="#FD790D"/>
<path d="M23.425 32.2501C22.825 32.5001 22.75 32.7876 22.75 35.0376C22.75 37.1001 22.75 37.1376 23.0625 37.4376C23.4625 37.8501 24.1125 37.8501 24.5875 37.4501L24.9375 37.1501V35.0126C24.9375 32.9001 24.9375 32.8751 24.625 32.5751C24.2625 32.2126 23.8 32.0876 23.425 32.2501Z" fill="#FD790D"/>
<path d="M28 32.2125C27.9 32.25 27.6875 32.4 27.5375 32.5375C27.2625 32.7875 27.25 32.875 27.25 34.9625C27.25 37.1 27.25 37.1375 27.5625 37.4375C27.7625 37.65 28 37.75 28.3125 37.75C28.625 37.75 28.8625 37.65 29.0625 37.4375C29.375 37.1375 29.375 37.1 29.375 34.9625C29.375 32.875 29.3625 32.7875 29.1 32.525C28.7875 32.2375 28.2875 32.1 28 32.2125Z" fill="#FD790D"/>
<path d="M16.7875 33.3874C15.575 33.7499 15.375 35.7249 16.5 36.3124C17.8125 36.9874 19.2625 35.8749 18.875 34.4749C18.75 34.0249 18.1375 33.3749 17.8375 33.3749C17.75 33.3749 17.575 33.3499 17.4375 33.3249C17.3 33.2874 17.0125 33.3249 16.7875 33.3874Z" fill="#FD790D"/>
<path d="M41.425 31.5C40.5 31.8625 39.825 32.5125 39.35 33.4625C39.0125 34.1625 38.95 34.425 38.95 35.175C38.95 36.75 39.7875 38.0625 41.2375 38.7375C42.15 39.1625 43.5125 39.1875 44.4 38.7875C45.2625 38.4 46.0375 37.6125 46.4375 36.7375C46.725 36.075 46.775 35.85 46.725 35.0125C46.65 33.475 45.8625 32.2625 44.5375 31.6125C43.7125 31.2125 42.2875 31.1625 41.425 31.5Z" fill="#FD790D"/>
</g>
<defs>
<clipPath id="clip0_76_635">
<rect width="64" height="64" fill="white"/>
</clipPath>
</defs>
</svg>
