<svg width="64" height="64" viewBox="0 0 64 64" fill="none" xmlns="http://www.w3.org/2000/svg">
<path d="M28.9298 1.84328C29.2037 1.81105 30.2139 1.76494 31.1852 1.7649C38.2871 1.67221 45.1869 4.15339 50.6443 8.74263C61.0488 17.488 64.1965 32.0796 58.3199 44.3446L58.3197 44.3449C55.3277 50.5616 50.551 55.3541 44.3487 58.3157C41.59 59.633 39.4012 60.3313 36.1506 60.9195L36.1505 60.9195C35.1077 61.1077 33.2945 61.1999 31.4944 61.1999C29.6944 61.1999 27.8812 61.1077 26.8384 60.9195L26.8383 60.9195C23.5876 60.3313 21.3988 59.633 18.6402 58.3157C12.4379 55.3541 7.64574 50.5462 4.66903 44.3447L4.66883 44.3443C3.36678 41.6162 2.66858 39.412 2.08043 36.1617L2.08041 36.1616C1.89223 35.1188 1.8 33.3056 1.8 31.5055C1.8 29.7055 1.89223 27.8923 2.08041 26.8495L2.08043 26.8494C2.66858 23.599 3.36678 21.3948 4.66883 18.6667L4.66897 18.6664C7.53722 12.6818 12.1893 7.92089 18.0665 4.95907L18.0667 4.95894C21.5247 3.2222 24.5356 2.35389 28.9298 1.84328ZM28.9298 1.84328L28.9531 2.04191L28.93 1.84325C28.9299 1.84326 28.9298 1.84327 28.9298 1.84328ZM47.1699 54.8271L47.1702 54.8269C51.3143 52.0591 54.4024 48.5128 56.6513 43.9996C61.1936 34.8383 60.459 24.0268 54.7094 15.6471C50.1212 8.96358 43.0717 4.65102 34.9648 3.59559C29.4916 2.89241 23.6647 3.91697 18.6798 6.50116L18.6796 6.50126C10.1913 10.8907 4.56344 19.1028 3.52337 28.6317L3.52336 28.6318C2.40723 38.784 7.19376 49.0311 15.7267 54.7656L15.7268 54.7657C25.3166 61.2201 37.6115 61.2351 47.1699 54.8271Z" fill="#FD790D" stroke="#FD790D" stroke-width="0.4"/>
<path d="M13.9697 23.0139L13.9697 23.0139L13.9705 23.0121C14.6881 21.4653 15.9498 20.3653 17.6492 19.8253C20.2189 19.0063 23.1981 20.4349 24.3758 23.0131L24.3762 23.0139C24.6399 23.5972 24.7962 24.2446 24.8306 24.7874C24.8477 25.0585 24.835 25.3122 24.7848 25.5228C24.7362 25.7271 24.6439 25.9256 24.4722 26.0363C24.3361 26.1254 24.1874 26.1775 24.0336 26.1649C23.8767 26.152 23.744 26.0741 23.6387 25.9598C23.4382 25.7422 23.312 25.3675 23.2414 24.8971L23.2414 24.8965C23.0783 23.7849 22.6376 22.951 21.8593 22.2606C20.3177 20.9102 18.0283 20.9102 16.4866 22.2606C15.7083 22.9509 15.2676 23.7848 15.1045 24.8965L15.1045 24.8965L15.1044 24.8971C15.0339 25.3675 14.9077 25.7422 14.7072 25.9598C14.6019 26.0741 14.4692 26.152 14.3122 26.1649C14.1584 26.1775 14.0098 26.1254 13.8736 26.0363C13.702 25.9255 13.6096 25.7271 13.561 25.5228C13.5109 25.3122 13.4982 25.0585 13.5153 24.7874C13.5496 24.2446 13.706 23.5972 13.9697 23.0139Z" fill="#FD790D" stroke="#FD790D" stroke-width="0.4"/>
<path d="M38.6126 23.0139L38.6126 23.0139L38.6134 23.0121C39.331 21.4653 40.5927 20.3653 42.2921 19.8253C44.8617 19.0063 47.841 20.4349 49.0187 23.0131L49.0191 23.0139C49.2828 23.5972 49.4391 24.2446 49.4734 24.7874C49.4906 25.0585 49.4779 25.3122 49.4277 25.5228C49.3791 25.7271 49.2868 25.9256 49.1151 26.0363C48.9789 26.1254 48.8303 26.1775 48.6765 26.1649C48.5196 26.152 48.3869 26.0741 48.2816 25.9598C48.0811 25.7422 47.9549 25.3675 47.8843 24.8971L47.8842 24.8965C47.7212 23.7849 47.2804 22.951 46.5022 22.2606C44.9606 20.9102 42.6711 20.9102 41.1295 22.2606C40.3512 22.9509 39.9105 23.7848 39.7474 24.8965L39.7474 24.8965L39.7473 24.8971C39.6768 25.3675 39.5505 25.7422 39.3501 25.9598C39.2447 26.0741 39.1121 26.152 38.9551 26.1649C38.8013 26.1775 38.6527 26.1254 38.5165 26.0363C38.3449 25.9255 38.2525 25.7271 38.2039 25.5228C38.1538 25.3122 38.1411 25.0585 38.1582 24.7874C38.1925 24.2446 38.3489 23.5972 38.6126 23.0139Z" fill="#FD790D" stroke="#FD790D" stroke-width="0.4"/>
<path d="M47.2197 37.0658C47.5585 36.0954 47.7587 35.8182 48.1284 35.8182C48.7136 35.8182 48.7906 36.2033 48.4364 37.3122C46.4958 43.2419 41.059 47.9548 34.775 49.1562C33.1424 49.4642 30.1699 49.5104 28.5681 49.2332C23.0543 48.2783 18.1257 44.6742 15.5998 39.7457C15.0299 38.6213 14.2444 36.6653 14.2444 36.3727C14.2444 36.3265 14.3523 36.1879 14.4909 36.0646L47.2197 37.0658ZM47.2197 37.0658C46.4496 39.3298 45.0634 41.5015 43.2768 43.3035L47.2197 37.0658ZM14.159 36.1233C14.2102 36.0587 14.2782 35.9865 14.3536 35.9191C14.4914 35.782 14.6384 35.6715 14.7985 35.6298C14.9777 35.583 15.1443 35.6292 15.2874 35.7461C15.4199 35.8544 15.5333 36.0231 15.6394 36.2317C15.7473 36.4435 15.8565 36.7148 15.9732 37.0454L15.9732 37.0454L15.9738 37.0472C16.7488 39.3113 18.0868 41.4259 19.9139 43.2225L19.9144 43.223C26.413 49.6607 36.7135 49.6296 43.1349 43.1626C44.9021 41.3801 46.2709 39.234 47.0303 37.0014L47.0308 36.9998C47.1998 36.5161 47.3427 36.1778 47.5007 35.9605C47.5822 35.8484 47.6736 35.7599 47.7829 35.7008C47.8936 35.6409 48.0095 35.6182 48.1284 35.6182C48.2924 35.6182 48.4509 35.6444 48.5806 35.727C48.7184 35.8147 48.7978 35.9489 48.8306 36.1092C48.862 36.2622 48.8523 36.4428 48.8171 36.6452C48.7814 36.85 48.7168 37.0917 48.6269 37.373L48.6265 37.3744C46.6625 43.3754 41.1657 48.138 34.8126 49.3526L34.8121 49.3527C33.1576 49.6649 30.1609 49.7118 28.534 49.4302L28.534 49.4302C22.959 48.4647 17.9767 44.8221 15.4218 39.8369L15.4214 39.8361C15.133 39.2671 14.7918 38.4914 14.5228 37.8218C14.3883 37.4869 14.2709 37.1763 14.1868 36.9296C14.1448 36.8065 14.1104 36.6972 14.0862 36.6076C14.064 36.5253 14.0444 36.439 14.0444 36.3727C14.0444 36.3321 14.0553 36.2988 14.0624 36.2801C14.0705 36.2589 14.0805 36.2394 14.0899 36.2229C14.1089 36.1899 14.1331 36.1559 14.159 36.1233Z" fill="#FD790D" stroke="#FD790D" stroke-width="0.4"/>
</svg>
