<svg width="32" height="32" viewBox="0 0 32 32" fill="none" xmlns="http://www.w3.org/2000/svg">
<path fill-rule="evenodd" clip-rule="evenodd" d="M16 32C7.16344 32 0 24.8366 0 16C0 7.16344 7.16344 0 16 0C24.8366 0 32 7.16344 32 16C32 24.8366 24.8366 32 16 32ZM16.5274 24.9017C21.773 24.8995 26.0393 20.6322 26.0414 15.3877C26.0424 12.8456 25.0537 10.4552 23.2575 8.65694C21.4612 6.85858 19.0724 5.86777 16.5273 5.86667C11.2832 5.86667 7.01519 10.1345 7.0131 15.3802C7.01239 17.057 7.45049 18.6937 8.28308 20.1366L6.93333 25.0667L11.9769 23.7436C13.3665 24.5016 14.9311 24.9011 16.5234 24.9017H16.5274Z" fill="white"/>
<path fill-rule="evenodd" clip-rule="evenodd" d="M12.2106 22.0213L9.21765 22.8064L10.0165 19.8883L9.82849 19.5891C9.03691 18.3301 8.61883 16.8749 8.61945 15.3807C8.62118 11.0207 12.1686 7.47363 16.5305 7.47363C18.6426 7.47437 20.6281 8.29794 22.1211 9.79267C23.6141 11.2874 24.4358 13.2741 24.435 15.3871C24.4333 19.7474 20.8859 23.2949 16.5274 23.2949H16.5242C15.1052 23.2944 13.7134 22.9131 12.4993 22.1926L12.2106 22.0213ZM21.3205 17.6501C21.2611 17.5509 21.1027 17.4914 20.8649 17.3724C20.6272 17.2534 19.4584 16.6784 19.2405 16.599C19.0226 16.5197 18.8641 16.4801 18.7056 16.718C18.5472 16.9559 18.0916 17.4914 17.9529 17.6501C17.8142 17.8087 17.6755 17.8286 17.4379 17.7096C17.2002 17.5906 16.4342 17.3396 15.5262 16.5297C14.8194 15.8993 14.3423 15.1208 14.2037 14.8828C14.065 14.6448 14.1889 14.5162 14.3079 14.3977C14.4149 14.2911 14.5456 14.12 14.6645 13.9812C14.7834 13.8424 14.823 13.7432 14.9022 13.5846C14.9814 13.4259 14.9418 13.2871 14.8824 13.1681C14.823 13.0491 14.3475 11.879 14.1494 11.403C13.9565 10.9395 13.7605 11.0023 13.6146 10.9949C13.4761 10.988 13.3174 10.9865 13.159 10.9865C13.0005 10.9865 12.7429 11.046 12.525 11.284C12.3071 11.522 11.693 12.0971 11.693 13.2672C11.693 14.4373 12.5448 15.5677 12.6637 15.7264C12.7825 15.8851 14.34 18.2862 16.7247 19.3159C17.2919 19.5609 17.7347 19.7071 18.08 19.8167C18.6494 19.9977 19.1677 19.9721 19.5773 19.9109C20.034 19.8427 20.9837 19.3359 21.1819 18.7806C21.3799 18.2252 21.3799 17.7492 21.3205 17.6501Z" fill="white"/>
</svg>
