<svg width="154" height="72" viewBox="0 0 154 72" fill="none" xmlns="http://www.w3.org/2000/svg">
<path d="M80.5575 5.36058C80.3517 5.39513 80.1345 5.51028 80.0659 5.62543C79.9859 5.77512 79.7687 5.86724 79.2999 5.91331C76.8304 6.20119 73.2291 7.05331 71.0683 7.87088C66.8153 9.45997 60.9846 12.2006 56.5944 14.6648L54.7994 15.6782L52.1356 15.7818C39.5938 16.2769 26.8919 18.0618 20.9811 20.1576C18.8089 20.9291 16.248 22.3569 15.9278 22.9788C15.6535 23.4739 15.7449 25.6733 16.0879 27.3891C16.4195 28.9782 16.4652 30.2218 16.2251 31.2351C15.985 32.2024 16.2594 33.043 17.1283 34.0448L17.5513 34.54H18.7289C20.1123 34.54 20.4324 34.6321 20.9011 35.1733L21.2441 35.5648L24.6968 35.7491C26.5832 35.8412 28.2181 35.9218 28.321 35.9218C28.4811 35.9218 28.5039 35.7491 28.5039 34.7933C28.5039 33.1006 28.6411 30.8091 28.7326 30.9933C28.7783 31.0739 28.8469 31.6382 28.8812 32.2369C28.9612 33.5036 29.167 34.2751 29.7272 35.4036C30.4818 36.9121 31.3621 37.9945 32.5512 38.8812L33.2143 39.3763H21.4042C14.8989 39.3763 9.38827 39.4109 9.15961 39.4454C8.58797 39.5491 8.61084 39.6757 9.21678 39.7679C9.49117 39.8139 15.3219 39.8945 22.1702 39.9521C34.2661 40.0557 34.6434 40.0673 35.5351 40.2976C36.6898 40.6085 38.6791 40.6315 39.9368 40.3436C40.7142 40.1709 42.6692 40.1479 60.1157 40.1018C79.5629 40.0442 110.957 40.2285 112.764 40.4127C115.245 40.666 115.896 40.666 117.223 40.4703C118.389 40.2976 120.035 40.263 131.822 40.1939C139.128 40.1594 145.142 40.0788 145.187 40.0327C145.244 39.9866 145.222 39.8945 145.142 39.8485C144.867 39.6757 140.889 39.6066 131.125 39.5951C125.774 39.5836 121.064 39.5491 120.652 39.503L119.909 39.4339L120.321 39.1806C120.55 39.0309 121.19 38.4321 121.761 37.8448C122.619 36.9466 122.893 36.5666 123.328 35.68C124.071 34.1369 124.231 33.3885 124.231 31.6036C124.231 29.8994 124.059 29.0818 123.453 27.8497C122.173 25.2357 120.149 23.5315 117.508 22.8406C116.434 22.5642 114.25 22.5527 113.221 22.8406C110.912 23.4624 108.694 25.1897 107.528 27.2854C106.293 29.5079 106.144 32.6976 107.173 35.1733C107.745 36.5782 109.06 38.2133 110.351 39.1345L110.854 39.4915L88.229 39.48C75.7901 39.4685 60.4358 39.4224 54.1134 39.3879L42.6349 39.3188L43.4009 38.72C44.4413 37.8909 45.3445 36.7509 45.939 35.5188C46.5906 34.1715 46.7964 33.2963 46.8993 31.546C46.9679 30.2333 46.9908 30.1642 47.0708 30.74C47.1166 31.0854 47.1852 32.5133 47.2309 33.9066L47.3109 36.44L76.5218 36.3939C92.5849 36.3709 105.744 36.3479 105.744 36.3363C105.755 36.3363 105.824 35.0236 105.881 33.446C105.984 31.2466 106.064 30.3369 106.247 29.5885C106.933 26.7557 108.865 24.4297 111.54 23.1976C112.981 22.5412 113.667 22.403 115.508 22.403C117.428 22.403 118.149 22.5527 119.589 23.2436C121.75 24.2915 123.236 25.8806 124.128 28.1376C124.677 29.5194 124.791 30.2679 124.848 33.0085L124.905 35.5763H125.477C125.797 35.5763 127.684 35.323 129.673 35.0006C131.662 34.6897 134.349 34.2982 135.641 34.1369C139.265 33.6763 139.139 33.7224 140.465 32.3291C142.032 30.6824 141.975 30.7976 141.815 29.7266C141.712 28.9897 141.712 28.6788 141.849 28.0224C142.055 27.0666 142.26 25.0976 142.26 24.1879C142.26 23.6582 142.18 23.3933 141.792 22.6909C140.751 20.7679 140.603 19.6854 140.957 16.9448L141.151 15.5285L140.728 14.9182L140.317 14.3079L138.739 14.2388C137.87 14.1927 136.647 14.0891 136.018 13.9969C135.401 13.9048 133.812 13.7206 132.485 13.5824L130.084 13.3406L127.169 12.2927C123.03 10.8188 119.543 9.6327 117.223 8.93028C115.336 8.36604 115.21 8.30846 115.05 7.96301C114.845 7.53695 114.559 7.45634 111.38 6.91513C107.619 6.27028 102.943 5.79816 97.4438 5.52179C95.0086 5.39513 81.1978 5.26846 80.5575 5.36058ZM98.7586 6.2127C102.611 6.45452 106.624 6.94967 111.049 7.72119C112.992 8.05513 113.793 8.23937 113.793 8.35452C113.793 8.51573 113.541 8.86119 113.438 8.86119C113.37 8.86119 112.844 8.68846 112.261 8.46967C109.46 7.42179 102.806 6.66179 93.4995 6.31634C85.3708 6.02846 80.4661 6.46603 74.9326 7.99755C74.4524 8.12422 74.2123 8.13573 73.8236 8.04361C73.5492 7.97452 73.3206 7.87088 73.3206 7.82482C73.3206 7.64058 77.2535 6.83452 79.7229 6.5121C81.1635 6.32785 84.0903 6.10907 86.0682 6.05149C88.2747 5.9824 96.8607 6.09755 98.7586 6.2127ZM98.2327 7.07634C101.045 7.30664 104.349 7.68664 104.704 7.82482C105.012 7.93998 105.081 8.14725 104.829 8.23937C104.749 8.27391 104.246 8.21634 103.732 8.12422C103.217 8.02058 102.531 7.93998 102.223 7.93998C101.914 7.93998 101.571 7.89391 101.457 7.83634C100.977 7.57149 95.1801 7.17997 89.7838 7.04179C86.6055 6.96119 86.5026 6.96119 88.0117 6.89209C90.4012 6.78846 95.8089 6.88058 98.2327 7.07634ZM108.248 8.343C112.261 9.05694 114.433 9.65573 123.282 12.5345C128.141 14.1121 131.628 14.9872 134.543 15.3442C134.738 15.3672 133.32 15.4018 131.399 15.4133C127.912 15.4363 127.066 15.4939 127.021 15.7127C126.998 15.8279 130.953 15.943 135.778 15.9891L137.927 16.0006L138.396 16.9794C138.648 17.5206 138.831 18.0042 138.785 18.0388C138.751 18.0848 138.522 17.9351 138.282 17.7048C138.053 17.4745 137.687 17.2097 137.482 17.106C136.898 16.8066 134.863 16.5763 132.725 16.5763C131.045 16.5763 130.748 16.5994 130.439 16.7951C130.107 16.9909 129.639 17.0139 122.71 17.083C118.652 17.1291 114.673 17.2097 113.85 17.2557C113.038 17.3133 112.352 17.3479 112.341 17.3363C112.329 17.3363 112.775 16.8642 113.313 16.2885C113.861 15.7242 114.444 15.0448 114.604 14.7915C114.765 14.5382 115.108 14.043 115.37 13.6975C115.862 13.0412 115.976 12.546 115.736 12.0739C115.588 11.8091 115.771 11.786 116.194 12.0279C116.571 12.2466 116.72 12.2466 116.537 12.0279C116.445 11.9242 116.445 11.8551 116.514 11.8551C116.674 11.8551 117.108 12.4769 117.108 12.7072C117.108 13.0412 116.662 13.7897 116.411 13.8703C116.274 13.9163 116.205 14.0085 116.239 14.1121C116.274 14.2042 116.228 14.2733 116.136 14.2733C115.908 14.2733 115.599 14.78 115.691 15.0103C115.725 15.1139 115.805 15.1945 115.851 15.1945C116.011 15.1945 116.091 14.9872 115.965 14.9066C115.793 14.803 115.828 14.6188 116.011 14.6188C116.365 14.6188 117.223 13.2715 117.223 12.7188C117.223 12.0163 116.834 11.74 114.73 10.9339C113.004 10.2775 109.963 9.39088 107.688 8.86119C105.95 8.46967 105.675 8.36604 105.675 8.1127C105.675 7.8824 105.641 7.8824 108.248 8.343ZM72.5203 8.343C72.7947 8.67694 72.566 8.8727 71.0912 9.54058C70.2794 9.90907 67.2955 11.3485 64.4601 12.7533C61.6362 14.1466 58.9724 15.4018 58.5608 15.54C57.8977 15.7588 57.7033 15.7818 57.0745 15.6782C56.5143 15.5975 56.4457 15.563 56.7659 15.5515C57.086 15.54 57.1774 15.4939 57.1317 15.3788C57.0517 15.1715 57.5661 14.8606 60.7445 13.2485C64.8946 11.1297 68.6788 9.42543 70.9768 8.60785C71.6742 8.36604 72.2687 8.17028 72.303 8.17028C72.3488 8.17028 72.4402 8.25088 72.5203 8.343ZM88.5148 8.27391C88.652 8.36604 88.4462 9.0224 87.3944 11.9472L86.1025 15.5054L85.3936 15.5745C84.7305 15.6436 78.854 15.8279 73.5492 15.943C72.2001 15.9776 70.6339 16.0236 70.0622 16.0582C69.502 16.0927 68.9761 16.0812 68.8961 16.0236C68.7817 15.9545 68.7932 15.8048 68.9189 15.3788C69.159 14.5842 69.1362 14.2503 68.7932 13.7436L68.4959 13.306L68.7589 13.0757C68.9075 12.9606 69.7078 12.5345 70.5195 12.1315C74.9212 10.0127 78.271 8.93028 81.7237 8.51573C84.056 8.22785 88.2175 8.08967 88.5148 8.27391ZM90.1725 8.27391C90.2068 8.33149 90.1382 8.82664 90.0125 9.39088C89.8981 9.95513 89.5895 11.5212 89.3379 12.88C89.075 14.2618 88.812 15.3903 88.732 15.4479C88.5605 15.5515 87.5544 15.5745 87.0628 15.4709L86.7198 15.4018L87.1085 14.2848C87.3258 13.6745 87.9203 12.0509 88.4347 10.6691L89.3494 8.17028H89.7267C89.9439 8.17028 90.1382 8.21634 90.1725 8.27391ZM93.8425 8.343C100.977 8.723 107.848 9.98967 112.752 11.8206C113.393 12.0509 113.907 12.2927 113.907 12.3503C113.907 12.4079 113.804 12.4309 113.667 12.3963C113.473 12.3503 113.461 12.3618 113.576 12.5C113.656 12.5921 113.804 12.6382 113.918 12.6036C114.273 12.4885 114.17 12.7418 113.393 13.9394L112.649 15.0794H111.666C110.786 15.0794 110.683 15.0563 110.626 14.8491C110.557 14.5842 110.134 14.5266 110.134 14.7915C110.134 14.8836 109.986 14.9757 109.768 15.0103C109.563 15.0448 106.304 15.1254 102.531 15.1945C98.7586 15.2636 94.3455 15.3672 92.7221 15.4248C91.11 15.4824 89.7038 15.4939 89.6009 15.4594C89.4751 15.4133 89.4408 15.2982 89.4751 15.0909C89.6352 14.1236 90.7213 8.53876 90.767 8.36604C90.8242 8.17028 90.9271 8.15876 91.7045 8.21634C92.1961 8.25088 93.1565 8.30846 93.8425 8.343ZM75.6071 8.56179C75.6071 8.58482 75.2641 8.723 74.8411 8.8727C72.909 9.51755 68.7703 11.4291 65.3176 13.2945C61.6934 15.2406 59.7727 16.2194 59.0867 16.4382C57.5204 16.9563 57.3261 16.8527 58.8009 16.2885C59.7384 15.943 62.0592 14.7915 66.861 12.3157C70.3938 10.4848 72.6575 9.44846 74.2924 8.90725C75.4471 8.51573 75.6071 8.48119 75.6071 8.56179ZM118.972 10.1854C122.402 11.2909 123.328 11.6248 123.248 11.6939C123.179 11.763 115.359 9.41391 114.799 9.14907L114.422 8.97634L114.993 9.0224C115.313 9.05694 117.097 9.57512 118.972 10.1854ZM115.279 12.5345C115.279 12.6957 115.165 13.0182 115.039 13.2369C114.707 13.7782 113.541 15.2176 113.484 15.1485C113.45 15.1254 113.633 14.7915 113.884 14.423C114.49 13.5248 114.822 12.8454 114.822 12.5115C114.822 12.1775 114.902 12.0854 115.119 12.166C115.21 12.2006 115.279 12.3618 115.279 12.5345ZM135.401 14.5612C136.693 14.7224 138.19 14.8491 138.728 14.8491C139.551 14.8491 139.768 14.8836 139.985 15.0794C140.225 15.2751 140.237 15.3212 140.088 15.4248C139.894 15.5515 138.991 15.5745 138.339 15.4594C138.042 15.4133 137.927 15.3442 137.962 15.2406C138.053 14.9988 137.71 15.0448 137.596 15.2751C137.539 15.3903 137.516 15.5515 137.539 15.6206C137.584 15.7357 136.864 15.7703 134.177 15.7472L130.77 15.7357L133.972 15.6436C136.796 15.563 137.184 15.5285 137.31 15.3442C137.39 15.2406 137.459 15.1139 137.459 15.0794C137.459 15.0333 136.91 14.9642 136.235 14.9182C134.886 14.8376 131.994 14.446 131.456 14.2733C130.942 14.1006 132.645 14.2272 135.401 14.5612ZM68.1872 15.5515C68.3587 15.6551 67.9357 15.966 67.4441 16.1042L66.9982 16.2194L67.3526 15.8509C67.7642 15.4248 67.7985 15.2866 67.5356 15.0333C67.3755 14.8606 67.3755 14.826 67.627 14.6303L67.89 14.4115L67.9814 14.9412C68.0386 15.2406 68.1301 15.5054 68.1872 15.5515ZM112.124 15.9891L112.787 16.0582L112.467 16.3806C112.295 16.5648 111.998 16.7951 111.826 16.8988C111.655 17.0024 111.506 17.1406 111.506 17.2097C111.506 17.2903 111.072 17.3939 110.454 17.463C109.871 17.5321 108.774 17.7279 108.019 17.9006C105.824 18.3957 101.594 19.8812 101.079 20.3418C100.828 20.5721 100.908 20.7218 101.251 20.6412C101.731 20.5145 103.16 19.8121 103.16 19.6969C103.16 19.6279 103.309 19.5703 103.48 19.5703C103.663 19.5703 104.612 19.34 105.595 19.0521C107.287 18.5685 110.077 17.9582 110.592 17.9582C110.923 17.9582 110.877 18.1769 110.454 18.5915C110.249 18.7988 109.906 19.1903 109.7 19.4782C109.494 19.766 109.162 20.123 108.957 20.2727C108.751 20.4109 108.316 20.9521 107.985 21.4588C107.653 21.9769 107.002 22.8521 106.533 23.4279C106.064 23.9921 105.493 24.7521 105.264 25.0976C104.384 26.4218 103.355 27.6539 103.034 27.7691C102.771 27.8612 102.669 27.9994 102.543 28.4139L102.371 28.9551V28.2872C102.36 27.7921 102.314 27.6309 102.188 27.6309C102.017 27.6309 101.925 27.8842 101.88 28.5521C101.845 28.9091 101.8 28.9551 101.502 29.0012C101.194 29.0357 101.182 29.0472 101.388 29.1394C101.537 29.2085 101.445 29.22 101.102 29.1739C100.233 29.0703 99.9819 29.0703 97.1008 29.243C95.5574 29.3236 93.8882 29.4042 93.3852 29.4157C92.8821 29.4157 90.9385 29.4963 89.075 29.5885C87.2 29.6806 85.6337 29.7036 85.588 29.6576C85.4165 29.4963 85.4851 20.9751 85.6451 20.123L85.8052 19.3515L86.9599 19.2594C87.966 19.1903 88.0575 19.1672 87.6116 19.0982C87.1886 19.0406 87.1543 19.0291 87.4401 18.9945C87.6345 18.983 87.4058 18.9139 86.9256 18.8563C86.4569 18.7988 86.0567 18.7297 86.0339 18.7066C85.9538 18.626 86.777 17.3479 87.2343 16.8297L87.6687 16.346L93.5452 16.2194C96.7807 16.1503 100.313 16.1272 101.4 16.1733L103.389 16.2539L103.4 16.6224C103.469 18.3151 102.771 18.4648 94.1283 18.6606C91.0757 18.7297 88.5148 18.8103 88.4233 18.8333C88.2976 18.8794 88.2861 18.9139 88.4005 19.0291C88.652 19.2824 102.131 19.1212 102.131 18.8679C102.131 18.8103 102.017 18.7527 101.88 18.7527C101.731 18.7412 101.891 18.6951 102.223 18.6376C103.08 18.4879 103.48 18.246 103.686 17.7509C104.315 16.2654 104.532 16.1503 106.762 16.0121C108.591 15.8969 111.22 15.8854 112.124 15.9891ZM140.271 16.2539C140.225 16.4612 140.168 17.3479 140.123 18.2115C140.088 19.0866 140.02 19.766 139.962 19.7315C139.917 19.7085 139.677 19.0751 139.448 18.3266C139.219 17.5897 138.933 16.7836 138.819 16.5533C138.705 16.3115 138.602 16.1042 138.602 16.0697C138.602 16.0006 139.162 15.9315 139.848 15.9085L140.34 15.8854L140.271 16.2539ZM52.9244 16.4612C53.0959 16.5303 53.2102 16.5994 53.1874 16.6224C53.0845 16.7145 50.3177 16.7836 50.4092 16.6915C50.7179 16.3921 52.3414 16.2424 52.9244 16.4612ZM86.7884 16.4382C86.8913 16.5072 86.7999 16.6569 86.4454 16.9909C86.1711 17.2442 85.8052 17.6703 85.6223 17.9351C85.0392 18.7988 85.0849 18.7872 73.3206 19.2248C69.9593 19.3515 65.2033 19.5357 62.7566 19.6279C60.3215 19.7315 58.2978 19.7891 58.2635 19.766C58.2407 19.7315 58.4007 19.34 58.618 18.8909C58.8466 18.4418 59.0295 18.0503 59.0295 18.0157C59.0295 17.9927 58.8581 18.0618 58.6637 18.1654C58.4007 18.3151 58.2178 18.5569 58.0463 18.983C57.9091 19.3169 57.7491 19.6394 57.6919 19.6969C57.5204 19.8697 55.7369 19.9963 50.6264 20.2036C45.9733 20.3879 45.1158 20.4454 45.0244 20.6066C44.8529 20.883 47.5853 20.8485 54.8794 20.4685C56.3428 20.3994 57.5661 20.3648 57.6004 20.3879C57.6805 20.48 57.3261 23.52 57.2232 23.6236C57.166 23.6812 56.1256 23.7618 54.9023 23.8194C53.679 23.8654 53.0502 23.923 53.5075 23.923C53.9534 23.9345 54.365 23.9921 54.3993 24.0612C54.445 24.1303 55.0624 24.1763 55.897 24.1763H57.3146V24.4642C57.3146 24.6715 57.246 24.7636 57.0631 24.7982C56.9145 24.8327 55.6226 24.8788 54.1706 24.9018C51.5982 24.9594 50.9123 25.0515 50.9123 25.3624C50.9123 25.443 51.1752 25.7654 51.4953 26.0763C51.8154 26.3988 52.1356 26.8133 52.2156 27.0091C52.3757 27.366 53.3817 28.1376 53.5532 28.0224C53.599 27.9994 53.7019 28.08 53.7819 28.2182C53.8848 28.4139 53.9305 28.4369 54.0105 28.3103C54.0906 28.1836 54.1134 28.1836 54.1134 28.3448C54.1134 28.4485 54.2506 28.6442 54.4107 28.7709C54.7422 29.0357 54.9709 29.0933 54.8451 28.8745C54.7994 28.8054 54.9709 28.9436 55.211 29.1969C55.4625 29.4388 56.137 29.8994 56.7201 30.1988C57.3032 30.5097 57.7719 30.7745 57.7719 30.7976C57.7719 30.8091 57.852 31.2582 57.9549 31.7763C58.0463 32.2945 58.0921 32.7551 58.0578 32.8012C57.9549 32.8933 54.5936 33.02 51.4725 33.0315L48.8772 33.043L48.74 31.9145C48.4542 29.5654 47.9855 27.9188 47.1051 26.1915C46.7278 25.443 46.3963 25.0285 45.3788 23.9921C44.3498 22.9672 43.9382 22.6333 43.1951 22.2533C40.8285 21.0327 38.1304 20.6757 35.5123 21.2285C33.763 21.6085 31.6708 22.5642 31.4765 23.0709C31.4193 23.2206 31.3278 23.3818 31.2592 23.4279C31.1792 23.4739 31.1678 23.4279 31.2135 23.2897C31.2821 23.1169 31.2592 23.1169 30.9963 23.3242C30.5847 23.6466 29.7615 24.6254 29.7615 24.7866C29.7615 24.8672 29.6358 25.0745 29.4757 25.2703L29.1899 25.6157L29.43 25.1551L29.6701 24.6945L29.2585 25.1551C28.5382 25.9612 27.7151 27.8151 27.4178 29.3006C27.1777 30.5097 26.9033 34.1369 27.1206 33.1582C27.2006 32.8242 27.2235 32.9048 27.2349 33.6188C27.2463 34.0909 27.2806 34.6091 27.3264 34.7703C27.3607 34.9315 27.3492 35.0236 27.3035 34.9776C27.2463 34.9315 27.132 34.9545 27.0405 35.0236C26.8576 35.1848 24.3195 35.1733 22.6846 35.0121C21.77 34.92 21.1298 34.6436 21.1641 34.3672C21.1755 34.2982 21.5528 34.2176 22.0101 34.183C23.1305 34.0794 23.7708 33.8951 23.9765 33.5957C24.068 33.4691 24.3538 33.2157 24.6168 33.043C25.2113 32.6515 25.8058 31.8224 26.0573 31.0509C26.2974 30.3254 26.3317 29.1969 26.1259 28.9897C25.9316 28.7939 23.4163 28.7248 22.0101 28.886C20.4209 29.0588 20.2151 29.1969 19.6321 30.4636C19.1748 31.4539 18.969 31.7648 18.8203 31.6266C18.7289 31.523 19.2434 29.6806 19.4949 29.22C19.815 28.6557 20.2266 28.4715 21.5414 28.3103C22.7418 28.1491 23.2105 27.9994 22.5589 27.9648L22.1587 27.9418L22.616 27.8612C23.0619 27.7806 23.0619 27.7806 22.4445 27.7691C21.5985 27.746 20.1237 28.0224 19.6778 28.2872C19.2205 28.5521 18.969 29.0588 18.5688 30.4751L18.2487 31.6036L17.5284 31.6382L16.8082 31.6727L16.8882 31.2351C16.9225 30.9933 16.9911 30.2679 17.0254 29.623L17.1054 28.46L17.5399 28.2642C18.3745 27.8727 18.4431 27.723 18.5803 25.9036C18.6374 25.0054 18.6603 24.0957 18.626 23.8885C18.5345 23.4048 18.0772 23.0248 17.597 23.0248C16.8196 23.0248 16.8882 22.8291 17.8257 22.3569C21.7357 20.3763 30.4018 18.7412 43.2523 17.5666C46.785 17.2327 53.2788 16.8066 54.4336 16.8182C56.2285 16.8297 54.4564 17.0369 50.1463 17.3248C40.4169 17.9466 34.1632 18.626 28.6183 19.6394C24.571 20.3763 19.7464 21.9079 19.5063 22.5182C19.4148 22.7715 19.9979 23.9115 20.3523 24.1418C20.5924 24.303 20.8325 24.303 22.7532 24.1303C25.7372 23.8769 27.0748 23.6582 27.7837 23.3127C28.5382 22.9327 30.4475 21.1133 30.9277 20.3072C31.1335 19.9618 31.3393 19.6854 31.385 19.6854C31.4307 19.6854 32.5626 19.5357 33.9002 19.34C38.4505 18.7066 42.9893 18.3036 50.5121 17.843C56.2171 17.4976 57.9434 17.3248 58.9381 16.9679C59.1782 16.8872 59.3954 16.8642 59.4297 16.9218C59.5326 17.0945 59.2239 17.6127 59.0181 17.6127C58.9038 17.6127 58.778 17.6703 58.7437 17.7394C58.5837 17.9927 58.8123 17.9697 59.3954 17.6703C59.9442 17.3824 60.15 17.3479 61.8306 17.2557C64.5745 17.1175 69.1247 16.9333 73.6064 16.7951C75.8129 16.726 78.9455 16.5994 80.5804 16.5188C84.1703 16.346 86.5826 16.3115 86.7884 16.4382ZM134.909 16.9909C135.344 17.0369 135.492 17.0945 135.446 17.2097C135.401 17.3018 135.527 17.44 135.732 17.5551C135.927 17.6472 136.087 17.7509 136.087 17.7739C136.087 17.7854 135.847 17.7624 135.549 17.7163C134.795 17.5897 134.349 17.5897 134.429 17.7163C134.463 17.7739 134.383 17.8545 134.257 17.9006C133.903 18.0157 133.983 18.4072 134.463 18.8448C134.692 19.0751 134.783 19.2018 134.646 19.1327C134.36 18.983 133.457 18.0042 133.457 17.8545C133.457 17.6242 132.988 17.463 132.725 17.6012C132.451 17.7394 130.713 17.8315 130.713 17.7048C130.713 17.6588 130.805 17.5666 130.919 17.5091C131.102 17.3939 131.102 17.3939 130.919 17.3824C130.69 17.3824 130.645 17.2097 130.85 17.083C131.239 16.8412 132.988 16.7951 134.909 16.9909ZM130.37 17.9006C130.839 18.6721 132.966 20.0654 134.143 20.3763C134.429 20.4569 135.252 20.5836 135.972 20.6642L137.287 20.8139L136.315 20.8485L135.344 20.8715L136.03 20.9521L136.716 21.0327L135.915 21.0557C134.395 21.1133 135.515 21.286 137.436 21.286L139.299 21.2976L139.517 20.7794C139.642 20.4915 139.791 20.2612 139.86 20.2612C139.928 20.2612 140.077 20.48 140.191 20.7448C140.317 21.0212 140.648 21.7582 140.934 22.38C141.54 23.6812 141.529 23.7157 140.546 23.7042C139.985 23.6812 139.962 23.6812 140.317 23.6006C140.854 23.4969 140.591 23.4048 139.459 23.3127C137.299 23.14 136.121 22.7139 133.652 21.2054C132.325 20.3879 131.868 20.1691 132.428 20.6066C132.588 20.7333 132.657 20.8369 132.577 20.8369C132.508 20.8369 132.291 20.6527 132.108 20.4224C131.914 20.1921 131.708 20.0424 131.639 20.0769C131.571 20.123 131.514 20.1 131.514 20.0194C131.514 19.8351 131.171 19.4551 130.999 19.4551C130.931 19.4551 130.862 19.5357 130.862 19.6394C130.862 19.8582 131.662 20.4685 133.343 21.5394C135.995 23.2321 137.299 23.6582 140.248 23.7963L141.712 23.8654L141.643 24.8557C141.597 25.3969 141.46 26.4333 141.346 27.1588C141.22 27.8727 141.117 28.8745 141.117 29.3697C141.117 29.8879 141.071 30.2794 141.003 30.2794C140.82 30.2794 140.568 29.7957 140.42 29.1854C140.145 28.0224 140.088 28.0109 140.123 29.1163C140.145 30.1872 140.145 30.1872 140.546 30.5212L140.934 30.8551L140.431 31.3733C139.494 32.3406 139.357 32.0527 139.517 29.5309C139.654 27.2739 140.054 27.4697 135.401 27.5503C133.354 27.5963 130.347 27.723 128.713 27.8612C127.078 27.9879 125.729 28.0915 125.717 28.0915C125.694 28.0915 125.683 28.0224 125.683 27.9418C125.683 27.6654 124.757 25.8576 124.254 25.1551C123.168 23.6121 121.476 22.3339 119.418 21.5048L118.194 21.0097H115.565C112.97 21.0097 112.924 21.0097 112.021 21.3321C110.454 21.8963 108.671 22.8982 108.819 23.14C108.854 23.1976 108.614 23.4624 108.282 23.7272C107.802 24.1418 107.722 24.1763 107.836 23.946C108.088 23.4394 106.796 24.8903 106.236 25.7539C105.321 27.1818 104.658 29.0472 104.475 30.7745C104.429 31.2006 104.338 31.5806 104.269 31.6266C104.143 31.6957 101.079 31.903 101.011 31.8454C100.919 31.7418 101.651 31.0394 101.983 30.8897C102.2 30.8091 102.417 30.6133 102.463 30.4751C102.806 29.6 103 29.2085 103.149 29.0933C103.252 29.0127 103.64 28.483 104.006 27.9188C104.761 26.7672 106.762 24.0612 107.665 22.9788C107.985 22.5872 108.328 22.1266 108.419 21.9424C108.511 21.7697 108.705 21.5739 108.842 21.5163C108.991 21.4588 109.105 21.3321 109.105 21.2169C109.105 21.1018 109.631 20.4109 110.26 19.6854C110.9 18.96 111.495 18.246 111.586 18.1079C111.701 17.9236 111.918 17.843 112.341 17.7854C113.313 17.6588 119.315 17.5321 124.905 17.5206L130.119 17.4976L130.37 17.9006ZM132.714 18.1885C132.886 18.2576 133.286 18.5454 133.617 18.8218C133.937 19.1097 134.406 19.4436 134.658 19.5703C135.092 19.7891 135.092 19.8006 134.795 19.8006C134.338 19.8006 133.251 19.3285 132.325 18.7182C131.879 18.4303 131.514 18.1654 131.514 18.1309C131.514 18.0272 132.405 18.0733 132.714 18.1885ZM85.0735 19.5127C85.0964 19.5357 85.0506 20.3072 84.982 21.2285C84.8906 22.2763 84.8563 24.2109 84.8906 26.3988L84.9363 29.8879L83.6787 29.8418C82.9813 29.8072 81.8494 29.8533 81.152 29.9339C80.4546 30.003 79.1627 30.1066 78.2938 30.1412C77.2878 30.1988 76.6932 30.2679 76.6704 30.3485C76.6018 30.5672 77.0705 30.5903 79.7801 30.5327C82.2267 30.4751 82.3868 30.4636 82.604 30.2333C82.7641 30.0606 82.8555 30.0376 82.8898 30.1297C82.9241 30.2103 83.0156 30.2794 83.1071 30.2794C83.21 30.2794 83.2442 30.2218 83.21 30.1642C83.1642 30.0951 83.37 30.0491 83.7473 30.0606C84.1932 30.0606 84.2961 30.0951 84.1246 30.1642C83.9417 30.2448 83.9988 30.2679 84.3761 30.2679C84.9592 30.2794 85.0735 30.4406 85.165 31.3963C85.2221 31.903 85.1993 32.0988 85.0849 32.1909C84.9363 32.306 82.604 32.4097 73.5721 32.6976C70.5653 32.7897 69.4791 32.9163 71.5028 32.9394C72.0973 32.9509 72.909 32.9969 73.3206 33.043C73.9265 33.1121 73.7321 33.1236 72.3488 33.1351C69.9365 33.1697 65.7749 33.0085 66.5752 32.9163C66.9182 32.8818 65.2947 32.8472 62.9624 32.8357L58.7094 32.8127L58.5837 32.0872C58.3664 30.8436 58.3436 30.8897 59.2353 30.9818C59.6584 31.0163 61.0646 31.0969 62.3565 31.1315C64.3458 31.2006 64.7231 31.1891 64.8489 31.0394C64.9517 30.9127 64.9517 30.8551 64.8489 30.7976C64.7803 30.7515 63.3969 30.6709 61.7849 30.6248C58.7209 30.5442 58.4007 30.4866 58.2864 30.0145C58.2293 29.7497 58.0006 27.2509 58.0349 27.2163C58.0463 27.2048 58.8238 27.1357 59.7612 27.0782C60.9045 26.9976 61.4876 26.9054 61.5562 26.8133C61.762 26.4679 60.8931 25.4891 60.0128 25.086C59.727 24.9594 59.2811 24.8672 58.8809 24.8672C57.9206 24.8672 57.4747 24.5794 58.0006 24.2915C58.3093 24.1303 59.9099 24.326 60.5615 24.6254C60.8359 24.7406 61.5333 25.2818 62.1278 25.8345C63.2483 26.8709 63.6255 27.0782 63.3283 26.5024C63.1339 26.1339 62.1621 25.1782 61.3961 24.6024C60.7902 24.1303 60.3786 23.9921 59.1439 23.8194C57.7262 23.6236 57.8405 23.7733 57.932 22.2879C57.9663 21.5854 58.0463 20.8485 58.0921 20.6642L58.1835 20.3188L60.1271 20.2036C61.1903 20.1345 61.9563 20.0424 61.8306 20.0079C61.7048 19.9618 62.1736 19.9503 62.8595 19.9848C63.5569 20.0079 65.9235 19.9618 68.1186 19.8697C71.5028 19.72 76.7847 19.5472 81.7808 19.4091C83.027 19.3745 85.0049 19.4321 85.0735 19.5127ZM30.3332 20.3648C30.1846 20.6642 30.1388 20.6642 29.5215 20.3879L29.0413 20.1691L29.6015 20.0885C29.9102 20.0424 30.2189 19.9963 30.276 19.9848C30.4475 19.9388 30.4818 20.1115 30.3332 20.3648ZM133.114 21.0672C133.274 21.1939 133.354 21.2976 133.286 21.2976C133.229 21.2976 133.046 21.1939 132.886 21.0672C132.725 20.9406 132.657 20.8369 132.714 20.8369C132.783 20.8369 132.954 20.9406 133.114 21.0672ZM29.2471 21.3206C29.4186 21.4703 29.1556 21.8042 28.7783 21.9079C28.5954 21.9654 28.3096 22.0806 28.1381 22.1612L27.818 22.3224V21.7466C27.818 21.4242 27.8637 21.1939 27.9209 21.2285C27.978 21.2745 28.1495 21.2515 28.2981 21.1939C28.5725 21.0788 29.0527 21.1479 29.2471 21.3206ZM118.252 21.6315C118.789 21.7697 119.806 22.1612 120.515 22.5066C121.224 22.8521 121.773 23.0824 121.739 23.0248C121.693 22.9557 121.727 22.9097 121.784 22.9097C121.853 22.9097 121.91 22.9788 121.91 23.0594C121.91 23.14 122.219 23.5085 122.607 23.8885C124.299 25.5582 125.408 27.8151 125.797 30.3369C125.969 31.4194 126.014 34.2176 125.866 34.7127C125.786 35.0236 125.763 35.0351 125.683 34.8279C125.626 34.7012 125.58 33.9988 125.58 33.2733C125.557 31.6497 125.397 30.003 125.157 29.1394C124.174 25.5697 122.127 23.3703 118.629 22.1382C117.783 21.8388 117.634 21.8272 115.622 21.8157C113.175 21.8157 112.627 21.9309 110.992 22.7254C109.208 23.5891 107.653 24.9824 106.819 26.4794C106.601 26.8594 106.304 27.366 106.167 27.5848C106.018 27.8036 105.904 28.1145 105.904 28.2642C105.904 28.4254 105.858 28.5521 105.813 28.5521C105.755 28.5521 105.63 29.1509 105.515 29.8763C105.31 31.3388 105.184 31.7763 104.978 31.7763C104.887 31.7763 104.875 31.5345 104.932 30.9242C104.978 30.36 104.967 30.0491 104.887 29.9915C104.818 29.9569 104.761 29.8072 104.761 29.6691C104.761 29.4848 104.795 29.4618 104.864 29.5654C104.921 29.6691 104.989 29.5194 105.035 29.1279C105.081 28.8054 105.161 28.5751 105.218 28.6097C105.275 28.6442 105.298 28.5982 105.264 28.506C105.23 28.4139 105.298 28.1836 105.424 28.0109C105.813 27.4466 106.361 26.2721 106.304 26.1109C106.27 26.0188 106.43 25.7424 106.647 25.5006C106.876 25.2472 107.025 25.1321 106.979 25.2357C106.944 25.3624 106.967 25.443 107.036 25.443C107.105 25.443 107.162 25.3854 107.162 25.3163C107.162 25.1782 109.643 22.6794 109.711 22.7485C109.734 22.7715 110.226 22.5872 110.797 22.3339C111.758 21.9194 113.084 21.5163 113.964 21.3782C114.822 21.24 117.291 21.3897 118.252 21.6315ZM27.4178 22.1036C27.4178 22.806 27.3149 22.9097 26.366 23.1169L25.8858 23.2321L26.2402 22.5757C26.8462 21.4588 26.9033 21.4012 27.1663 21.4357C27.395 21.4703 27.4178 21.5394 27.4178 22.1036ZM40.6685 21.7466C41.1601 21.8733 42.0518 22.2188 42.6463 22.5066C43.2523 22.7945 43.7667 23.0248 43.801 23.0248C43.8239 23.0248 43.7896 22.9327 43.6981 22.8176C43.6181 22.7139 43.801 22.8751 44.0983 23.1976C44.3955 23.5085 44.6128 23.6812 44.5785 23.566C44.5213 23.3703 44.5327 23.3703 44.83 23.5891C45.0129 23.7157 45.2301 23.9115 45.3216 24.0151C45.4588 24.1879 45.4359 24.1879 45.1387 24.0036L44.7957 23.7848L45.1273 24.1533C45.3216 24.3606 45.5274 24.5218 45.596 24.5218C45.676 24.5218 45.8246 24.6369 45.9504 24.7751C46.1219 24.9939 46.1333 25.0054 45.9733 24.8788C45.8475 24.7866 45.7675 24.7751 45.7675 24.8442C45.7675 25.0169 46.099 25.3279 46.282 25.3279C46.3734 25.3279 46.4192 25.3969 46.3849 25.4891C46.3506 25.5812 46.5106 26.0188 46.7393 26.4679C46.9565 26.9285 47.2995 27.746 47.4824 28.2988C48.0998 30.1757 48.5685 32.8127 48.3056 32.9739C48.1112 33.0891 48.0541 32.9163 47.7682 31.1776C47.4481 29.266 47.1509 28.2297 46.6021 27.1127C45.333 24.5794 43.2751 22.8521 40.7027 22.1727C39.0679 21.7466 36.1525 21.8503 34.5633 22.3915C32.1053 23.2321 30.2417 24.8327 29.1327 27.0551C28.3439 28.6442 28.0466 30.0491 27.9437 32.8357C27.898 34.0218 27.8294 35.0236 27.7951 35.0697C27.5664 35.3 27.475 34.8739 27.475 33.5266C27.475 30.2909 28.0466 27.8612 29.2471 25.9727C29.6701 25.3048 31.7623 23.0018 31.8538 23.1054C31.888 23.1285 32.231 22.9672 32.6312 22.7485C33.5229 22.2648 34.8148 21.8157 36.0153 21.5854C37.2386 21.3551 39.468 21.4357 40.6685 21.7466ZM24.8226 21.7121C24.9598 21.8042 25.0741 22.0115 25.0741 22.1727C25.0741 22.403 25.0169 22.4491 24.7082 22.4491C24.5025 22.4491 24.2166 22.4836 24.0794 22.5182C23.8393 22.5872 23.8165 22.5527 23.8165 22.1957C23.8165 21.5509 24.2738 21.3206 24.8226 21.7121ZM23.1076 22.8751C23.0733 23.3818 23.0505 23.4163 22.6732 23.52C22.033 23.6927 21.0497 23.543 20.8097 23.2436C20.6953 23.1054 20.6267 22.9327 20.6496 22.8636C20.6725 22.7945 21.1984 22.5757 21.8272 22.38C23.1191 21.9769 23.1648 22 23.1076 22.8751ZM40.1654 23.2666C42.7035 23.946 45.0015 26.226 45.8704 28.9091C46.4992 30.8666 46.3391 33.2733 45.4588 35.0582C44.6928 36.5782 43.2065 38.1673 41.8117 38.9503L41.0457 39.3763H37.8445H34.6434L33.8888 38.9503C32.9856 38.4551 31.3507 36.8545 30.7333 35.8757C29.8416 34.4594 29.3271 32.4327 29.4643 30.8091C29.7387 27.4697 32.0024 24.5218 35.1121 23.4279C36.6784 22.8751 38.4848 22.8176 40.1654 23.2666ZM116.811 23.3703C118.354 23.6006 119.818 24.3836 121.121 25.6733C122.104 26.6636 122.79 27.746 123.248 29.0703C123.522 29.8879 123.556 30.1527 123.568 31.4885C123.568 33.5957 123.133 35.0466 122.047 36.5206C121.144 37.7527 119.452 39.0769 118.4 39.3648C118.149 39.4339 116.754 39.4915 115.153 39.4915H112.341L111.552 39.0539C110.5 38.4897 108.614 36.6012 108.111 35.6339C107.367 34.1715 106.99 32.3751 107.127 30.9012C107.299 28.9551 108.282 26.9515 109.757 25.5466C111.701 23.6697 114.01 22.9672 116.811 23.3703ZM30.8934 23.7388C30.8705 23.7618 30.699 23.9 30.5047 24.0612L30.1617 24.3491L30.4932 23.9806C30.6762 23.7733 30.8591 23.6236 30.882 23.6582C30.9163 23.6927 30.9163 23.7272 30.8934 23.7388ZM17.2083 24.0957C17.3226 24.1303 17.437 24.1188 17.4713 24.0612C17.517 23.9921 17.6199 23.946 17.6999 23.946C17.8371 23.946 17.8371 24.0036 17.7457 24.2569C17.5627 24.7406 17.5513 26.3527 17.7342 26.4679C17.8143 26.5139 17.8486 26.6291 17.8143 26.7327C17.78 26.8248 17.8257 26.9745 17.9172 27.0551C18.1687 27.2509 18.0429 27.4006 17.6085 27.4006L17.2426 27.4121L17.5284 27.5733C17.7914 27.7115 17.7914 27.7345 17.6085 27.8151C17.3112 27.9303 17.2312 27.8036 16.9682 26.8363C16.7967 26.203 16.7624 25.9497 16.8653 25.8921C17.0254 25.7885 17.0368 25.2703 16.9225 24.4066C16.8653 24.0612 16.8653 23.8309 16.9225 23.9C16.9682 23.9691 17.1054 24.0497 17.2083 24.0957ZM18.2144 25.2818C18.2144 26.7788 18.0543 27.1472 17.9629 25.8806C17.9057 25.2357 18.0543 23.8309 18.1687 23.8309C18.1915 23.8309 18.2144 24.4872 18.2144 25.2818ZM44.6814 24.7521C44.7957 24.8788 44.8643 24.9824 44.83 24.9824C44.7957 24.9824 44.6814 24.8788 44.567 24.7521C44.4527 24.6254 44.3841 24.5218 44.4184 24.5218C44.4527 24.5218 44.567 24.6254 44.6814 24.7521ZM54.9709 25.2818C54.3421 25.3739 53.5532 25.42 53.2331 25.3854C52.8444 25.3394 52.6272 25.3509 52.6272 25.4315C52.6272 25.5582 51.9183 25.5236 51.5639 25.3854C51.0723 25.1782 51.7583 25.0976 53.8848 25.1091L56.1142 25.1206L54.9709 25.2818ZM57.3146 25.4315C57.3146 25.4891 57.3489 25.7079 57.3832 25.9151L57.4633 26.3066L57.1317 26.0072C56.9488 25.846 56.6744 25.6272 56.5143 25.5236L56.2399 25.3279H56.7773C57.0745 25.3279 57.3146 25.3739 57.3146 25.4315ZM59.8298 25.5927C60.0471 25.7079 60.4358 25.9842 60.6873 26.203L61.1446 26.606L59.6812 26.5715C58.3779 26.5369 58.195 26.5139 58.0463 26.3182C57.8748 26.0763 57.8291 25.5351 57.9777 25.3969C58.1149 25.2472 59.4068 25.3854 59.8298 25.5927ZM56.1828 25.9957L56.6858 26.2145L55.9084 26.3066C54.7079 26.4448 53.0959 26.3297 52.6272 26.0763C52.2613 25.8921 52.2499 25.8576 52.4557 25.7654C52.5814 25.7194 53.3589 25.6963 54.182 25.7194C55.3482 25.7539 55.7941 25.823 56.1828 25.9957ZM56.823 26.7672C56.9716 26.9285 56.823 26.94 55.3596 26.9169C54.182 26.8939 53.7133 26.8479 53.679 26.7327C53.6104 26.5024 56.5829 26.5369 56.823 26.7672ZM57.4747 27.4351C57.509 27.5733 57.5661 28.2527 57.6119 28.9321L57.6919 30.1872L57.0174 29.8418C56.6515 29.6576 55.7826 29.1279 55.0967 28.6672C54.4107 28.2182 53.6447 27.7115 53.3817 27.5503L52.913 27.2509L53.256 27.6424L53.599 28.0339L53.2331 27.7C53.0273 27.5042 52.8558 27.32 52.8558 27.2739C52.8558 27.1472 53.8733 27.1012 55.7941 27.1472C57.3489 27.1818 57.4061 27.1933 57.4747 27.4351ZM138.705 27.9648C139.162 28.0569 139.391 28.2297 139.402 28.483C139.402 28.5291 139.231 28.5406 139.036 28.506C137.756 28.2527 134.44 28.3679 134.075 28.6788C133.834 28.886 133.88 29.8994 134.155 30.4751C134.726 31.6612 136.064 32.6976 137.356 32.9739C137.996 33.1006 138.042 33.1351 137.744 33.1927C137.562 33.2272 137.07 33.2963 136.658 33.3309C135.664 33.4345 132.6 33.8721 129.456 34.3788C128.038 34.6091 126.792 34.7933 126.678 34.8048C126.483 34.8279 126.46 34.6897 126.426 32.9279C126.403 31.88 126.323 30.6939 126.255 30.2794C126.197 29.8648 126.106 29.3236 126.072 29.0588L126.003 28.5866L126.552 28.5176C127.455 28.4024 131.639 28.0915 133.686 27.9879C136.281 27.8612 138.11 27.8497 138.705 27.9648ZM103 28.7594C102.794 28.9436 102.794 28.9436 102.932 28.6903C103 28.5406 103.092 28.4485 103.137 28.483C103.172 28.5291 103.114 28.6442 103 28.7594ZM25.4056 29.3927C25.2456 29.5079 25.097 29.8303 25.0055 30.1872C24.9941 30.2448 24.9826 30.3024 24.9712 30.3369C24.9712 30.3715 24.9598 30.4291 24.9483 30.4751C24.9483 30.5327 24.8912 30.6363 24.8226 30.7054C24.7425 30.8091 24.754 30.9127 24.8569 31.0509C25.0627 31.2927 25.0055 31.5921 24.6511 32.1448C24.3996 32.5248 24.2395 32.6515 24.1366 32.5594C24.1137 32.5363 23.9194 32.64 23.6907 32.7897C23.4049 32.9624 23.0962 33.043 22.7075 33.043C21.7814 33.043 21.427 32.9279 20.9354 32.4442C20.6839 32.2024 20.3066 31.9606 20.1123 31.9145L19.7578 31.8454L20.1008 31.7763C20.3866 31.7303 20.5124 31.5806 20.8554 30.9242C21.084 30.4866 21.3927 30.0376 21.5414 29.9224C21.8843 29.6576 22.6618 29.4848 24.0451 29.3697C25.6915 29.2315 25.6229 29.2315 25.4056 29.3927ZM140.546 30.2103C140.534 30.4291 140.214 29.7727 140.214 29.5309C140.214 29.3697 140.26 29.4157 140.374 29.6921C140.465 29.8994 140.546 30.1297 140.546 30.2103ZM20.924 29.9569C20.7754 30.1642 20.5353 30.5788 20.4095 30.8782C20.2723 31.1891 20.1123 31.4309 20.0551 31.4309C19.6778 31.4309 20.318 29.9224 20.8097 29.6691C21.2441 29.4388 21.267 29.4963 20.924 29.9569ZM101.788 29.6806C101.788 29.8303 100.999 30.9472 100.554 31.4309C100.245 31.7418 100.005 31.8915 99.7761 31.903C99.5817 31.9145 99.5246 31.9376 99.6503 31.9721C99.7532 31.9951 99.8447 32.0757 99.8447 32.1448C99.8447 32.2254 99.7304 32.2254 99.536 32.1679C99.113 32.0297 94.5056 32.0642 90.0696 32.2254C88.1261 32.2945 86.3768 32.306 86.1825 32.26C85.8166 32.1563 85.748 31.9606 85.6451 30.763L85.588 30.1642H86.5712C87.1085 30.1642 89.0178 30.0836 90.8128 29.9915C97.7639 29.6115 101.788 29.4963 101.788 29.6806ZM19.6892 32.7436C20.1808 33.2388 20.4895 33.446 20.8097 33.5036C21.1869 33.5842 21.1298 33.5957 20.3866 33.6303C19.8264 33.6418 19.6892 33.6763 19.9865 33.6994C20.238 33.7339 20.501 33.803 20.5581 33.8721C20.6382 33.9527 20.2723 33.9757 19.3806 33.9412C17.8829 33.8836 17.6885 33.78 17.094 32.8012C16.6367 32.0412 16.6938 31.9951 18.0658 32.0412L19.0033 32.0642L19.6892 32.7436ZM104.303 33.9642V35.8066L86.8456 35.8182C63.0653 35.8412 49.426 35.8066 49.0716 35.7376L48.7858 35.68L48.8315 34.6206C48.8543 34.0333 48.8886 33.5497 48.9001 33.5382C48.9115 33.5266 50.9466 33.4806 53.4275 33.4345C57.3489 33.3654 57.9892 33.3769 58.2864 33.5266C58.4808 33.6188 58.961 33.7339 59.3725 33.78C60.733 33.9066 75.6071 33.6303 89.2693 33.2157C97.5353 32.9624 99.2502 32.8588 100.245 32.5824C100.702 32.4557 101.708 32.306 102.486 32.2485C103.263 32.2024 103.995 32.1448 104.109 32.1333C104.281 32.1218 104.303 32.283 104.303 33.9642ZM20.6039 32.6976L20.9011 33.1006L20.6267 32.9163C20.4667 32.8242 20.2609 32.6169 20.1694 32.4672C19.8836 32.0297 20.2494 32.2369 20.6039 32.6976ZM105.172 32.64C105.264 33.1466 105.184 35.7606 105.081 35.8757C105.024 35.9218 104.955 35.9218 104.909 35.8757C104.795 35.7721 104.715 32.8933 104.807 32.5133C104.909 32.1103 105.081 32.1794 105.172 32.64ZM48.3742 34.4479C48.4085 35.3576 48.2598 35.9679 48.0198 35.8872C47.9169 35.8527 47.894 35.5763 47.9169 34.8739C47.9626 33.7569 48.0198 33.4691 48.2027 33.5382C48.2827 33.5612 48.3513 33.9182 48.3742 34.4479ZM35.5923 39.7218C35.5923 39.7794 35.5351 39.8369 35.4665 39.8369C35.4094 39.8369 35.3865 39.7794 35.4208 39.7218C35.4551 39.6527 35.5123 39.6066 35.5466 39.6066C35.5694 39.6066 35.5923 39.6527 35.5923 39.7218ZM40.3369 39.8369C40.3712 39.8945 40.3598 39.9521 40.2912 39.9521C40.234 39.9521 40.1425 39.8945 40.1082 39.8369C40.0739 39.7679 40.0854 39.7218 40.154 39.7218C40.2111 39.7218 40.3026 39.7679 40.3369 39.8369Z" fill="#242424"/>
<path d="M19.0147 23.2897C19.0147 23.497 19.6092 24.3951 19.9751 24.7406L20.2723 25.017L24.6625 24.8327C28.927 24.637 29.4186 24.6024 29.4186 24.4067C29.4186 24.2109 28.9956 24.1764 27.8294 24.257C26.709 24.3376 26.6633 24.3491 27.2463 24.4182C27.8065 24.4758 27.7722 24.4873 26.8805 24.4988C26.3431 24.5103 25.8744 24.4758 25.8515 24.4182C25.8287 24.3491 24.834 24.3606 23.302 24.4527C21.7586 24.5448 20.9469 24.6255 21.1869 24.6715C21.4042 24.7176 21.7129 24.7751 21.8729 24.7982C22.033 24.8327 21.7357 24.8327 21.2098 24.8212C20.6839 24.7982 20.2037 24.7291 20.1351 24.66C20.0322 24.5564 20.0322 24.5218 20.1466 24.5218C20.2266 24.5218 20.0665 24.2109 19.8036 23.8309C19.3577 23.1745 19.0147 22.9558 19.0147 23.2897Z" fill="#242424"/>
<path d="M47.5967 24.0612C47.2995 24.1188 47.4938 24.1533 48.3399 24.1879L49.4832 24.2224L48.5685 24.2915L47.6539 24.3606L48.9115 24.3721C49.9748 24.3836 51.7354 24.2339 51.1066 24.1879C50.9923 24.1879 50.9351 24.1188 50.9694 24.0612C51.0494 23.923 48.2255 23.923 47.5967 24.0612Z" fill="#242424"/>
<path d="M23.7593 27.7461C23.5535 27.8382 23.5535 27.8497 23.7365 27.8497C23.8508 27.8612 23.9079 27.9073 23.8736 27.9764C23.7936 28.1146 25.5085 28.1146 26.6747 27.9764L27.4178 27.8958L26.3317 27.8612L25.2456 27.8267L25.9887 27.7461C26.6175 27.677 26.5146 27.6655 25.3599 27.654C24.6053 27.654 23.8851 27.6885 23.7593 27.7461Z" fill="#242424"/>
<path d="M139.745 29.1855C139.745 29.7497 139.768 30.1758 139.791 30.1527C139.871 30.0721 139.906 28.3218 139.826 28.2412C139.78 28.2067 139.745 28.6212 139.745 29.1855Z" fill="#242424"/>
<path d="M71.7771 30.4061C70.2108 30.4637 68.2215 30.5558 67.3755 30.6133L65.8321 30.7055L67.0325 30.74L68.233 30.7861L67.3183 30.8552C66.4723 30.9243 66.5066 30.9243 67.9014 30.9473C69.8335 30.9818 72.8747 30.8437 72.8061 30.74C72.7146 30.5903 73.2405 30.5097 74.2923 30.5327C75.2298 30.5443 75.2641 30.5558 74.6925 30.6249C74.1323 30.694 74.1894 30.7055 75.1498 30.717C76.1902 30.74 76.6818 30.6249 76.476 30.4291C76.3503 30.2909 75.0126 30.2909 71.7771 30.4061Z" fill="#242424"/>
<path d="M28.4468 21.5279C28.321 21.7237 28.5039 21.8964 28.6869 21.7467C28.7669 21.6776 28.8126 21.574 28.7783 21.5164C28.6983 21.3782 28.5382 21.3897 28.4468 21.5279Z" fill="#242424"/>
<path d="M106.419 25.9151C106.373 25.9842 106.361 26.0533 106.396 26.0879C106.419 26.1224 106.476 26.0648 106.51 25.9612C106.59 25.7654 106.521 25.7309 106.419 25.9151Z" fill="#242424"/>
<path d="M24.2738 22.046C24.2738 22.1612 24.3538 22.2188 24.4796 22.1957C24.7197 22.1497 24.6968 21.9424 24.4567 21.8963C24.3424 21.8733 24.2738 21.9309 24.2738 22.046Z" fill="#242424"/>
<path d="M36.8385 24.0612C35.9924 24.1994 34.8606 24.5794 34.2318 24.9479C33.5001 25.3739 32.1053 26.7673 31.6594 27.5042C31.4422 27.8612 31.122 28.5636 30.9506 29.0703C30.6762 29.8648 30.6304 30.1642 30.6304 31.3157C30.6304 32.8242 30.8019 33.5612 31.4422 34.7933C32.3797 36.6012 34.0031 37.937 35.9696 38.5127C36.7584 38.743 38.4619 38.766 39.4451 38.5703C41.9832 38.0406 44.2926 35.7606 44.8986 33.1582C45.1272 32.2024 45.1272 30.4291 44.91 29.4848C44.4641 27.5963 42.8978 25.6733 41.08 24.7866C39.6738 24.0957 38.199 23.8539 36.8385 24.0612ZM41.1143 25.443C41.2401 25.5582 41.0114 26.0188 40.8285 26.0188C40.6684 26.0188 39.7081 25.0515 39.7081 24.8903C39.7081 24.7751 40.92 25.2473 41.1143 25.443ZM35.7752 25.2703C35.6952 25.5006 34.8263 26.0533 34.6891 25.9612C34.6205 25.9266 34.5633 25.7885 34.5633 25.6618C34.5633 25.5006 34.7348 25.3509 35.1693 25.1551C35.7409 24.8788 35.9124 24.9133 35.7752 25.2703ZM39.468 25.1091C39.2851 25.2242 39.205 25.1551 39.3079 24.9939C39.3422 24.9248 39.4337 24.9018 39.5023 24.9363C39.5709 24.9824 39.5595 25.04 39.468 25.1091ZM38.9878 25.7539C38.9535 25.8691 38.9307 25.8 38.9307 25.6157C38.9307 25.42 38.9535 25.3394 38.9878 25.4085C39.0107 25.4891 39.0107 25.6503 38.9878 25.7539ZM41.8803 26.0188C41.8803 26.0763 41.8575 26.1339 41.8346 26.1339C41.8003 26.1339 41.7431 26.0763 41.7088 26.0188C41.6745 25.9497 41.6974 25.9036 41.7546 25.9036C41.8232 25.9036 41.8803 25.9497 41.8803 26.0188ZM40.657 26.4679C40.7027 26.5139 40.4398 26.9745 40.0625 27.4812C39.3079 28.5176 39.1021 28.7133 39.1822 28.2988C39.5366 26.5945 39.6281 26.18 39.6738 26.1109C39.7195 26.0188 40.4855 26.3066 40.657 26.4679ZM34.6662 26.7557C34.8377 26.963 34.8377 26.963 34.5976 26.8363C34.3118 26.6866 34.0717 26.3182 34.186 26.203C34.2318 26.157 34.3118 26.2145 34.369 26.3297C34.4376 26.4448 34.5633 26.6406 34.6662 26.7557ZM36.1525 26.3873C36.2897 26.7903 36.5526 28.437 36.484 28.506C36.3926 28.5866 35.135 26.8363 35.135 26.6406C35.135 26.4794 35.6494 26.1454 35.9124 26.1339C35.9924 26.1339 36.0953 26.2491 36.1525 26.3873ZM33.763 26.7327C33.763 26.8709 33.0656 27.4006 32.7798 27.4697C32.2996 27.5963 32.3225 27.4236 32.837 26.8939C33.2714 26.4563 33.3629 26.3988 33.5458 26.5139C33.6716 26.5945 33.763 26.6866 33.763 26.7327ZM41.5373 26.3988C41.5373 26.4218 41.423 26.537 41.2858 26.6636L41.0229 26.8824L41.2401 26.6176C41.4459 26.3757 41.5373 26.3066 41.5373 26.3988ZM42.9093 26.8939C43.1722 27.1818 43.3552 27.4466 43.3209 27.4812C43.1951 27.6079 42.6692 27.3891 42.2805 27.0436C41.9032 26.7097 41.8918 26.6751 42.0747 26.5254C42.3605 26.3066 42.3719 26.3066 42.9093 26.8939ZM35.0206 28.2642C35.3865 28.8285 35.6837 29.3006 35.6609 29.3236C35.638 29.3582 33.5801 28.1491 33.4315 28.0224C33.3514 27.9533 34.1403 27.1588 34.2432 27.1933C34.3004 27.2163 34.6434 27.6885 35.0206 28.2642ZM42.2233 27.9763C42.2233 28.057 41.2058 28.7018 39.9024 29.4388C39.7653 29.5194 40.9428 27.8612 41.2972 27.4812L41.5945 27.1588L41.9032 27.5157C42.0861 27.7 42.2233 27.9073 42.2233 27.9763ZM43.4809 27.9188C43.4809 28.0224 43.4123 28.057 43.3094 28.0224C43.218 27.9763 43.1379 27.9073 43.1379 27.8497C43.1379 27.7921 43.218 27.746 43.3094 27.746C43.4009 27.746 43.4809 27.8266 43.4809 27.9188ZM37.593 28.2066C37.5587 28.2642 37.4673 28.3218 37.4101 28.3218C37.3415 28.3218 37.3301 28.2642 37.3644 28.2066C37.3987 28.1376 37.4901 28.0915 37.5473 28.0915C37.6159 28.0915 37.6273 28.1376 37.593 28.2066ZM43.0808 28.5521C43.0465 28.6097 42.9207 28.6673 42.8178 28.6673C42.6463 28.6673 42.6463 28.6442 42.7949 28.5521C43.0236 28.4024 43.1722 28.4024 43.0808 28.5521ZM39.9482 28.7479C40.0968 28.9321 40.0854 28.9436 39.9139 28.7939C39.7995 28.7133 39.7081 28.6212 39.7081 28.5982C39.7081 28.506 39.7995 28.5636 39.9482 28.7479ZM33.4886 28.8515C33.6944 29.0127 33.6944 29.0127 33.42 28.886C33.0656 28.7248 33.0085 28.6673 33.1457 28.6673C33.2142 28.6673 33.3629 28.7479 33.4886 28.8515ZM32.5054 28.8976C32.5054 28.9551 32.4597 29.0127 32.3911 29.0127C32.3339 29.0127 32.2768 28.9551 32.2768 28.8976C32.2768 28.8285 32.3339 28.7824 32.3911 28.7824C32.4597 28.7824 32.5054 28.8285 32.5054 28.8976ZM36.6212 29.3582C36.3926 29.5079 36.2439 29.5079 36.3354 29.3582C36.3697 29.2891 36.4955 29.243 36.5984 29.243C36.7699 29.243 36.7699 29.266 36.6212 29.3582ZM37.4215 29.7151C37.4215 29.7842 37.3758 29.7957 37.3072 29.7612C37.25 29.7266 37.1929 29.6345 37.1929 29.577C37.1929 29.5079 37.25 29.4963 37.3072 29.5309C37.3758 29.5654 37.4215 29.6576 37.4215 29.7151ZM36.3811 30.3254C36.4955 30.4636 36.4726 30.4751 36.2897 30.4291C36.1525 30.3945 36.0839 30.3254 36.1182 30.2679C36.1982 30.1297 36.2325 30.1412 36.3811 30.3254ZM41.3201 30.7054C41.4687 30.8897 41.4573 30.9012 41.2858 30.7515C41.0915 30.6018 41.0343 30.5097 41.1258 30.5097C41.1486 30.5097 41.2401 30.6018 41.3201 30.7054ZM32.7912 30.74C32.997 30.8321 32.997 30.8436 32.7341 30.8436C32.574 30.8436 32.3682 30.7976 32.2768 30.74C32.1396 30.6479 32.1396 30.6248 32.3339 30.6363C32.4597 30.6363 32.6655 30.6824 32.7912 30.74ZM34.5633 30.74C34.5633 30.7976 34.4719 30.8551 34.369 30.8551C34.1975 30.8551 34.186 30.8321 34.3347 30.74C34.5519 30.6018 34.5633 30.6018 34.5633 30.74ZM39.7195 30.8206C39.8681 31.0048 39.8567 31.0163 39.6852 30.8666C39.5709 30.786 39.4794 30.6939 39.4794 30.6709C39.4794 30.5788 39.5709 30.6363 39.7195 30.8206ZM43.4238 30.74C43.3895 30.7976 43.218 30.8551 43.0465 30.8436L42.7378 30.8321L43.0236 30.74C43.4238 30.6133 43.5038 30.6133 43.4238 30.74ZM31.6594 31.7879C31.7508 31.9721 31.8194 32.2715 31.8194 32.4673C31.8194 32.7321 31.7737 32.8127 31.5908 32.8127C31.2821 32.8127 31.1335 32.4788 31.1335 31.7648C31.1335 31.2351 31.1563 31.1891 31.3164 31.3273C31.4079 31.4079 31.5679 31.6151 31.6594 31.7879ZM31.7623 31.3157C31.7966 31.3733 31.7851 31.4309 31.7165 31.4309C31.6594 31.4309 31.5679 31.3733 31.5336 31.3157C31.4993 31.2466 31.5108 31.2006 31.5794 31.2006C31.6365 31.2006 31.728 31.2466 31.7623 31.3157ZM44.407 32.7321C44.2355 32.9048 43.9382 32.7321 43.9382 32.4442C43.9382 32.2945 44.0526 31.9491 44.2012 31.6612L44.4527 31.143L44.487 31.88C44.5099 32.283 44.4756 32.663 44.407 32.7321ZM43.4809 31.7418C43.4809 32.2715 43.3552 32.5824 43.1494 32.5824C43.0465 32.5824 42.4405 32.4097 41.8232 32.1909L40.6799 31.8109L41.1944 31.7303C42.1661 31.5806 43.0808 31.4539 43.2866 31.4424C43.4238 31.4309 43.4809 31.5115 43.4809 31.7418ZM34.5633 31.7533C34.7462 31.8224 34.529 31.9376 33.6258 32.2715C32.9856 32.5018 32.4482 32.6745 32.414 32.64C32.3911 32.617 32.3339 32.3521 32.2996 32.0527L32.2425 31.5115L33.2943 31.5921C33.8659 31.6382 34.4376 31.7073 34.5633 31.7533ZM34.3347 33.6763C33.8659 34.16 33.4086 34.5285 33.3171 34.517C33.1342 34.4709 32.654 33.6648 32.7569 33.5612C32.8255 33.4806 34.872 32.8357 35.0778 32.8242C35.135 32.8127 34.8034 33.2042 34.3347 33.6763ZM39.2279 33.043C39.1479 33.1697 39.0221 33.2733 38.9421 33.2733C38.7363 33.2733 38.7592 33.1582 38.9993 32.9739C39.2851 32.7436 39.388 32.7782 39.2279 33.043ZM41.9146 33.2042C42.5892 33.4115 42.9093 33.5612 42.9093 33.6879C42.9093 33.9527 42.5777 34.54 42.4291 34.54C42.2919 34.54 41.1715 33.5151 40.7942 33.0545C40.6341 32.8588 40.6227 32.7897 40.737 32.8357C40.8285 32.8703 41.3544 33.0315 41.9146 33.2042ZM40.2912 33.1236C40.4398 33.3079 40.4284 33.3194 40.2569 33.1697C40.1425 33.0891 40.0511 32.997 40.0511 32.9739C40.0511 32.8818 40.1425 32.9394 40.2912 33.1236ZM32.2768 33.2733C32.2768 33.4115 32.0824 33.4115 31.7623 33.2733C31.5679 33.1927 31.5908 33.1697 31.9109 33.1697C32.1053 33.1582 32.2768 33.2042 32.2768 33.2733ZM43.8239 33.5266C43.8239 33.5957 43.7439 33.5842 43.6524 33.5036C43.5609 33.423 43.4809 33.3079 43.4809 33.2503C43.4809 33.1812 43.5609 33.1927 43.6524 33.2733C43.7439 33.3539 43.8239 33.4691 43.8239 33.5266ZM40.4512 33.9642C40.5655 34.0909 40.6341 34.1945 40.5998 34.1945C40.5655 34.1945 40.4512 34.0909 40.3369 33.9642C40.2226 33.8376 40.154 33.7339 40.1883 33.7339C40.2226 33.7339 40.3369 33.8376 40.4512 33.9642ZM32.3911 34.3327C32.6426 34.7588 32.6998 35.3921 32.4825 35.323C32.4025 35.2885 32.1967 35.0236 32.0024 34.7242C31.7394 34.2751 31.7051 34.1485 31.8309 34.0679C32.0824 33.9066 32.151 33.9412 32.3911 34.3327ZM39.8224 34.137C39.7424 34.2291 39.6281 34.2751 39.5595 34.2291C39.4909 34.183 39.5252 34.1254 39.6624 34.0679C39.971 33.9412 39.9825 33.9412 39.8224 34.137ZM41.4344 34.16C41.5831 34.3442 41.5716 34.3557 41.4001 34.206C41.2858 34.1254 41.1944 34.0333 41.1944 34.0103C41.1944 33.9182 41.2858 33.9757 41.4344 34.16ZM44.0526 34.0448C44.0526 34.2291 43.3552 35.346 43.2523 35.346C43.0465 35.346 43.1379 34.5745 43.378 34.2636C43.5952 33.9873 44.0526 33.8376 44.0526 34.0448ZM41.423 34.5515C41.423 34.6206 41.3773 34.6321 41.3087 34.5976C41.2515 34.563 41.1944 34.4709 41.1944 34.4133C41.1944 34.3442 41.2515 34.3327 41.3087 34.3673C41.3773 34.4018 41.423 34.4939 41.423 34.5515ZM34.5633 34.4594C34.5633 34.4824 34.369 34.6782 34.1403 34.897L33.7059 35.2885L34.0946 34.8509C34.4719 34.4594 34.5633 34.3673 34.5633 34.4594ZM39.4108 36.8315C39.3537 36.8891 39.0907 36.9697 38.8278 37.0157L38.3361 37.0963L38.3476 35.726V34.3673L38.9307 35.5533C39.2736 36.2557 39.468 36.7739 39.4108 36.8315ZM40.5084 34.4594C40.5084 34.4824 40.3941 34.5976 40.2569 34.7242L39.9939 34.943L40.2111 34.6782C40.4169 34.4363 40.5084 34.3673 40.5084 34.4594ZM37.4101 36.486L37.4215 37.0963L36.9985 37.0157C36.1982 36.8776 36.1868 36.7624 36.747 35.5648L37.25 34.4939L37.3186 35.1848C37.3644 35.5533 37.3987 36.1406 37.4101 36.486ZM34.792 34.7703C34.792 34.8279 34.7462 34.8854 34.6776 34.8854C34.6205 34.8854 34.5633 34.8279 34.5633 34.7703C34.5633 34.7012 34.6205 34.6551 34.6776 34.6551C34.7462 34.6551 34.792 34.7012 34.792 34.7703ZM37.7302 35.0812C37.6959 35.1963 37.673 35.1273 37.673 34.943C37.673 34.7473 37.6959 34.6666 37.7302 34.7357C37.7531 34.8163 37.7531 34.9776 37.7302 35.0812ZM42.3376 35.7491C42.3262 35.8757 42.0289 35.5188 41.8689 35.1733C41.8003 35.0466 41.8803 35.0927 42.0404 35.2885C42.2004 35.4727 42.3376 35.68 42.3376 35.7491ZM32.9284 35.5994C32.8941 35.68 32.8713 35.6224 32.8713 35.4612C32.8713 35.3 32.8941 35.2424 32.9284 35.3115C32.9513 35.3921 32.9513 35.5303 32.9284 35.5994ZM34.9635 35.5763C34.9978 35.6339 34.9749 35.6915 34.9177 35.6915C34.8491 35.6915 34.792 35.6339 34.792 35.5763C34.792 35.5073 34.8148 35.4612 34.8377 35.4612C34.872 35.4612 34.9292 35.5073 34.9635 35.5763ZM37.936 36.3018C37.9817 36.5206 37.9589 36.866 37.9017 37.0848C37.7874 37.4648 37.7874 37.4533 37.7759 36.82C37.7645 36.463 37.7302 36.083 37.6845 35.9679C37.6387 35.8412 37.6502 35.7951 37.7416 35.8527C37.8102 35.8988 37.9017 36.0945 37.936 36.3018ZM40.0511 36.2097C40.0511 36.2673 39.9939 36.2442 39.9367 36.1521C39.8796 36.06 39.8224 35.9218 39.8224 35.8642C39.8224 35.7951 39.8796 35.8297 39.9367 35.9218C39.9939 36.0139 40.0511 36.1406 40.0511 36.2097ZM35.4779 36.6012C35.4208 36.7279 35.3065 36.866 35.2379 36.9121C35.1693 36.9466 35.2036 36.8545 35.3065 36.6818C35.5351 36.3363 35.6494 36.2788 35.4779 36.6012ZM40.7485 37.1539C40.8971 37.3382 40.8857 37.3497 40.7142 37.2C40.5998 37.1194 40.5084 37.0273 40.5084 37.0042C40.5084 36.9121 40.5998 36.9697 40.7485 37.1539ZM37.2615 37.8448C37.2157 38.1903 37.1128 38.2133 36.2554 37.983C35.4894 37.7873 35.7295 37.557 36.7013 37.5454C37.2843 37.5339 37.2958 37.5454 37.2615 37.8448ZM39.7995 37.603C40.2111 37.7182 40.0968 37.8563 39.4794 37.983C38.6563 38.1673 38.4505 38.1442 38.4505 37.9024C38.4505 37.7873 38.4848 37.6491 38.5305 37.6145C38.622 37.5109 39.4451 37.5109 39.7995 37.603Z" fill="#242424"/>
<path d="M113.621 24.3491C112.306 24.683 111.152 25.3279 110.26 26.226C107.848 28.6557 107.39 32.3866 109.128 35.3115C109.963 36.7279 111.575 38.006 113.221 38.5818C114.101 38.8927 115.976 38.9503 116.994 38.6969C117.977 38.4551 119.395 37.7182 120.115 37.0733C123.979 33.5842 123.225 27.32 118.663 24.9709C117.257 24.2339 115.096 23.9691 113.621 24.3491ZM113.495 25.0054C113.21 25.5006 112.935 25.8115 112.615 25.9727C112.284 26.1454 112.261 26.1454 112.112 25.9497C112.032 25.8345 111.975 25.6963 111.998 25.6388C112.021 25.5582 113.381 24.8903 113.541 24.8673C113.564 24.8673 113.541 24.9363 113.495 25.0054ZM118.171 25.3048C118.812 25.6042 118.823 25.6157 118.652 25.8691C118.549 26.0188 118.423 26.1339 118.366 26.1339C118.217 26.1339 117.463 25.4545 117.325 25.2012C117.177 24.9018 117.348 24.9248 118.171 25.3048ZM113.873 25.1666C113.838 25.2012 113.736 25.2127 113.656 25.1782C113.564 25.1436 113.598 25.1091 113.724 25.1091C113.85 25.0976 113.918 25.1321 113.873 25.1666ZM117.108 25.2012C117.108 25.2703 117.063 25.3509 116.994 25.3854C116.937 25.42 116.88 25.3739 116.88 25.2818C116.88 25.1782 116.937 25.0976 116.994 25.0976C117.063 25.0976 117.108 25.1436 117.108 25.2012ZM116.502 25.9266C116.468 26.0188 116.434 25.9842 116.434 25.8576C116.422 25.7309 116.457 25.6618 116.491 25.7079C116.525 25.7424 116.537 25.846 116.502 25.9266ZM114.342 26.3757C114.307 26.7557 114.296 26.7557 114.25 26.2836C114.216 26.0188 114.227 25.8345 114.284 25.8921C114.342 25.9497 114.364 26.1685 114.342 26.3757ZM118.034 26.6176C118.08 26.6982 118.046 26.8824 117.966 27.0436C117.771 27.4236 116.765 28.7018 116.708 28.6442C116.685 28.6212 116.777 28.0569 116.902 27.3776L117.131 26.1454L117.543 26.3182C117.771 26.4103 118 26.5485 118.034 26.6176ZM113.77 27.0551C114.113 28.7594 114.113 28.7939 113.953 28.6557C113.644 28.4024 112.649 26.963 112.649 26.7903C112.649 26.583 113.187 26.2376 113.45 26.2836C113.553 26.2951 113.667 26.583 113.77 27.0551ZM111.003 27.1473C110.763 27.4006 109.906 27.7806 109.803 27.6769C109.78 27.6539 110.008 27.343 110.306 26.986L110.854 26.3412L111.06 26.606C111.266 26.8709 111.266 26.8939 111.003 27.1473ZM116.388 26.7327C116.354 26.8133 116.331 26.7557 116.331 26.5945C116.331 26.4333 116.354 26.3757 116.388 26.4448C116.411 26.5254 116.411 26.6636 116.388 26.7327ZM120.881 27.6424C120.881 27.8612 119.909 27.4351 119.589 27.0782C119.383 26.8594 119.383 26.8363 119.589 26.5945L119.795 26.3527L120.344 26.9515C120.641 27.2854 120.881 27.5963 120.881 27.6424ZM112.192 26.94C112.192 26.9976 112.146 27.0551 112.089 27.0551C112.021 27.0551 111.941 26.9976 111.906 26.94C111.872 26.8709 111.918 26.8248 112.009 26.8248C112.112 26.8248 112.192 26.8709 112.192 26.94ZM118.766 26.94C118.732 26.9976 118.652 27.0551 118.583 27.0551C118.526 27.0551 118.48 26.9976 118.48 26.94C118.48 26.8709 118.56 26.8248 118.663 26.8248C118.755 26.8248 118.8 26.8709 118.766 26.94ZM112.524 28.3909C112.924 28.9897 113.233 29.4963 113.21 29.5194C113.187 29.5309 112.638 29.2315 111.998 28.84L110.843 28.126L111.255 27.7C111.483 27.4697 111.701 27.2854 111.735 27.2854C111.769 27.2969 112.124 27.7806 112.524 28.3909ZM119.738 28.103C119.738 28.2066 117.657 29.4848 117.588 29.4273C117.543 29.3812 118.537 27.7921 118.8 27.4812C118.972 27.2854 118.995 27.2969 119.361 27.6539C119.566 27.8497 119.738 28.0569 119.738 28.103ZM120.973 28.08C121.007 28.1721 120.961 28.2182 120.87 28.1836C120.79 28.1606 120.698 28.0685 120.675 27.9879C120.641 27.8957 120.687 27.8497 120.778 27.8842C120.858 27.9073 120.95 27.9994 120.973 28.08ZM110.877 28.8976C110.912 28.9551 110.9 29.0127 110.832 29.0127C110.774 29.0127 110.683 28.9551 110.649 28.8976C110.614 28.8285 110.626 28.7824 110.694 28.7824C110.752 28.7824 110.843 28.8285 110.877 28.8976ZM119.921 28.9551C119.795 29.0473 119.635 29.1279 119.578 29.1279C119.509 29.1279 119.555 29.0473 119.669 28.9551C119.795 28.863 119.955 28.7824 120.012 28.7824C120.081 28.7824 120.035 28.863 119.921 28.9551ZM110.077 29.0127C110.111 29.0703 110.066 29.1279 109.963 29.1279C109.86 29.1279 109.814 29.0703 109.848 29.0127C109.883 28.9436 109.94 28.8976 109.963 28.8976C109.986 28.8976 110.043 28.9436 110.077 29.0127ZM115.359 29.4963C115.325 29.5769 115.302 29.5194 115.302 29.3582C115.302 29.1969 115.325 29.1394 115.359 29.2085C115.382 29.2891 115.382 29.4273 115.359 29.4963ZM117.005 29.4388C117.154 29.623 117.143 29.6345 116.971 29.4848C116.777 29.3351 116.72 29.243 116.811 29.243C116.834 29.243 116.925 29.3351 117.005 29.4388ZM112.421 30.0951C112.421 30.1297 112.375 30.1873 112.306 30.2218C112.249 30.2563 112.192 30.2333 112.192 30.1757C112.192 30.1066 112.249 30.0491 112.306 30.0491C112.375 30.0491 112.421 30.0721 112.421 30.0951ZM110.191 30.8551L110.42 30.9588H110.191C110.066 30.9588 109.883 30.9127 109.791 30.8551C109.643 30.7515 109.643 30.74 109.791 30.7515C109.883 30.7515 110.066 30.7976 110.191 30.8551ZM120.881 30.8551C120.79 30.9127 120.607 30.9588 120.481 30.9588C120.298 30.9473 120.298 30.9357 120.538 30.8551C120.938 30.7285 121.087 30.7285 120.881 30.8551ZM109.208 32.0873C109.277 32.2254 109.334 32.4673 109.334 32.6285C109.334 32.8703 109.277 32.9279 109.06 32.9279C108.728 32.9279 108.648 32.7436 108.648 31.926V31.2812L108.865 31.5576C108.98 31.7073 109.128 31.9491 109.208 32.0873ZM122.047 32.2369C121.979 32.8242 121.944 32.8703 121.659 32.9048C121.293 32.9509 121.27 32.8357 121.464 32.2254C121.624 31.7533 121.921 31.3963 122.036 31.5115C122.082 31.5691 122.093 31.8915 122.047 32.2369ZM120.938 32.0297C120.893 32.306 120.812 32.5709 120.755 32.6285C120.652 32.7436 119.486 32.4557 118.766 32.1333L118.309 31.926L119.566 31.7533C120.264 31.6612 120.87 31.5691 120.915 31.5576C120.973 31.5576 120.984 31.7648 120.938 32.0297ZM111.563 31.8224C112.478 31.9951 112.467 32.0066 110.935 32.4788C109.94 32.7782 109.791 32.7321 109.791 32.1218V31.6612L110.283 31.6727C110.546 31.6727 111.129 31.7418 111.563 31.8224ZM109.528 32.3751C109.494 32.4673 109.46 32.4327 109.46 32.306C109.448 32.1794 109.483 32.1103 109.517 32.1563C109.551 32.1909 109.563 32.2945 109.528 32.3751ZM113.758 33.066C113.724 33.1582 113.69 33.1236 113.69 32.9969C113.678 32.8703 113.713 32.8012 113.747 32.8473C113.781 32.8818 113.793 32.9854 113.758 33.066ZM117.108 33.0545C117.108 33.1236 117.063 33.1351 116.994 33.1006C116.937 33.066 116.88 32.9739 116.88 32.9163C116.88 32.8473 116.937 32.8357 116.994 32.8703C117.063 32.9048 117.108 32.9969 117.108 33.0545ZM111.849 33.8606C111.38 34.2982 110.912 34.6436 110.82 34.6321C110.603 34.586 110.1 33.8376 110.214 33.7224C110.351 33.5957 112.581 32.9394 112.649 33.0085C112.684 33.043 112.318 33.423 111.849 33.8606ZM114.261 33.1236C114.41 33.3079 114.399 33.3194 114.227 33.1697C114.033 33.02 113.976 32.9279 114.067 32.9279C114.09 32.9279 114.181 33.02 114.261 33.1236ZM120.218 33.1812C120.138 33.2618 120.081 33.2733 120.081 33.2042C120.081 33.043 120.218 32.9048 120.298 32.9854C120.321 33.02 120.287 33.1121 120.218 33.1812ZM119.383 33.3424C119.932 33.5036 120.401 33.6763 120.447 33.7224C120.538 33.803 120.012 34.7703 119.875 34.7703C119.829 34.7703 119.406 34.3788 118.937 33.9066C118.469 33.4345 118.16 33.043 118.252 33.043C118.343 33.043 118.846 33.1812 119.383 33.3424ZM109.734 33.3885C109.768 33.4576 109.688 33.5036 109.54 33.5036C109.334 33.5036 109.311 33.4806 109.448 33.3885C109.665 33.2503 109.654 33.2503 109.734 33.3885ZM109.951 34.5515C110.134 35.0121 110.111 35.4612 109.894 35.4612C109.837 35.4612 109.665 35.1963 109.494 34.8739C109.254 34.4018 109.231 34.2636 109.357 34.183C109.643 33.9988 109.768 34.0794 109.951 34.5515ZM113.164 34.1945C113.13 34.2521 113.038 34.3097 112.981 34.3097C112.912 34.3097 112.901 34.2521 112.935 34.1945C112.97 34.1254 113.061 34.0794 113.118 34.0794C113.187 34.0794 113.198 34.1254 113.164 34.1945ZM121.567 34.183C121.567 34.3212 120.847 35.4612 120.755 35.4612C120.595 35.4612 120.63 34.6206 120.812 34.3673C120.938 34.183 121.567 34.0218 121.567 34.183ZM115.359 34.6782C115.325 34.7588 115.302 34.7012 115.302 34.54C115.302 34.3788 115.325 34.3212 115.359 34.3903C115.382 34.4709 115.382 34.6091 115.359 34.6782ZM117.909 34.4594C117.909 34.4824 117.794 34.5976 117.657 34.7242L117.394 34.943L117.611 34.6782C117.817 34.4363 117.909 34.3673 117.909 34.4594ZM111.506 34.5745C111.506 34.5976 111.392 34.7127 111.255 34.8394L110.992 35.0582L111.209 34.7933C111.415 34.5515 111.506 34.4824 111.506 34.5745ZM114.867 35.9103L114.947 37.223L114.422 37.1654C114.124 37.1309 113.85 37.0503 113.793 37.0042C113.736 36.9466 113.941 36.3709 114.227 35.726C114.524 35.0812 114.765 34.563 114.776 34.5745C114.787 34.586 114.822 35.1848 114.867 35.9103ZM116.902 36.7854C116.925 36.9466 116.845 37.0273 116.571 37.1079C115.896 37.3151 115.851 37.223 115.862 35.7836L115.874 34.4824L116.365 35.5303C116.639 36.0945 116.88 36.6703 116.902 36.7854ZM119.452 34.7703C119.566 34.8969 119.635 35.0006 119.601 35.0006C119.566 35.0006 119.452 34.8969 119.338 34.7703C119.223 34.6436 119.155 34.54 119.189 34.54C119.223 34.54 119.338 34.6436 119.452 34.7703ZM113.393 35.0006C113.507 35.1273 113.576 35.2309 113.541 35.2309C113.507 35.2309 113.393 35.1273 113.278 35.0006C113.164 34.8739 113.095 34.7703 113.13 34.7703C113.164 34.7703 113.278 34.8739 113.393 35.0006ZM111.62 35.0351C111.62 35.0582 111.483 35.1963 111.312 35.3576C111.037 35.6109 111.037 35.5073 111.312 35.1388C111.403 35.0121 111.62 34.943 111.62 35.0351ZM112.318 35.1963C112.467 35.3806 112.455 35.3921 112.284 35.2424C112.089 35.0927 112.032 35.0006 112.124 35.0006C112.146 35.0006 112.238 35.0927 112.318 35.1963ZM118.046 35.3691C117.966 35.4497 117.909 35.4612 117.909 35.3921C117.909 35.2309 118.046 35.0927 118.126 35.1733C118.149 35.2079 118.114 35.3 118.046 35.3691ZM119.521 35.4266C119.669 35.6109 119.658 35.6224 119.486 35.4727C119.372 35.3921 119.28 35.3 119.28 35.2769C119.28 35.1848 119.372 35.2424 119.521 35.4266ZM112.318 35.8873C112.467 36.0715 112.455 36.083 112.284 35.9333C112.089 35.7836 112.032 35.6915 112.124 35.6915C112.146 35.6915 112.238 35.7836 112.318 35.8873ZM115.439 37.0963L115.348 37.8218L115.268 37.0733C115.188 36.2903 115.233 36.06 115.416 36.2442C115.485 36.3133 115.496 36.6357 115.439 37.0963ZM112.981 36.7279C112.844 36.9812 112.695 37.1654 112.672 37.1309C112.615 37.0848 113.095 36.2673 113.175 36.2673C113.21 36.2673 113.118 36.4745 112.981 36.7279ZM117.68 36.4976C117.748 36.6242 117.771 36.7279 117.748 36.7279C117.714 36.7279 117.634 36.6242 117.566 36.4976C117.497 36.3709 117.474 36.2673 117.497 36.2673C117.531 36.2673 117.611 36.3709 117.68 36.4976ZM111.735 36.9582C111.735 37.0157 111.712 37.0733 111.689 37.0733C111.655 37.0733 111.598 37.0157 111.563 36.9582C111.529 36.8891 111.552 36.843 111.609 36.843C111.678 36.843 111.735 36.8891 111.735 36.9582ZM119.166 36.9582C119.166 37.0157 119.12 37.0733 119.052 37.0733C118.995 37.0733 118.937 37.0157 118.937 36.9582C118.937 36.8891 118.995 36.843 119.052 36.843C119.12 36.843 119.166 36.8891 119.166 36.9582ZM118.194 37.1885C118.229 37.246 118.206 37.3036 118.149 37.3036C118.08 37.3036 118.023 37.246 118.023 37.1885C118.023 37.1194 118.046 37.0733 118.069 37.0733C118.103 37.0733 118.16 37.1194 118.194 37.1885ZM114.696 37.9024C114.867 38.3745 114.81 38.386 113.656 38.0982C112.912 37.9024 113.141 37.6836 114.113 37.6606C114.524 37.6491 114.616 37.6951 114.696 37.9024ZM117.337 37.7642C117.566 37.9024 117.44 37.9945 116.857 38.1212C116.582 38.1788 116.274 38.2594 116.171 38.2939C115.908 38.3745 115.896 38.0751 116.148 37.8333C116.342 37.6376 117.063 37.5915 117.337 37.7642ZM115.45 38.1097C115.485 38.1673 115.416 38.2248 115.29 38.2248C115.153 38.2248 115.05 38.1673 115.05 38.1097C115.05 38.0406 115.119 37.9945 115.21 37.9945C115.302 37.9945 115.416 38.0406 115.45 38.1097Z" fill="#242424"/>
<path d="M24.5939 29.6576C24.5367 29.7037 24.5024 29.8879 24.5024 30.0721C24.5024 30.2449 24.4567 30.3946 24.3881 30.3946C24.331 30.3946 24.2852 30.337 24.3081 30.2564C24.3195 30.1873 24.2052 30.0606 24.0566 29.98C23.8279 29.8649 23.7364 29.8649 23.5078 30.0146C23.1877 30.2218 23.0619 30.6479 23.2334 30.9358C23.3477 31.1315 23.3477 31.12 23.3592 30.8782C23.3592 30.74 23.4049 30.6249 23.4621 30.6249C23.5192 30.6249 23.5878 30.74 23.6107 30.8782C23.6336 31.0509 23.7364 31.1546 23.9079 31.1776C24.2738 31.2352 24.4453 31.0509 24.6168 30.4637C24.754 29.9455 24.7425 29.4964 24.5939 29.6576ZM24.0451 30.1643C24.0451 30.2218 23.9651 30.2794 23.8622 30.2794C23.7707 30.2794 23.725 30.2218 23.7593 30.1643C23.7936 30.0952 23.8736 30.0491 23.9422 30.0491C23.9994 30.0491 24.0451 30.0952 24.0451 30.1643Z" fill="#242424"/>
<path d="M53.7133 43.5909C51.4839 44.063 50.4664 44.9497 50.4549 46.4351C50.4549 47.1145 50.6607 47.5291 51.2552 48.0473C51.8383 48.5424 52.7529 48.8303 54.9709 49.2218C56.8802 49.5442 57.2917 49.6594 57.9206 50.0163C58.4465 50.3042 58.6866 50.7188 58.6866 51.3406C58.6866 52.043 57.9777 52.7339 56.9145 53.0794C55.4968 53.54 52.913 53.3788 51.2095 52.7224C50.9008 52.6073 50.6264 52.5266 50.6036 52.5497C50.5807 52.5727 50.5464 52.7339 50.535 52.9066C50.5121 53.1715 50.5807 53.2406 51.038 53.4248C52.4557 53.9891 55.3139 54.2309 56.6286 53.8969C58.4465 53.4248 59.4754 52.4576 59.4868 51.2024C59.4868 50.7303 59.1782 50.0279 58.8352 49.7169C58.4236 49.3369 57.3603 48.9454 56.1485 48.7151C55.4625 48.5769 54.3649 48.3697 53.7018 48.243C51.804 47.8745 51.2324 47.46 51.2324 46.4582C51.2324 45.5945 51.6782 45.0303 52.6958 44.6042C53.8047 44.1321 56.2056 44.2127 57.8634 44.7769L58.8237 45.0994L58.9266 44.823C59.0867 44.3969 59.0753 44.3854 58.2635 44.1206C56.7544 43.6254 54.7079 43.3836 53.7133 43.5909Z" fill="#242424"/>
<path d="M24.9598 48.8188V53.8854H29.2471H33.5344V53.54V53.1945H29.6472H25.7601V51.1794V49.1642H29.2471H32.7341V48.8188V48.4733H29.2471H25.7601V46.4582V44.443H29.6472H33.5344V44.0976V43.7521H29.2471H24.9598V48.8188Z" fill="#242424"/>
<path d="M41.2172 44.5812C40.9657 45.0418 39.9253 46.9994 38.9078 48.9339C37.8903 50.8685 36.8728 52.7685 36.6555 53.16L36.2668 53.8854H36.7127H37.1471L37.8331 52.5842L38.5076 51.2945L42.0175 51.26L45.5274 51.237L46.2248 52.5612C46.9108 53.8509 46.9336 53.8854 47.3223 53.8854C47.5396 53.8854 47.7111 53.8624 47.7111 53.8279C47.7111 53.7933 46.522 51.5133 45.0701 48.7612L42.4291 43.7521H42.0518C41.6974 43.7521 41.6402 43.8097 41.2172 44.5812ZM43.5838 47.5406C44.407 49.1066 45.0815 50.4309 45.0815 50.477C45.0815 50.5115 43.721 50.546 42.0518 50.546C40.2111 50.546 39.0221 50.5 39.0221 50.4309C39.0221 50.3157 41.9947 44.6733 42.0518 44.6733C42.0747 44.6733 42.7607 45.963 43.5838 47.5406Z" fill="#242424"/>
<path d="M64.3458 46.7345L66.8039 49.717V51.8012V53.8854H67.204H67.6042V51.8357V49.7976L70.0165 46.8612C71.3427 45.2491 72.4517 43.8903 72.486 43.8327C72.5088 43.7866 72.3373 43.7521 72.0973 43.7521C71.6742 43.7636 71.6171 43.8097 69.4906 46.4006C68.3016 47.8515 67.284 49.0376 67.2497 49.0491C67.2154 49.0491 66.1979 47.8515 64.986 46.4006C62.8024 43.7751 62.7795 43.7521 62.3336 43.7521H61.8878L64.3458 46.7345Z" fill="#242424"/>
<path d="M81.5522 48.8073V53.8854H81.9523H82.3525V52.043V50.2006L84.8334 50.2236L87.3143 50.2582L88.5033 51.9279C89.155 52.8491 89.7266 53.6666 89.7724 53.7473C89.8295 53.8509 90.0239 53.8854 90.3212 53.8624L90.7899 53.8279L89.5437 52.1006C88.8692 51.1448 88.309 50.3388 88.2975 50.2927C88.2975 50.2466 88.5262 50.143 88.812 50.0739C89.5094 49.8897 90.1611 49.3945 90.5384 48.7497C90.7899 48.3236 90.8585 48.0242 90.9042 47.3103C90.9957 45.7212 90.5498 44.777 89.4294 44.1551L88.812 43.8097L85.1878 43.7751L81.5522 43.7406V48.8073ZM88.4576 44.5697C89.075 44.7194 89.6923 45.226 89.9553 45.7903C90.3783 46.677 90.1382 48.2545 89.4866 48.8303C88.812 49.4291 88.652 49.4521 85.4165 49.4866L82.3525 49.5212V46.9879V44.443H85.165C86.7998 44.443 88.1718 44.5006 88.4576 44.5697Z" fill="#242424"/>
<path d="M95.0429 48.8188V53.8854H99.3302H103.618V53.54V53.1945H99.7304H95.8432V51.1794V49.1642H99.3302H102.817V48.8188V48.4733H99.3302H95.8432V46.4582V44.443H99.7304H103.618V44.0976V43.7521H99.3302H95.0429V48.8188Z" fill="#242424"/>
<path d="M107.505 48.8188V53.8854H107.905H108.305L108.328 49.383L108.362 44.8806L112.364 49.383C116.056 53.54 116.388 53.8739 116.742 53.8854H117.108V48.8188V43.7521H116.765H116.422V48.266V52.78L116.114 52.4691C115.931 52.3079 114.124 50.2812 112.078 47.9666C108.465 43.8788 108.351 43.7636 107.939 43.7636L107.505 43.7521V48.8188Z" fill="#242424"/>
<path d="M120.309 44.0976V44.443H122.596H124.883V49.1642V53.8854H125.283H125.683V49.1642V44.443H127.855H130.027V44.0976V43.7521H125.168H120.309V44.0976Z" fill="#242424"/>
<path d="M79.1513 64.1339C79.1513 66.5176 79.1742 66.8976 79.3228 66.8976C79.4714 66.8976 79.4943 66.5176 79.4943 64.1339C79.4943 61.7503 79.4714 61.3703 79.3228 61.3703C79.1742 61.3703 79.1513 61.7503 79.1513 64.1339Z" fill="#242424"/>
<path d="M97.5696 61.877C97.4324 62.0382 97.5124 62.1764 97.7525 62.1764C97.924 62.1764 97.9583 61.877 97.7982 61.7849C97.7411 61.7503 97.6382 61.7849 97.5696 61.877Z" fill="#242424"/>
<path d="M72.1773 62.637C72.1773 63.0515 72.1544 63.0976 71.8915 63.0976C71.7085 63.0976 71.6057 63.1667 71.6057 63.2703C71.6057 63.3624 71.6971 63.443 71.8229 63.443C72.0058 63.443 72.0401 63.5812 72.0858 64.8824C72.1659 66.4946 72.2802 66.8285 72.8633 66.9552C73.2977 67.0473 73.8922 66.9206 73.8922 66.7364C73.8922 66.6212 73.7436 66.5982 73.3434 66.6442C72.5431 66.7133 72.486 66.5867 72.4288 64.8709L72.3831 63.4546L73.1605 63.42C74.1552 63.3739 74.1437 63.1667 73.1491 63.1206L72.4059 63.0861V62.637C72.4059 62.3836 72.3602 62.1764 72.2916 62.1764C72.2345 62.1764 72.1773 62.3836 72.1773 62.637Z" fill="#242424"/>
<path d="M48.8315 63.0861C47.8825 63.2818 47.3681 63.9382 47.3681 64.9746C47.3681 66.5867 48.5914 67.3582 50.3177 66.84C50.9351 66.6558 51.1752 66.3564 50.6036 66.483C48.9229 66.863 47.9511 66.5291 47.7111 65.4812C47.3909 64.0188 48.4313 63.1091 50.0434 63.443C50.8093 63.6042 50.8436 63.6042 50.8894 63.4661C50.958 63.2358 49.4946 62.9594 48.8315 63.0861Z" fill="#242424"/>
<path d="M52.7987 63.0631C52.1013 63.1552 51.5868 63.3394 51.6325 63.4776C51.6668 63.5582 51.7468 63.6043 51.8383 63.5812C53.0616 63.2818 53.8734 63.3164 54.2735 63.6618C54.4793 63.8346 54.7994 64.4679 54.7994 64.6982C54.7994 64.7558 54.182 64.8134 53.4389 64.8364C51.9069 64.8825 51.461 65.0667 51.3924 65.6885C51.2895 66.5521 51.7697 66.9437 52.9702 66.9437C53.7819 66.9437 54.1592 66.8055 54.525 66.3564L54.7651 66.0685L54.8451 66.4831C54.9595 67.1049 55.2682 67.0473 55.1996 66.4025C55.1767 66.1376 55.1195 65.5158 55.0852 65.0206C55.0281 64.0303 54.8337 63.5697 54.3535 63.3049C54.022 63.1091 53.3131 62.994 52.7987 63.0631ZM54.7308 65.4812C54.5479 66.2758 53.9877 66.6673 53.0388 66.6673C52.3757 66.6673 51.9984 66.5176 51.7697 66.1606C51.6211 65.9418 51.6097 65.8267 51.7126 65.6309C51.9069 65.2625 52.227 65.1818 53.5761 65.1818L54.7994 65.1703L54.7308 65.4812Z" fill="#242424"/>
<path d="M64.2543 63.0976C63.3626 63.2703 62.8024 63.9958 62.8024 64.9976C62.8024 66.4946 63.9571 67.2546 65.672 66.8861C66.0607 66.7939 66.4037 66.6558 66.438 66.5636C66.4837 66.437 66.4151 66.4255 66.1636 66.483C64.7345 66.817 63.7856 66.6327 63.374 65.9533C62.9053 65.1818 62.9281 65.1703 64.986 65.1703H66.8382L66.781 64.6636C66.6438 63.4891 65.592 62.8442 64.2543 63.0976ZM65.8321 63.6273C66.1407 63.8346 66.4609 64.3412 66.4609 64.6521C66.4609 64.8018 66.2208 64.8249 64.8031 64.8249C63.2711 64.8249 63.1454 64.8133 63.1454 64.6061C63.1454 64.2491 63.6484 63.6273 64.06 63.4661C64.563 63.2933 65.4433 63.3739 65.8321 63.6273Z" fill="#242424"/>
<path d="M69.0904 63.0976C68.5416 63.2012 68.2101 63.397 67.97 63.7655L67.7756 64.0649L67.7185 63.6158C67.6842 63.3049 67.5927 63.1436 67.467 63.1206C67.2955 63.0861 67.284 63.1321 67.3869 63.4661C67.4441 63.6733 67.4898 64.537 67.4898 65.3661C67.4898 66.6558 67.5127 66.8976 67.6613 66.8976C67.7985 66.8976 67.8328 66.6903 67.8328 65.7346C67.8328 64.8824 67.89 64.4679 68.0272 64.1685C68.4388 63.2818 69.9593 63.0746 70.5081 63.823C70.7139 64.0994 70.7482 64.3412 70.7825 65.5273C70.8168 66.6558 70.8511 66.8976 70.9997 66.8976C71.2627 66.8976 71.1712 64.1915 70.8854 63.7539C70.5195 63.1782 69.8793 62.9479 69.0904 63.0976Z" fill="#242424"/>
<path d="M75.8929 63.0631C75.1955 63.1552 74.6811 63.3394 74.7268 63.4776C74.7611 63.5582 74.8411 63.6043 74.9326 63.5812C76.1559 63.2818 76.9676 63.3164 77.3678 63.6618C77.5736 63.8346 77.8937 64.4679 77.8937 64.6982C77.8937 64.7558 77.2763 64.8134 76.5332 64.8364C75.0012 64.8825 74.5553 65.0667 74.4867 65.6885C74.3838 66.5521 74.864 66.9437 76.0644 66.9437C76.8762 66.9437 77.2534 66.8055 77.6193 66.3564L77.8594 66.0685L77.9394 66.4831C78.0537 67.1049 78.3624 67.0473 78.2938 66.4025C78.271 66.1376 78.2138 65.5158 78.1795 65.0206C78.1223 64.0303 77.928 63.5697 77.4478 63.3049C77.1162 63.1091 76.4074 62.994 75.8929 63.0631ZM77.8251 65.4812C77.6422 66.2758 77.0819 66.6673 76.133 66.6673C75.4699 66.6673 75.0926 66.5176 74.864 66.1606C74.7154 65.9418 74.7039 65.8267 74.8068 65.6309C75.0012 65.2625 75.3213 65.1818 76.6704 65.1818L77.8937 65.1703L77.8251 65.4812Z" fill="#242424"/>
<path d="M83.0499 63.1091C82.3525 63.2473 81.9866 63.6158 82.0324 64.1225C82.0781 64.6637 82.444 64.894 83.6673 65.1588C84.4218 65.32 84.742 65.4467 84.8906 65.6309C85.0735 65.8612 85.0849 65.9303 84.9477 66.1376C84.6619 66.5637 84.2961 66.6788 83.4386 66.6212C83.0042 66.5867 82.4897 66.5291 82.3068 66.4831C82.0552 66.4255 81.9866 66.437 82.0324 66.5637C82.0667 66.6558 82.4097 66.794 82.8441 66.8861C84.1817 67.1625 85.3593 66.7134 85.3593 65.9188C85.3593 65.3431 84.9477 65.0897 83.5529 64.8249C82.6383 64.6406 82.3296 64.4334 82.3754 64.0418C82.3982 63.8115 82.524 63.6734 82.8555 63.5122C83.2443 63.3164 83.3929 63.3049 84.056 63.4085C84.4676 63.4776 84.8792 63.5467 84.9706 63.5697C85.0506 63.5928 85.1421 63.5582 85.1764 63.4891C85.2221 63.3625 84.6162 63.1667 83.8959 63.0515C83.713 63.0285 83.3243 63.0515 83.0499 63.1091Z" fill="#242424"/>
<path d="M87.2343 63.0976C86.3426 63.2703 85.7823 63.9958 85.7823 64.9976C85.7823 66.4946 86.9371 67.2546 88.652 66.8861C89.0407 66.7939 89.3837 66.6558 89.418 66.5636C89.4637 66.437 89.3951 66.4255 89.1436 66.483C87.7145 66.817 86.7656 66.6327 86.354 65.9533C85.8852 65.1818 85.9081 65.1703 87.966 65.1703H89.8181L89.761 64.6636C89.6238 63.4891 88.572 62.8442 87.2343 63.0976ZM88.812 63.6273C89.1207 63.8346 89.4408 64.3412 89.4408 64.6521C89.4408 64.8018 89.2008 64.8249 87.7831 64.8249C86.2511 64.8249 86.1253 64.8133 86.1253 64.6061C86.1253 64.2491 86.6284 63.6273 87.04 63.4661C87.543 63.2933 88.4233 63.3739 88.812 63.6273Z" fill="#242424"/>
<path d="M100.05 63.0861C99.1016 63.2818 98.5871 63.9382 98.5871 64.9746C98.5871 66.5867 99.8104 67.3582 101.537 66.84C102.154 66.6558 102.394 66.3564 101.823 66.483C100.142 66.863 99.1702 66.5291 98.9301 65.4812C98.61 64.0188 99.6503 63.1091 101.262 63.443C102.028 63.6042 102.063 63.6042 102.108 63.4661C102.177 63.2358 100.714 62.9594 100.05 63.0861Z" fill="#242424"/>
<path d="M104.041 63.0976C103.149 63.2703 102.589 63.9958 102.589 64.9976C102.589 66.4946 103.743 67.2546 105.458 66.8861C105.847 66.7939 106.19 66.6558 106.224 66.5636C106.27 66.437 106.201 66.4255 105.95 66.483C104.521 66.817 103.572 66.6327 103.16 65.9533C102.691 65.1818 102.714 65.1703 104.772 65.1703H106.624L106.567 64.6636C106.43 63.4891 105.378 62.8442 104.041 63.0976ZM105.63 63.6273C105.927 63.8346 106.247 64.3527 106.247 64.6521C106.247 64.8018 106.007 64.8249 104.589 64.8249C103.172 64.8249 102.932 64.8018 102.932 64.6521C102.932 64.4103 103.217 63.8691 103.435 63.6733C103.892 63.3049 105.092 63.2703 105.63 63.6273Z" fill="#242424"/>
<path d="M55.9541 63.4661C56.0113 63.6733 56.057 64.537 56.057 65.3661C56.057 66.6558 56.0799 66.8976 56.2285 66.8976C56.3657 66.8976 56.4 66.6903 56.4 65.7346C56.4 64.0764 56.743 63.4661 57.7377 63.397C58.3207 63.3624 58.3779 63.0976 57.8062 63.0976C57.2689 63.0976 56.6744 63.4546 56.48 63.8691C56.3428 64.18 56.3428 64.18 56.2857 63.6733C56.24 63.3049 56.1714 63.1436 56.0342 63.1206C55.8627 63.0861 55.8512 63.1321 55.9541 63.4661Z" fill="#242424"/>
<path d="M60.4129 63.4661C60.4701 63.6733 60.5158 64.537 60.5158 65.3661C60.5158 66.6558 60.5387 66.8976 60.6873 66.8976C60.8245 66.8976 60.8588 66.6903 60.8588 65.7346C60.8588 64.0764 61.2018 63.4661 62.1965 63.397C62.7795 63.3624 62.8367 63.0976 62.265 63.0976C61.7277 63.0976 61.1332 63.4546 60.9388 63.8691C60.8016 64.18 60.8016 64.18 60.7445 63.6733C60.6988 63.3049 60.6302 63.1436 60.493 63.1206C60.3215 63.0861 60.31 63.1321 60.4129 63.4661Z" fill="#242424"/>
<path d="M90.3669 63.4661C90.4241 63.6733 90.4698 64.537 90.4698 65.3661C90.4698 66.6558 90.4927 66.8976 90.6413 66.8976C90.7785 66.8976 90.8128 66.6903 90.8128 65.7346C90.8128 64.0764 91.1558 63.4661 92.1504 63.397C92.7335 63.3624 92.7907 63.0976 92.219 63.0976C91.6817 63.0976 91.0872 63.4546 90.8928 63.8691C90.7556 64.18 90.7556 64.18 90.6985 63.6733C90.6527 63.3049 90.5841 63.1436 90.4469 63.1206C90.2755 63.0861 90.264 63.1321 90.3669 63.4661Z" fill="#242424"/>
<path d="M92.7563 63.1782C92.7563 63.4085 94.6885 66.84 94.8257 66.8745C95.0086 66.9091 95.0086 66.886 96.1748 64.6751C96.7921 63.5006 96.9636 63.086 96.815 63.1206C96.7007 63.1436 96.2777 63.8 95.7517 64.8133C95.02 66.2182 94.8714 66.437 94.7571 66.2757C94.6771 66.1721 94.2655 65.4236 93.831 64.5945C93.3966 63.777 92.9736 63.0976 92.905 63.0976C92.8249 63.0976 92.7563 63.1321 92.7563 63.1782Z" fill="#242424"/>
<path d="M97.5581 64.9976C97.5581 66.6097 97.581 66.8976 97.7296 66.8976C97.8783 66.8976 97.9011 66.6097 97.9011 64.9976C97.9011 63.3855 97.8783 63.0976 97.7296 63.0976C97.581 63.0976 97.5581 63.3855 97.5581 64.9976Z" fill="#242424"/>
<path d="M44.1669 64.537C44.1669 64.6752 44.3841 64.7097 45.4245 64.7097C46.4649 64.7097 46.6821 64.6752 46.6821 64.537C46.6821 64.3988 46.4649 64.3643 45.4245 64.3643C44.3841 64.3643 44.1669 64.3988 44.1669 64.537Z" fill="#242424"/>
<path d="M107.162 64.537C107.162 64.6752 107.379 64.7097 108.419 64.7097C109.46 64.7097 109.677 64.6752 109.677 64.537C109.677 64.3988 109.46 64.3643 108.419 64.3643C107.379 64.3643 107.162 64.3988 107.162 64.537Z" fill="#242424"/>
</svg>
